%TF.GenerationSoftware,KiCad,Pcbnew,9.0.2*%
%TF.CreationDate,2026-02-03T00:17:24-06:00*%
%TF.ProjectId,conditioner,636f6e64-6974-4696-9f6e-65722e6b6963,rev?*%
%TF.SameCoordinates,Original*%
%TF.FileFunction,Legend,Top*%
%TF.FilePolarity,Positive*%
%FSLAX46Y46*%
G04 Gerber Fmt 4.6, Leading zero omitted, Abs format (unit mm)*
G04 Created by KiCad (PCBNEW 9.0.2) date 2026-02-03 00:17:24*
%MOMM*%
%LPD*%
G01*
G04 APERTURE LIST*
%ADD10C,0.200000*%
%ADD11C,0.150000*%
%ADD12C,0.127000*%
%ADD13C,0.120000*%
G04 APERTURE END LIST*
D10*
X158662500Y-64725000D02*
X165287500Y-64725000D01*
X165287500Y-67400000D01*
X158662500Y-67400000D01*
X158662500Y-64725000D01*
X177100000Y-59575000D02*
X184025000Y-59575000D01*
X184025000Y-62250000D01*
X177100000Y-62250000D01*
X177100000Y-59575000D01*
X158625000Y-74937500D02*
X164100000Y-74937500D01*
X164100000Y-77612500D01*
X158625000Y-77612500D01*
X158625000Y-74937500D01*
X158625000Y-59550000D02*
X165300000Y-59550000D01*
X165300000Y-62225000D01*
X158625000Y-62225000D01*
X158625000Y-59550000D01*
X158675000Y-67400000D02*
X163000000Y-67400000D01*
X163000000Y-72425000D01*
X158675000Y-72425000D01*
X158675000Y-67400000D01*
D11*
X161677438Y-70686904D02*
X161629819Y-70782142D01*
X161629819Y-70782142D02*
X161629819Y-70924999D01*
X161629819Y-70924999D02*
X161677438Y-71067856D01*
X161677438Y-71067856D02*
X161772676Y-71163094D01*
X161772676Y-71163094D02*
X161867914Y-71210713D01*
X161867914Y-71210713D02*
X162058390Y-71258332D01*
X162058390Y-71258332D02*
X162201247Y-71258332D01*
X162201247Y-71258332D02*
X162391723Y-71210713D01*
X162391723Y-71210713D02*
X162486961Y-71163094D01*
X162486961Y-71163094D02*
X162582200Y-71067856D01*
X162582200Y-71067856D02*
X162629819Y-70924999D01*
X162629819Y-70924999D02*
X162629819Y-70829761D01*
X162629819Y-70829761D02*
X162582200Y-70686904D01*
X162582200Y-70686904D02*
X162534580Y-70639285D01*
X162534580Y-70639285D02*
X162201247Y-70639285D01*
X162201247Y-70639285D02*
X162201247Y-70829761D01*
X162629819Y-70210713D02*
X161629819Y-70210713D01*
X161629819Y-70210713D02*
X162629819Y-69639285D01*
X162629819Y-69639285D02*
X161629819Y-69639285D01*
X162629819Y-69163094D02*
X161629819Y-69163094D01*
X161629819Y-69163094D02*
X161629819Y-68924999D01*
X161629819Y-68924999D02*
X161677438Y-68782142D01*
X161677438Y-68782142D02*
X161772676Y-68686904D01*
X161772676Y-68686904D02*
X161867914Y-68639285D01*
X161867914Y-68639285D02*
X162058390Y-68591666D01*
X162058390Y-68591666D02*
X162201247Y-68591666D01*
X162201247Y-68591666D02*
X162391723Y-68639285D01*
X162391723Y-68639285D02*
X162486961Y-68686904D01*
X162486961Y-68686904D02*
X162582200Y-68782142D01*
X162582200Y-68782142D02*
X162629819Y-68924999D01*
X162629819Y-68924999D02*
X162629819Y-69163094D01*
X178101190Y-60404819D02*
X178434523Y-61404819D01*
X178434523Y-61404819D02*
X178767856Y-60404819D01*
X179244047Y-61404819D02*
X179148809Y-61357200D01*
X179148809Y-61357200D02*
X179101190Y-61309580D01*
X179101190Y-61309580D02*
X179053571Y-61214342D01*
X179053571Y-61214342D02*
X179053571Y-60928628D01*
X179053571Y-60928628D02*
X179101190Y-60833390D01*
X179101190Y-60833390D02*
X179148809Y-60785771D01*
X179148809Y-60785771D02*
X179244047Y-60738152D01*
X179244047Y-60738152D02*
X179386904Y-60738152D01*
X179386904Y-60738152D02*
X179482142Y-60785771D01*
X179482142Y-60785771D02*
X179529761Y-60833390D01*
X179529761Y-60833390D02*
X179577380Y-60928628D01*
X179577380Y-60928628D02*
X179577380Y-61214342D01*
X179577380Y-61214342D02*
X179529761Y-61309580D01*
X179529761Y-61309580D02*
X179482142Y-61357200D01*
X179482142Y-61357200D02*
X179386904Y-61404819D01*
X179386904Y-61404819D02*
X179244047Y-61404819D01*
X180434523Y-60738152D02*
X180434523Y-61404819D01*
X180005952Y-60738152D02*
X180005952Y-61261961D01*
X180005952Y-61261961D02*
X180053571Y-61357200D01*
X180053571Y-61357200D02*
X180148809Y-61404819D01*
X180148809Y-61404819D02*
X180291666Y-61404819D01*
X180291666Y-61404819D02*
X180386904Y-61357200D01*
X180386904Y-61357200D02*
X180434523Y-61309580D01*
X180767857Y-60738152D02*
X181148809Y-60738152D01*
X180910714Y-60404819D02*
X180910714Y-61261961D01*
X180910714Y-61261961D02*
X180958333Y-61357200D01*
X180958333Y-61357200D02*
X181053571Y-61404819D01*
X181053571Y-61404819D02*
X181148809Y-61404819D01*
X162559523Y-76804819D02*
X162083333Y-76804819D01*
X162083333Y-76804819D02*
X162083333Y-75804819D01*
X163464285Y-76709580D02*
X163416666Y-76757200D01*
X163416666Y-76757200D02*
X163273809Y-76804819D01*
X163273809Y-76804819D02*
X163178571Y-76804819D01*
X163178571Y-76804819D02*
X163035714Y-76757200D01*
X163035714Y-76757200D02*
X162940476Y-76661961D01*
X162940476Y-76661961D02*
X162892857Y-76566723D01*
X162892857Y-76566723D02*
X162845238Y-76376247D01*
X162845238Y-76376247D02*
X162845238Y-76233390D01*
X162845238Y-76233390D02*
X162892857Y-76042914D01*
X162892857Y-76042914D02*
X162940476Y-75947676D01*
X162940476Y-75947676D02*
X163035714Y-75852438D01*
X163035714Y-75852438D02*
X163178571Y-75804819D01*
X163178571Y-75804819D02*
X163273809Y-75804819D01*
X163273809Y-75804819D02*
X163416666Y-75852438D01*
X163416666Y-75852438D02*
X163464285Y-75900057D01*
X161363095Y-66073866D02*
X162125000Y-66073866D01*
X161744047Y-66454819D02*
X161744047Y-65692914D01*
X163124999Y-66454819D02*
X162553571Y-66454819D01*
X162839285Y-66454819D02*
X162839285Y-65454819D01*
X162839285Y-65454819D02*
X162744047Y-65597676D01*
X162744047Y-65597676D02*
X162648809Y-65692914D01*
X162648809Y-65692914D02*
X162553571Y-65740533D01*
X163505952Y-65550057D02*
X163553571Y-65502438D01*
X163553571Y-65502438D02*
X163648809Y-65454819D01*
X163648809Y-65454819D02*
X163886904Y-65454819D01*
X163886904Y-65454819D02*
X163982142Y-65502438D01*
X163982142Y-65502438D02*
X164029761Y-65550057D01*
X164029761Y-65550057D02*
X164077380Y-65645295D01*
X164077380Y-65645295D02*
X164077380Y-65740533D01*
X164077380Y-65740533D02*
X164029761Y-65883390D01*
X164029761Y-65883390D02*
X163458333Y-66454819D01*
X163458333Y-66454819D02*
X164077380Y-66454819D01*
X164363095Y-65454819D02*
X164696428Y-66454819D01*
X164696428Y-66454819D02*
X165029761Y-65454819D01*
X161313095Y-61023866D02*
X162075000Y-61023866D01*
X163074999Y-61404819D02*
X162503571Y-61404819D01*
X162789285Y-61404819D02*
X162789285Y-60404819D01*
X162789285Y-60404819D02*
X162694047Y-60547676D01*
X162694047Y-60547676D02*
X162598809Y-60642914D01*
X162598809Y-60642914D02*
X162503571Y-60690533D01*
X163455952Y-60500057D02*
X163503571Y-60452438D01*
X163503571Y-60452438D02*
X163598809Y-60404819D01*
X163598809Y-60404819D02*
X163836904Y-60404819D01*
X163836904Y-60404819D02*
X163932142Y-60452438D01*
X163932142Y-60452438D02*
X163979761Y-60500057D01*
X163979761Y-60500057D02*
X164027380Y-60595295D01*
X164027380Y-60595295D02*
X164027380Y-60690533D01*
X164027380Y-60690533D02*
X163979761Y-60833390D01*
X163979761Y-60833390D02*
X163408333Y-61404819D01*
X163408333Y-61404819D02*
X164027380Y-61404819D01*
X164313095Y-60404819D02*
X164646428Y-61404819D01*
X164646428Y-61404819D02*
X164979761Y-60404819D01*
D12*
X162334742Y-79520491D02*
X162791885Y-79520491D01*
X162563313Y-80320491D02*
X162563313Y-79520491D01*
X162982361Y-79787157D02*
X163172837Y-80320491D01*
X163363314Y-79787157D02*
X163172837Y-80320491D01*
X163172837Y-80320491D02*
X163096647Y-80510967D01*
X163096647Y-80510967D02*
X163058552Y-80549062D01*
X163058552Y-80549062D02*
X162982361Y-80587157D01*
X163782361Y-80320491D02*
X163706171Y-80282396D01*
X163706171Y-80282396D02*
X163668076Y-80206205D01*
X163668076Y-80206205D02*
X163668076Y-79520491D01*
X164391886Y-80282396D02*
X164315695Y-80320491D01*
X164315695Y-80320491D02*
X164163314Y-80320491D01*
X164163314Y-80320491D02*
X164087124Y-80282396D01*
X164087124Y-80282396D02*
X164049028Y-80206205D01*
X164049028Y-80206205D02*
X164049028Y-79901443D01*
X164049028Y-79901443D02*
X164087124Y-79825253D01*
X164087124Y-79825253D02*
X164163314Y-79787157D01*
X164163314Y-79787157D02*
X164315695Y-79787157D01*
X164315695Y-79787157D02*
X164391886Y-79825253D01*
X164391886Y-79825253D02*
X164429981Y-79901443D01*
X164429981Y-79901443D02*
X164429981Y-79977634D01*
X164429981Y-79977634D02*
X164049028Y-80053824D01*
X164772838Y-80320491D02*
X164772838Y-79787157D01*
X164772838Y-79939538D02*
X164810933Y-79863348D01*
X164810933Y-79863348D02*
X164849028Y-79825253D01*
X164849028Y-79825253D02*
X164925219Y-79787157D01*
X164925219Y-79787157D02*
X165001409Y-79787157D01*
X165877600Y-80320491D02*
X165877600Y-79520491D01*
X165877600Y-79520491D02*
X166182362Y-79520491D01*
X166182362Y-79520491D02*
X166258552Y-79558586D01*
X166258552Y-79558586D02*
X166296647Y-79596681D01*
X166296647Y-79596681D02*
X166334743Y-79672872D01*
X166334743Y-79672872D02*
X166334743Y-79787157D01*
X166334743Y-79787157D02*
X166296647Y-79863348D01*
X166296647Y-79863348D02*
X166258552Y-79901443D01*
X166258552Y-79901443D02*
X166182362Y-79939538D01*
X166182362Y-79939538D02*
X165877600Y-79939538D01*
X167020457Y-80320491D02*
X167020457Y-79901443D01*
X167020457Y-79901443D02*
X166982362Y-79825253D01*
X166982362Y-79825253D02*
X166906171Y-79787157D01*
X166906171Y-79787157D02*
X166753790Y-79787157D01*
X166753790Y-79787157D02*
X166677600Y-79825253D01*
X167020457Y-80282396D02*
X166944266Y-80320491D01*
X166944266Y-80320491D02*
X166753790Y-80320491D01*
X166753790Y-80320491D02*
X166677600Y-80282396D01*
X166677600Y-80282396D02*
X166639504Y-80206205D01*
X166639504Y-80206205D02*
X166639504Y-80130015D01*
X166639504Y-80130015D02*
X166677600Y-80053824D01*
X166677600Y-80053824D02*
X166753790Y-80015729D01*
X166753790Y-80015729D02*
X166944266Y-80015729D01*
X166944266Y-80015729D02*
X167020457Y-79977634D01*
X167287124Y-79787157D02*
X167591886Y-79787157D01*
X167401410Y-79520491D02*
X167401410Y-80206205D01*
X167401410Y-80206205D02*
X167439505Y-80282396D01*
X167439505Y-80282396D02*
X167515695Y-80320491D01*
X167515695Y-80320491D02*
X167591886Y-80320491D01*
X167744267Y-79787157D02*
X168049029Y-79787157D01*
X167858553Y-79520491D02*
X167858553Y-80206205D01*
X167858553Y-80206205D02*
X167896648Y-80282396D01*
X167896648Y-80282396D02*
X167972838Y-80320491D01*
X167972838Y-80320491D02*
X168049029Y-80320491D01*
X168620458Y-80282396D02*
X168544267Y-80320491D01*
X168544267Y-80320491D02*
X168391886Y-80320491D01*
X168391886Y-80320491D02*
X168315696Y-80282396D01*
X168315696Y-80282396D02*
X168277600Y-80206205D01*
X168277600Y-80206205D02*
X168277600Y-79901443D01*
X168277600Y-79901443D02*
X168315696Y-79825253D01*
X168315696Y-79825253D02*
X168391886Y-79787157D01*
X168391886Y-79787157D02*
X168544267Y-79787157D01*
X168544267Y-79787157D02*
X168620458Y-79825253D01*
X168620458Y-79825253D02*
X168658553Y-79901443D01*
X168658553Y-79901443D02*
X168658553Y-79977634D01*
X168658553Y-79977634D02*
X168277600Y-80053824D01*
X169001410Y-80320491D02*
X169001410Y-79787157D01*
X169001410Y-79939538D02*
X169039505Y-79863348D01*
X169039505Y-79863348D02*
X169077600Y-79825253D01*
X169077600Y-79825253D02*
X169153791Y-79787157D01*
X169153791Y-79787157D02*
X169229981Y-79787157D01*
X169458552Y-80282396D02*
X169534743Y-80320491D01*
X169534743Y-80320491D02*
X169687124Y-80320491D01*
X169687124Y-80320491D02*
X169763314Y-80282396D01*
X169763314Y-80282396D02*
X169801410Y-80206205D01*
X169801410Y-80206205D02*
X169801410Y-80168110D01*
X169801410Y-80168110D02*
X169763314Y-80091919D01*
X169763314Y-80091919D02*
X169687124Y-80053824D01*
X169687124Y-80053824D02*
X169572838Y-80053824D01*
X169572838Y-80053824D02*
X169496648Y-80015729D01*
X169496648Y-80015729D02*
X169458552Y-79939538D01*
X169458552Y-79939538D02*
X169458552Y-79901443D01*
X169458552Y-79901443D02*
X169496648Y-79825253D01*
X169496648Y-79825253D02*
X169572838Y-79787157D01*
X169572838Y-79787157D02*
X169687124Y-79787157D01*
X169687124Y-79787157D02*
X169763314Y-79825253D01*
X170258552Y-80320491D02*
X170182362Y-80282396D01*
X170182362Y-80282396D02*
X170144267Y-80244300D01*
X170144267Y-80244300D02*
X170106171Y-80168110D01*
X170106171Y-80168110D02*
X170106171Y-79939538D01*
X170106171Y-79939538D02*
X170144267Y-79863348D01*
X170144267Y-79863348D02*
X170182362Y-79825253D01*
X170182362Y-79825253D02*
X170258552Y-79787157D01*
X170258552Y-79787157D02*
X170372838Y-79787157D01*
X170372838Y-79787157D02*
X170449029Y-79825253D01*
X170449029Y-79825253D02*
X170487124Y-79863348D01*
X170487124Y-79863348D02*
X170525219Y-79939538D01*
X170525219Y-79939538D02*
X170525219Y-80168110D01*
X170525219Y-80168110D02*
X170487124Y-80244300D01*
X170487124Y-80244300D02*
X170449029Y-80282396D01*
X170449029Y-80282396D02*
X170372838Y-80320491D01*
X170372838Y-80320491D02*
X170258552Y-80320491D01*
X170868077Y-79787157D02*
X170868077Y-80320491D01*
X170868077Y-79863348D02*
X170906172Y-79825253D01*
X170906172Y-79825253D02*
X170982362Y-79787157D01*
X170982362Y-79787157D02*
X171096648Y-79787157D01*
X171096648Y-79787157D02*
X171172839Y-79825253D01*
X171172839Y-79825253D02*
X171210934Y-79901443D01*
X171210934Y-79901443D02*
X171210934Y-80320491D01*
X172201411Y-80015729D02*
X172810935Y-80015729D01*
X174258554Y-80320491D02*
X173991887Y-79939538D01*
X173801411Y-80320491D02*
X173801411Y-79520491D01*
X173801411Y-79520491D02*
X174106173Y-79520491D01*
X174106173Y-79520491D02*
X174182363Y-79558586D01*
X174182363Y-79558586D02*
X174220458Y-79596681D01*
X174220458Y-79596681D02*
X174258554Y-79672872D01*
X174258554Y-79672872D02*
X174258554Y-79787157D01*
X174258554Y-79787157D02*
X174220458Y-79863348D01*
X174220458Y-79863348D02*
X174182363Y-79901443D01*
X174182363Y-79901443D02*
X174106173Y-79939538D01*
X174106173Y-79939538D02*
X173801411Y-79939538D01*
X174906173Y-80282396D02*
X174829982Y-80320491D01*
X174829982Y-80320491D02*
X174677601Y-80320491D01*
X174677601Y-80320491D02*
X174601411Y-80282396D01*
X174601411Y-80282396D02*
X174563315Y-80206205D01*
X174563315Y-80206205D02*
X174563315Y-79901443D01*
X174563315Y-79901443D02*
X174601411Y-79825253D01*
X174601411Y-79825253D02*
X174677601Y-79787157D01*
X174677601Y-79787157D02*
X174829982Y-79787157D01*
X174829982Y-79787157D02*
X174906173Y-79825253D01*
X174906173Y-79825253D02*
X174944268Y-79901443D01*
X174944268Y-79901443D02*
X174944268Y-79977634D01*
X174944268Y-79977634D02*
X174563315Y-80053824D01*
X175210934Y-79787157D02*
X175401410Y-80320491D01*
X175401410Y-80320491D02*
X175591887Y-79787157D01*
X176925220Y-80320491D02*
X176468077Y-80320491D01*
X176696649Y-80320491D02*
X176696649Y-79520491D01*
X176696649Y-79520491D02*
X176620458Y-79634776D01*
X176620458Y-79634776D02*
X176544268Y-79710967D01*
X176544268Y-79710967D02*
X176468077Y-79749062D01*
X162410932Y-79007396D02*
X162525218Y-79045491D01*
X162525218Y-79045491D02*
X162715694Y-79045491D01*
X162715694Y-79045491D02*
X162791885Y-79007396D01*
X162791885Y-79007396D02*
X162829980Y-78969300D01*
X162829980Y-78969300D02*
X162868075Y-78893110D01*
X162868075Y-78893110D02*
X162868075Y-78816919D01*
X162868075Y-78816919D02*
X162829980Y-78740729D01*
X162829980Y-78740729D02*
X162791885Y-78702634D01*
X162791885Y-78702634D02*
X162715694Y-78664538D01*
X162715694Y-78664538D02*
X162563313Y-78626443D01*
X162563313Y-78626443D02*
X162487123Y-78588348D01*
X162487123Y-78588348D02*
X162449028Y-78550253D01*
X162449028Y-78550253D02*
X162410932Y-78474062D01*
X162410932Y-78474062D02*
X162410932Y-78397872D01*
X162410932Y-78397872D02*
X162449028Y-78321681D01*
X162449028Y-78321681D02*
X162487123Y-78283586D01*
X162487123Y-78283586D02*
X162563313Y-78245491D01*
X162563313Y-78245491D02*
X162753790Y-78245491D01*
X162753790Y-78245491D02*
X162868075Y-78283586D01*
X163210933Y-79045491D02*
X163210933Y-78512157D01*
X163210933Y-78245491D02*
X163172837Y-78283586D01*
X163172837Y-78283586D02*
X163210933Y-78321681D01*
X163210933Y-78321681D02*
X163249028Y-78283586D01*
X163249028Y-78283586D02*
X163210933Y-78245491D01*
X163210933Y-78245491D02*
X163210933Y-78321681D01*
X163934742Y-78512157D02*
X163934742Y-79159776D01*
X163934742Y-79159776D02*
X163896647Y-79235967D01*
X163896647Y-79235967D02*
X163858551Y-79274062D01*
X163858551Y-79274062D02*
X163782361Y-79312157D01*
X163782361Y-79312157D02*
X163668075Y-79312157D01*
X163668075Y-79312157D02*
X163591885Y-79274062D01*
X163934742Y-79007396D02*
X163858551Y-79045491D01*
X163858551Y-79045491D02*
X163706170Y-79045491D01*
X163706170Y-79045491D02*
X163629980Y-79007396D01*
X163629980Y-79007396D02*
X163591885Y-78969300D01*
X163591885Y-78969300D02*
X163553789Y-78893110D01*
X163553789Y-78893110D02*
X163553789Y-78664538D01*
X163553789Y-78664538D02*
X163591885Y-78588348D01*
X163591885Y-78588348D02*
X163629980Y-78550253D01*
X163629980Y-78550253D02*
X163706170Y-78512157D01*
X163706170Y-78512157D02*
X163858551Y-78512157D01*
X163858551Y-78512157D02*
X163934742Y-78550253D01*
X164315695Y-78512157D02*
X164315695Y-79045491D01*
X164315695Y-78588348D02*
X164353790Y-78550253D01*
X164353790Y-78550253D02*
X164429980Y-78512157D01*
X164429980Y-78512157D02*
X164544266Y-78512157D01*
X164544266Y-78512157D02*
X164620457Y-78550253D01*
X164620457Y-78550253D02*
X164658552Y-78626443D01*
X164658552Y-78626443D02*
X164658552Y-79045491D01*
X165382362Y-79045491D02*
X165382362Y-78626443D01*
X165382362Y-78626443D02*
X165344267Y-78550253D01*
X165344267Y-78550253D02*
X165268076Y-78512157D01*
X165268076Y-78512157D02*
X165115695Y-78512157D01*
X165115695Y-78512157D02*
X165039505Y-78550253D01*
X165382362Y-79007396D02*
X165306171Y-79045491D01*
X165306171Y-79045491D02*
X165115695Y-79045491D01*
X165115695Y-79045491D02*
X165039505Y-79007396D01*
X165039505Y-79007396D02*
X165001409Y-78931205D01*
X165001409Y-78931205D02*
X165001409Y-78855015D01*
X165001409Y-78855015D02*
X165039505Y-78778824D01*
X165039505Y-78778824D02*
X165115695Y-78740729D01*
X165115695Y-78740729D02*
X165306171Y-78740729D01*
X165306171Y-78740729D02*
X165382362Y-78702634D01*
X165877600Y-79045491D02*
X165801410Y-79007396D01*
X165801410Y-79007396D02*
X165763315Y-78931205D01*
X165763315Y-78931205D02*
X165763315Y-78245491D01*
X167249030Y-78969300D02*
X167210934Y-79007396D01*
X167210934Y-79007396D02*
X167096649Y-79045491D01*
X167096649Y-79045491D02*
X167020458Y-79045491D01*
X167020458Y-79045491D02*
X166906172Y-79007396D01*
X166906172Y-79007396D02*
X166829982Y-78931205D01*
X166829982Y-78931205D02*
X166791887Y-78855015D01*
X166791887Y-78855015D02*
X166753791Y-78702634D01*
X166753791Y-78702634D02*
X166753791Y-78588348D01*
X166753791Y-78588348D02*
X166791887Y-78435967D01*
X166791887Y-78435967D02*
X166829982Y-78359776D01*
X166829982Y-78359776D02*
X166906172Y-78283586D01*
X166906172Y-78283586D02*
X167020458Y-78245491D01*
X167020458Y-78245491D02*
X167096649Y-78245491D01*
X167096649Y-78245491D02*
X167210934Y-78283586D01*
X167210934Y-78283586D02*
X167249030Y-78321681D01*
X167706172Y-79045491D02*
X167629982Y-79007396D01*
X167629982Y-79007396D02*
X167591887Y-78969300D01*
X167591887Y-78969300D02*
X167553791Y-78893110D01*
X167553791Y-78893110D02*
X167553791Y-78664538D01*
X167553791Y-78664538D02*
X167591887Y-78588348D01*
X167591887Y-78588348D02*
X167629982Y-78550253D01*
X167629982Y-78550253D02*
X167706172Y-78512157D01*
X167706172Y-78512157D02*
X167820458Y-78512157D01*
X167820458Y-78512157D02*
X167896649Y-78550253D01*
X167896649Y-78550253D02*
X167934744Y-78588348D01*
X167934744Y-78588348D02*
X167972839Y-78664538D01*
X167972839Y-78664538D02*
X167972839Y-78893110D01*
X167972839Y-78893110D02*
X167934744Y-78969300D01*
X167934744Y-78969300D02*
X167896649Y-79007396D01*
X167896649Y-79007396D02*
X167820458Y-79045491D01*
X167820458Y-79045491D02*
X167706172Y-79045491D01*
X168315697Y-78512157D02*
X168315697Y-79045491D01*
X168315697Y-78588348D02*
X168353792Y-78550253D01*
X168353792Y-78550253D02*
X168429982Y-78512157D01*
X168429982Y-78512157D02*
X168544268Y-78512157D01*
X168544268Y-78512157D02*
X168620459Y-78550253D01*
X168620459Y-78550253D02*
X168658554Y-78626443D01*
X168658554Y-78626443D02*
X168658554Y-79045491D01*
X169382364Y-79045491D02*
X169382364Y-78245491D01*
X169382364Y-79007396D02*
X169306173Y-79045491D01*
X169306173Y-79045491D02*
X169153792Y-79045491D01*
X169153792Y-79045491D02*
X169077602Y-79007396D01*
X169077602Y-79007396D02*
X169039507Y-78969300D01*
X169039507Y-78969300D02*
X169001411Y-78893110D01*
X169001411Y-78893110D02*
X169001411Y-78664538D01*
X169001411Y-78664538D02*
X169039507Y-78588348D01*
X169039507Y-78588348D02*
X169077602Y-78550253D01*
X169077602Y-78550253D02*
X169153792Y-78512157D01*
X169153792Y-78512157D02*
X169306173Y-78512157D01*
X169306173Y-78512157D02*
X169382364Y-78550253D01*
X169763317Y-79045491D02*
X169763317Y-78512157D01*
X169763317Y-78245491D02*
X169725221Y-78283586D01*
X169725221Y-78283586D02*
X169763317Y-78321681D01*
X169763317Y-78321681D02*
X169801412Y-78283586D01*
X169801412Y-78283586D02*
X169763317Y-78245491D01*
X169763317Y-78245491D02*
X169763317Y-78321681D01*
X170029983Y-78512157D02*
X170334745Y-78512157D01*
X170144269Y-78245491D02*
X170144269Y-78931205D01*
X170144269Y-78931205D02*
X170182364Y-79007396D01*
X170182364Y-79007396D02*
X170258554Y-79045491D01*
X170258554Y-79045491D02*
X170334745Y-79045491D01*
X170601412Y-79045491D02*
X170601412Y-78512157D01*
X170601412Y-78245491D02*
X170563316Y-78283586D01*
X170563316Y-78283586D02*
X170601412Y-78321681D01*
X170601412Y-78321681D02*
X170639507Y-78283586D01*
X170639507Y-78283586D02*
X170601412Y-78245491D01*
X170601412Y-78245491D02*
X170601412Y-78321681D01*
X171096649Y-79045491D02*
X171020459Y-79007396D01*
X171020459Y-79007396D02*
X170982364Y-78969300D01*
X170982364Y-78969300D02*
X170944268Y-78893110D01*
X170944268Y-78893110D02*
X170944268Y-78664538D01*
X170944268Y-78664538D02*
X170982364Y-78588348D01*
X170982364Y-78588348D02*
X171020459Y-78550253D01*
X171020459Y-78550253D02*
X171096649Y-78512157D01*
X171096649Y-78512157D02*
X171210935Y-78512157D01*
X171210935Y-78512157D02*
X171287126Y-78550253D01*
X171287126Y-78550253D02*
X171325221Y-78588348D01*
X171325221Y-78588348D02*
X171363316Y-78664538D01*
X171363316Y-78664538D02*
X171363316Y-78893110D01*
X171363316Y-78893110D02*
X171325221Y-78969300D01*
X171325221Y-78969300D02*
X171287126Y-79007396D01*
X171287126Y-79007396D02*
X171210935Y-79045491D01*
X171210935Y-79045491D02*
X171096649Y-79045491D01*
X171706174Y-78512157D02*
X171706174Y-79045491D01*
X171706174Y-78588348D02*
X171744269Y-78550253D01*
X171744269Y-78550253D02*
X171820459Y-78512157D01*
X171820459Y-78512157D02*
X171934745Y-78512157D01*
X171934745Y-78512157D02*
X172010936Y-78550253D01*
X172010936Y-78550253D02*
X172049031Y-78626443D01*
X172049031Y-78626443D02*
X172049031Y-79045491D01*
X172734746Y-79007396D02*
X172658555Y-79045491D01*
X172658555Y-79045491D02*
X172506174Y-79045491D01*
X172506174Y-79045491D02*
X172429984Y-79007396D01*
X172429984Y-79007396D02*
X172391888Y-78931205D01*
X172391888Y-78931205D02*
X172391888Y-78626443D01*
X172391888Y-78626443D02*
X172429984Y-78550253D01*
X172429984Y-78550253D02*
X172506174Y-78512157D01*
X172506174Y-78512157D02*
X172658555Y-78512157D01*
X172658555Y-78512157D02*
X172734746Y-78550253D01*
X172734746Y-78550253D02*
X172772841Y-78626443D01*
X172772841Y-78626443D02*
X172772841Y-78702634D01*
X172772841Y-78702634D02*
X172391888Y-78778824D01*
X173115698Y-79045491D02*
X173115698Y-78512157D01*
X173115698Y-78664538D02*
X173153793Y-78588348D01*
X173153793Y-78588348D02*
X173191888Y-78550253D01*
X173191888Y-78550253D02*
X173268079Y-78512157D01*
X173268079Y-78512157D02*
X173344269Y-78512157D01*
X174220460Y-79045491D02*
X174220460Y-78245491D01*
X174220460Y-78245491D02*
X174487126Y-78816919D01*
X174487126Y-78816919D02*
X174753793Y-78245491D01*
X174753793Y-78245491D02*
X174753793Y-79045491D01*
X175249031Y-79045491D02*
X175172841Y-79007396D01*
X175172841Y-79007396D02*
X175134746Y-78969300D01*
X175134746Y-78969300D02*
X175096650Y-78893110D01*
X175096650Y-78893110D02*
X175096650Y-78664538D01*
X175096650Y-78664538D02*
X175134746Y-78588348D01*
X175134746Y-78588348D02*
X175172841Y-78550253D01*
X175172841Y-78550253D02*
X175249031Y-78512157D01*
X175249031Y-78512157D02*
X175363317Y-78512157D01*
X175363317Y-78512157D02*
X175439508Y-78550253D01*
X175439508Y-78550253D02*
X175477603Y-78588348D01*
X175477603Y-78588348D02*
X175515698Y-78664538D01*
X175515698Y-78664538D02*
X175515698Y-78893110D01*
X175515698Y-78893110D02*
X175477603Y-78969300D01*
X175477603Y-78969300D02*
X175439508Y-79007396D01*
X175439508Y-79007396D02*
X175363317Y-79045491D01*
X175363317Y-79045491D02*
X175249031Y-79045491D01*
X176201413Y-79045491D02*
X176201413Y-78245491D01*
X176201413Y-79007396D02*
X176125222Y-79045491D01*
X176125222Y-79045491D02*
X175972841Y-79045491D01*
X175972841Y-79045491D02*
X175896651Y-79007396D01*
X175896651Y-79007396D02*
X175858556Y-78969300D01*
X175858556Y-78969300D02*
X175820460Y-78893110D01*
X175820460Y-78893110D02*
X175820460Y-78664538D01*
X175820460Y-78664538D02*
X175858556Y-78588348D01*
X175858556Y-78588348D02*
X175896651Y-78550253D01*
X175896651Y-78550253D02*
X175972841Y-78512157D01*
X175972841Y-78512157D02*
X176125222Y-78512157D01*
X176125222Y-78512157D02*
X176201413Y-78550253D01*
X176925223Y-78512157D02*
X176925223Y-79045491D01*
X176582366Y-78512157D02*
X176582366Y-78931205D01*
X176582366Y-78931205D02*
X176620461Y-79007396D01*
X176620461Y-79007396D02*
X176696651Y-79045491D01*
X176696651Y-79045491D02*
X176810937Y-79045491D01*
X176810937Y-79045491D02*
X176887128Y-79007396D01*
X176887128Y-79007396D02*
X176925223Y-78969300D01*
X177420461Y-79045491D02*
X177344271Y-79007396D01*
X177344271Y-79007396D02*
X177306176Y-78931205D01*
X177306176Y-78931205D02*
X177306176Y-78245491D01*
X178029986Y-79007396D02*
X177953795Y-79045491D01*
X177953795Y-79045491D02*
X177801414Y-79045491D01*
X177801414Y-79045491D02*
X177725224Y-79007396D01*
X177725224Y-79007396D02*
X177687128Y-78931205D01*
X177687128Y-78931205D02*
X177687128Y-78626443D01*
X177687128Y-78626443D02*
X177725224Y-78550253D01*
X177725224Y-78550253D02*
X177801414Y-78512157D01*
X177801414Y-78512157D02*
X177953795Y-78512157D01*
X177953795Y-78512157D02*
X178029986Y-78550253D01*
X178029986Y-78550253D02*
X178068081Y-78626443D01*
X178068081Y-78626443D02*
X178068081Y-78702634D01*
X178068081Y-78702634D02*
X177687128Y-78778824D01*
D11*
X179033333Y-73404819D02*
X178700000Y-72928628D01*
X178461905Y-73404819D02*
X178461905Y-72404819D01*
X178461905Y-72404819D02*
X178842857Y-72404819D01*
X178842857Y-72404819D02*
X178938095Y-72452438D01*
X178938095Y-72452438D02*
X178985714Y-72500057D01*
X178985714Y-72500057D02*
X179033333Y-72595295D01*
X179033333Y-72595295D02*
X179033333Y-72738152D01*
X179033333Y-72738152D02*
X178985714Y-72833390D01*
X178985714Y-72833390D02*
X178938095Y-72881009D01*
X178938095Y-72881009D02*
X178842857Y-72928628D01*
X178842857Y-72928628D02*
X178461905Y-72928628D01*
X179890476Y-72738152D02*
X179890476Y-73404819D01*
X179652381Y-72357200D02*
X179414286Y-73071485D01*
X179414286Y-73071485D02*
X180033333Y-73071485D01*
D12*
X181313491Y-71314285D02*
X180932538Y-71580952D01*
X181313491Y-71771428D02*
X180513491Y-71771428D01*
X180513491Y-71771428D02*
X180513491Y-71466666D01*
X180513491Y-71466666D02*
X180551586Y-71390476D01*
X180551586Y-71390476D02*
X180589681Y-71352381D01*
X180589681Y-71352381D02*
X180665872Y-71314285D01*
X180665872Y-71314285D02*
X180780157Y-71314285D01*
X180780157Y-71314285D02*
X180856348Y-71352381D01*
X180856348Y-71352381D02*
X180894443Y-71390476D01*
X180894443Y-71390476D02*
X180932538Y-71466666D01*
X180932538Y-71466666D02*
X180932538Y-71771428D01*
X181313491Y-70552381D02*
X181313491Y-71009524D01*
X181313491Y-70780952D02*
X180513491Y-70780952D01*
X180513491Y-70780952D02*
X180627776Y-70857143D01*
X180627776Y-70857143D02*
X180703967Y-70933333D01*
X180703967Y-70933333D02*
X180742062Y-71009524D01*
X180513491Y-70057142D02*
X180513491Y-69980952D01*
X180513491Y-69980952D02*
X180551586Y-69904761D01*
X180551586Y-69904761D02*
X180589681Y-69866666D01*
X180589681Y-69866666D02*
X180665872Y-69828571D01*
X180665872Y-69828571D02*
X180818253Y-69790476D01*
X180818253Y-69790476D02*
X181008729Y-69790476D01*
X181008729Y-69790476D02*
X181161110Y-69828571D01*
X181161110Y-69828571D02*
X181237300Y-69866666D01*
X181237300Y-69866666D02*
X181275396Y-69904761D01*
X181275396Y-69904761D02*
X181313491Y-69980952D01*
X181313491Y-69980952D02*
X181313491Y-70057142D01*
X181313491Y-70057142D02*
X181275396Y-70133333D01*
X181275396Y-70133333D02*
X181237300Y-70171428D01*
X181237300Y-70171428D02*
X181161110Y-70209523D01*
X181161110Y-70209523D02*
X181008729Y-70247619D01*
X181008729Y-70247619D02*
X180818253Y-70247619D01*
X180818253Y-70247619D02*
X180665872Y-70209523D01*
X180665872Y-70209523D02*
X180589681Y-70171428D01*
X180589681Y-70171428D02*
X180551586Y-70133333D01*
X180551586Y-70133333D02*
X180513491Y-70057142D01*
D11*
X174379819Y-75967857D02*
X173903628Y-76301190D01*
X174379819Y-76539285D02*
X173379819Y-76539285D01*
X173379819Y-76539285D02*
X173379819Y-76158333D01*
X173379819Y-76158333D02*
X173427438Y-76063095D01*
X173427438Y-76063095D02*
X173475057Y-76015476D01*
X173475057Y-76015476D02*
X173570295Y-75967857D01*
X173570295Y-75967857D02*
X173713152Y-75967857D01*
X173713152Y-75967857D02*
X173808390Y-76015476D01*
X173808390Y-76015476D02*
X173856009Y-76063095D01*
X173856009Y-76063095D02*
X173903628Y-76158333D01*
X173903628Y-76158333D02*
X173903628Y-76539285D01*
X174379819Y-75015476D02*
X174379819Y-75586904D01*
X174379819Y-75301190D02*
X173379819Y-75301190D01*
X173379819Y-75301190D02*
X173522676Y-75396428D01*
X173522676Y-75396428D02*
X173617914Y-75491666D01*
X173617914Y-75491666D02*
X173665533Y-75586904D01*
X173475057Y-74634523D02*
X173427438Y-74586904D01*
X173427438Y-74586904D02*
X173379819Y-74491666D01*
X173379819Y-74491666D02*
X173379819Y-74253571D01*
X173379819Y-74253571D02*
X173427438Y-74158333D01*
X173427438Y-74158333D02*
X173475057Y-74110714D01*
X173475057Y-74110714D02*
X173570295Y-74063095D01*
X173570295Y-74063095D02*
X173665533Y-74063095D01*
X173665533Y-74063095D02*
X173808390Y-74110714D01*
X173808390Y-74110714D02*
X174379819Y-74682142D01*
X174379819Y-74682142D02*
X174379819Y-74063095D01*
X172345595Y-62969819D02*
X172345595Y-63779342D01*
X172345595Y-63779342D02*
X172393214Y-63874580D01*
X172393214Y-63874580D02*
X172440833Y-63922200D01*
X172440833Y-63922200D02*
X172536071Y-63969819D01*
X172536071Y-63969819D02*
X172726547Y-63969819D01*
X172726547Y-63969819D02*
X172821785Y-63922200D01*
X172821785Y-63922200D02*
X172869404Y-63874580D01*
X172869404Y-63874580D02*
X172917023Y-63779342D01*
X172917023Y-63779342D02*
X172917023Y-62969819D01*
X173917023Y-63969819D02*
X173345595Y-63969819D01*
X173631309Y-63969819D02*
X173631309Y-62969819D01*
X173631309Y-62969819D02*
X173536071Y-63112676D01*
X173536071Y-63112676D02*
X173440833Y-63207914D01*
X173440833Y-63207914D02*
X173345595Y-63255533D01*
X168579819Y-74716666D02*
X168103628Y-75049999D01*
X168579819Y-75288094D02*
X167579819Y-75288094D01*
X167579819Y-75288094D02*
X167579819Y-74907142D01*
X167579819Y-74907142D02*
X167627438Y-74811904D01*
X167627438Y-74811904D02*
X167675057Y-74764285D01*
X167675057Y-74764285D02*
X167770295Y-74716666D01*
X167770295Y-74716666D02*
X167913152Y-74716666D01*
X167913152Y-74716666D02*
X168008390Y-74764285D01*
X168008390Y-74764285D02*
X168056009Y-74811904D01*
X168056009Y-74811904D02*
X168103628Y-74907142D01*
X168103628Y-74907142D02*
X168103628Y-75288094D01*
X167675057Y-74335713D02*
X167627438Y-74288094D01*
X167627438Y-74288094D02*
X167579819Y-74192856D01*
X167579819Y-74192856D02*
X167579819Y-73954761D01*
X167579819Y-73954761D02*
X167627438Y-73859523D01*
X167627438Y-73859523D02*
X167675057Y-73811904D01*
X167675057Y-73811904D02*
X167770295Y-73764285D01*
X167770295Y-73764285D02*
X167865533Y-73764285D01*
X167865533Y-73764285D02*
X168008390Y-73811904D01*
X168008390Y-73811904D02*
X168579819Y-74383332D01*
X168579819Y-74383332D02*
X168579819Y-73764285D01*
X180504819Y-78479166D02*
X180028628Y-78812499D01*
X180504819Y-79050594D02*
X179504819Y-79050594D01*
X179504819Y-79050594D02*
X179504819Y-78669642D01*
X179504819Y-78669642D02*
X179552438Y-78574404D01*
X179552438Y-78574404D02*
X179600057Y-78526785D01*
X179600057Y-78526785D02*
X179695295Y-78479166D01*
X179695295Y-78479166D02*
X179838152Y-78479166D01*
X179838152Y-78479166D02*
X179933390Y-78526785D01*
X179933390Y-78526785D02*
X179981009Y-78574404D01*
X179981009Y-78574404D02*
X180028628Y-78669642D01*
X180028628Y-78669642D02*
X180028628Y-79050594D01*
X179504819Y-77574404D02*
X179504819Y-78050594D01*
X179504819Y-78050594D02*
X179981009Y-78098213D01*
X179981009Y-78098213D02*
X179933390Y-78050594D01*
X179933390Y-78050594D02*
X179885771Y-77955356D01*
X179885771Y-77955356D02*
X179885771Y-77717261D01*
X179885771Y-77717261D02*
X179933390Y-77622023D01*
X179933390Y-77622023D02*
X179981009Y-77574404D01*
X179981009Y-77574404D02*
X180076247Y-77526785D01*
X180076247Y-77526785D02*
X180314342Y-77526785D01*
X180314342Y-77526785D02*
X180409580Y-77574404D01*
X180409580Y-77574404D02*
X180457200Y-77622023D01*
X180457200Y-77622023D02*
X180504819Y-77717261D01*
X180504819Y-77717261D02*
X180504819Y-77955356D01*
X180504819Y-77955356D02*
X180457200Y-78050594D01*
X180457200Y-78050594D02*
X180409580Y-78098213D01*
X166379819Y-74741666D02*
X165903628Y-75074999D01*
X166379819Y-75313094D02*
X165379819Y-75313094D01*
X165379819Y-75313094D02*
X165379819Y-74932142D01*
X165379819Y-74932142D02*
X165427438Y-74836904D01*
X165427438Y-74836904D02*
X165475057Y-74789285D01*
X165475057Y-74789285D02*
X165570295Y-74741666D01*
X165570295Y-74741666D02*
X165713152Y-74741666D01*
X165713152Y-74741666D02*
X165808390Y-74789285D01*
X165808390Y-74789285D02*
X165856009Y-74836904D01*
X165856009Y-74836904D02*
X165903628Y-74932142D01*
X165903628Y-74932142D02*
X165903628Y-75313094D01*
X165379819Y-74408332D02*
X165379819Y-73789285D01*
X165379819Y-73789285D02*
X165760771Y-74122618D01*
X165760771Y-74122618D02*
X165760771Y-73979761D01*
X165760771Y-73979761D02*
X165808390Y-73884523D01*
X165808390Y-73884523D02*
X165856009Y-73836904D01*
X165856009Y-73836904D02*
X165951247Y-73789285D01*
X165951247Y-73789285D02*
X166189342Y-73789285D01*
X166189342Y-73789285D02*
X166284580Y-73836904D01*
X166284580Y-73836904D02*
X166332200Y-73884523D01*
X166332200Y-73884523D02*
X166379819Y-73979761D01*
X166379819Y-73979761D02*
X166379819Y-74265475D01*
X166379819Y-74265475D02*
X166332200Y-74360713D01*
X166332200Y-74360713D02*
X166284580Y-74408332D01*
D12*
X180231015Y-64442857D02*
X179754824Y-64776190D01*
X180231015Y-65014285D02*
X179231015Y-65014285D01*
X179231015Y-65014285D02*
X179231015Y-64633333D01*
X179231015Y-64633333D02*
X179278634Y-64538095D01*
X179278634Y-64538095D02*
X179326253Y-64490476D01*
X179326253Y-64490476D02*
X179421491Y-64442857D01*
X179421491Y-64442857D02*
X179564348Y-64442857D01*
X179564348Y-64442857D02*
X179659586Y-64490476D01*
X179659586Y-64490476D02*
X179707205Y-64538095D01*
X179707205Y-64538095D02*
X179754824Y-64633333D01*
X179754824Y-64633333D02*
X179754824Y-65014285D01*
X180231015Y-63490476D02*
X180231015Y-64061904D01*
X180231015Y-63776190D02*
X179231015Y-63776190D01*
X179231015Y-63776190D02*
X179373872Y-63871428D01*
X179373872Y-63871428D02*
X179469110Y-63966666D01*
X179469110Y-63966666D02*
X179516729Y-64061904D01*
X179231015Y-63157142D02*
X179231015Y-62538095D01*
X179231015Y-62538095D02*
X179611967Y-62871428D01*
X179611967Y-62871428D02*
X179611967Y-62728571D01*
X179611967Y-62728571D02*
X179659586Y-62633333D01*
X179659586Y-62633333D02*
X179707205Y-62585714D01*
X179707205Y-62585714D02*
X179802443Y-62538095D01*
X179802443Y-62538095D02*
X180040538Y-62538095D01*
X180040538Y-62538095D02*
X180135776Y-62585714D01*
X180135776Y-62585714D02*
X180183396Y-62633333D01*
X180183396Y-62633333D02*
X180231015Y-62728571D01*
X180231015Y-62728571D02*
X180231015Y-63014285D01*
X180231015Y-63014285D02*
X180183396Y-63109523D01*
X180183396Y-63109523D02*
X180135776Y-63157142D01*
D11*
X167783333Y-65454819D02*
X167450000Y-64978628D01*
X167211905Y-65454819D02*
X167211905Y-64454819D01*
X167211905Y-64454819D02*
X167592857Y-64454819D01*
X167592857Y-64454819D02*
X167688095Y-64502438D01*
X167688095Y-64502438D02*
X167735714Y-64550057D01*
X167735714Y-64550057D02*
X167783333Y-64645295D01*
X167783333Y-64645295D02*
X167783333Y-64788152D01*
X167783333Y-64788152D02*
X167735714Y-64883390D01*
X167735714Y-64883390D02*
X167688095Y-64931009D01*
X167688095Y-64931009D02*
X167592857Y-64978628D01*
X167592857Y-64978628D02*
X167211905Y-64978628D01*
X168116667Y-64454819D02*
X168783333Y-64454819D01*
X168783333Y-64454819D02*
X168354762Y-65454819D01*
X164879819Y-63766666D02*
X164403628Y-64099999D01*
X164879819Y-64338094D02*
X163879819Y-64338094D01*
X163879819Y-64338094D02*
X163879819Y-63957142D01*
X163879819Y-63957142D02*
X163927438Y-63861904D01*
X163927438Y-63861904D02*
X163975057Y-63814285D01*
X163975057Y-63814285D02*
X164070295Y-63766666D01*
X164070295Y-63766666D02*
X164213152Y-63766666D01*
X164213152Y-63766666D02*
X164308390Y-63814285D01*
X164308390Y-63814285D02*
X164356009Y-63861904D01*
X164356009Y-63861904D02*
X164403628Y-63957142D01*
X164403628Y-63957142D02*
X164403628Y-64338094D01*
X164308390Y-63195237D02*
X164260771Y-63290475D01*
X164260771Y-63290475D02*
X164213152Y-63338094D01*
X164213152Y-63338094D02*
X164117914Y-63385713D01*
X164117914Y-63385713D02*
X164070295Y-63385713D01*
X164070295Y-63385713D02*
X163975057Y-63338094D01*
X163975057Y-63338094D02*
X163927438Y-63290475D01*
X163927438Y-63290475D02*
X163879819Y-63195237D01*
X163879819Y-63195237D02*
X163879819Y-63004761D01*
X163879819Y-63004761D02*
X163927438Y-62909523D01*
X163927438Y-62909523D02*
X163975057Y-62861904D01*
X163975057Y-62861904D02*
X164070295Y-62814285D01*
X164070295Y-62814285D02*
X164117914Y-62814285D01*
X164117914Y-62814285D02*
X164213152Y-62861904D01*
X164213152Y-62861904D02*
X164260771Y-62909523D01*
X164260771Y-62909523D02*
X164308390Y-63004761D01*
X164308390Y-63004761D02*
X164308390Y-63195237D01*
X164308390Y-63195237D02*
X164356009Y-63290475D01*
X164356009Y-63290475D02*
X164403628Y-63338094D01*
X164403628Y-63338094D02*
X164498866Y-63385713D01*
X164498866Y-63385713D02*
X164689342Y-63385713D01*
X164689342Y-63385713D02*
X164784580Y-63338094D01*
X164784580Y-63338094D02*
X164832200Y-63290475D01*
X164832200Y-63290475D02*
X164879819Y-63195237D01*
X164879819Y-63195237D02*
X164879819Y-63004761D01*
X164879819Y-63004761D02*
X164832200Y-62909523D01*
X164832200Y-62909523D02*
X164784580Y-62861904D01*
X164784580Y-62861904D02*
X164689342Y-62814285D01*
X164689342Y-62814285D02*
X164498866Y-62814285D01*
X164498866Y-62814285D02*
X164403628Y-62861904D01*
X164403628Y-62861904D02*
X164356009Y-62909523D01*
X164356009Y-62909523D02*
X164308390Y-63004761D01*
X177579819Y-75829166D02*
X177103628Y-76162499D01*
X177579819Y-76400594D02*
X176579819Y-76400594D01*
X176579819Y-76400594D02*
X176579819Y-76019642D01*
X176579819Y-76019642D02*
X176627438Y-75924404D01*
X176627438Y-75924404D02*
X176675057Y-75876785D01*
X176675057Y-75876785D02*
X176770295Y-75829166D01*
X176770295Y-75829166D02*
X176913152Y-75829166D01*
X176913152Y-75829166D02*
X177008390Y-75876785D01*
X177008390Y-75876785D02*
X177056009Y-75924404D01*
X177056009Y-75924404D02*
X177103628Y-76019642D01*
X177103628Y-76019642D02*
X177103628Y-76400594D01*
X176579819Y-74972023D02*
X176579819Y-75162499D01*
X176579819Y-75162499D02*
X176627438Y-75257737D01*
X176627438Y-75257737D02*
X176675057Y-75305356D01*
X176675057Y-75305356D02*
X176817914Y-75400594D01*
X176817914Y-75400594D02*
X177008390Y-75448213D01*
X177008390Y-75448213D02*
X177389342Y-75448213D01*
X177389342Y-75448213D02*
X177484580Y-75400594D01*
X177484580Y-75400594D02*
X177532200Y-75352975D01*
X177532200Y-75352975D02*
X177579819Y-75257737D01*
X177579819Y-75257737D02*
X177579819Y-75067261D01*
X177579819Y-75067261D02*
X177532200Y-74972023D01*
X177532200Y-74972023D02*
X177484580Y-74924404D01*
X177484580Y-74924404D02*
X177389342Y-74876785D01*
X177389342Y-74876785D02*
X177151247Y-74876785D01*
X177151247Y-74876785D02*
X177056009Y-74924404D01*
X177056009Y-74924404D02*
X177008390Y-74972023D01*
X177008390Y-74972023D02*
X176960771Y-75067261D01*
X176960771Y-75067261D02*
X176960771Y-75257737D01*
X176960771Y-75257737D02*
X177008390Y-75352975D01*
X177008390Y-75352975D02*
X177056009Y-75400594D01*
X177056009Y-75400594D02*
X177151247Y-75448213D01*
X167858333Y-62354819D02*
X167525000Y-61878628D01*
X167286905Y-62354819D02*
X167286905Y-61354819D01*
X167286905Y-61354819D02*
X167667857Y-61354819D01*
X167667857Y-61354819D02*
X167763095Y-61402438D01*
X167763095Y-61402438D02*
X167810714Y-61450057D01*
X167810714Y-61450057D02*
X167858333Y-61545295D01*
X167858333Y-61545295D02*
X167858333Y-61688152D01*
X167858333Y-61688152D02*
X167810714Y-61783390D01*
X167810714Y-61783390D02*
X167763095Y-61831009D01*
X167763095Y-61831009D02*
X167667857Y-61878628D01*
X167667857Y-61878628D02*
X167286905Y-61878628D01*
X168334524Y-62354819D02*
X168525000Y-62354819D01*
X168525000Y-62354819D02*
X168620238Y-62307200D01*
X168620238Y-62307200D02*
X168667857Y-62259580D01*
X168667857Y-62259580D02*
X168763095Y-62116723D01*
X168763095Y-62116723D02*
X168810714Y-61926247D01*
X168810714Y-61926247D02*
X168810714Y-61545295D01*
X168810714Y-61545295D02*
X168763095Y-61450057D01*
X168763095Y-61450057D02*
X168715476Y-61402438D01*
X168715476Y-61402438D02*
X168620238Y-61354819D01*
X168620238Y-61354819D02*
X168429762Y-61354819D01*
X168429762Y-61354819D02*
X168334524Y-61402438D01*
X168334524Y-61402438D02*
X168286905Y-61450057D01*
X168286905Y-61450057D02*
X168239286Y-61545295D01*
X168239286Y-61545295D02*
X168239286Y-61783390D01*
X168239286Y-61783390D02*
X168286905Y-61878628D01*
X168286905Y-61878628D02*
X168334524Y-61926247D01*
X168334524Y-61926247D02*
X168429762Y-61973866D01*
X168429762Y-61973866D02*
X168620238Y-61973866D01*
X168620238Y-61973866D02*
X168715476Y-61926247D01*
X168715476Y-61926247D02*
X168763095Y-61878628D01*
X168763095Y-61878628D02*
X168810714Y-61783390D01*
X172829819Y-75942857D02*
X172353628Y-76276190D01*
X172829819Y-76514285D02*
X171829819Y-76514285D01*
X171829819Y-76514285D02*
X171829819Y-76133333D01*
X171829819Y-76133333D02*
X171877438Y-76038095D01*
X171877438Y-76038095D02*
X171925057Y-75990476D01*
X171925057Y-75990476D02*
X172020295Y-75942857D01*
X172020295Y-75942857D02*
X172163152Y-75942857D01*
X172163152Y-75942857D02*
X172258390Y-75990476D01*
X172258390Y-75990476D02*
X172306009Y-76038095D01*
X172306009Y-76038095D02*
X172353628Y-76133333D01*
X172353628Y-76133333D02*
X172353628Y-76514285D01*
X172829819Y-74990476D02*
X172829819Y-75561904D01*
X172829819Y-75276190D02*
X171829819Y-75276190D01*
X171829819Y-75276190D02*
X171972676Y-75371428D01*
X171972676Y-75371428D02*
X172067914Y-75466666D01*
X172067914Y-75466666D02*
X172115533Y-75561904D01*
X172829819Y-74038095D02*
X172829819Y-74609523D01*
X172829819Y-74323809D02*
X171829819Y-74323809D01*
X171829819Y-74323809D02*
X171972676Y-74419047D01*
X171972676Y-74419047D02*
X172067914Y-74514285D01*
X172067914Y-74514285D02*
X172115533Y-74609523D01*
D12*
X181235776Y-68841666D02*
X181283396Y-68889285D01*
X181283396Y-68889285D02*
X181331015Y-69032142D01*
X181331015Y-69032142D02*
X181331015Y-69127380D01*
X181331015Y-69127380D02*
X181283396Y-69270237D01*
X181283396Y-69270237D02*
X181188157Y-69365475D01*
X181188157Y-69365475D02*
X181092919Y-69413094D01*
X181092919Y-69413094D02*
X180902443Y-69460713D01*
X180902443Y-69460713D02*
X180759586Y-69460713D01*
X180759586Y-69460713D02*
X180569110Y-69413094D01*
X180569110Y-69413094D02*
X180473872Y-69365475D01*
X180473872Y-69365475D02*
X180378634Y-69270237D01*
X180378634Y-69270237D02*
X180331015Y-69127380D01*
X180331015Y-69127380D02*
X180331015Y-69032142D01*
X180331015Y-69032142D02*
X180378634Y-68889285D01*
X180378634Y-68889285D02*
X180426253Y-68841666D01*
X180426253Y-68460713D02*
X180378634Y-68413094D01*
X180378634Y-68413094D02*
X180331015Y-68317856D01*
X180331015Y-68317856D02*
X180331015Y-68079761D01*
X180331015Y-68079761D02*
X180378634Y-67984523D01*
X180378634Y-67984523D02*
X180426253Y-67936904D01*
X180426253Y-67936904D02*
X180521491Y-67889285D01*
X180521491Y-67889285D02*
X180616729Y-67889285D01*
X180616729Y-67889285D02*
X180759586Y-67936904D01*
X180759586Y-67936904D02*
X181331015Y-68508332D01*
X181331015Y-68508332D02*
X181331015Y-67889285D01*
X181306015Y-66967857D02*
X180829824Y-67301190D01*
X181306015Y-67539285D02*
X180306015Y-67539285D01*
X180306015Y-67539285D02*
X180306015Y-67158333D01*
X180306015Y-67158333D02*
X180353634Y-67063095D01*
X180353634Y-67063095D02*
X180401253Y-67015476D01*
X180401253Y-67015476D02*
X180496491Y-66967857D01*
X180496491Y-66967857D02*
X180639348Y-66967857D01*
X180639348Y-66967857D02*
X180734586Y-67015476D01*
X180734586Y-67015476D02*
X180782205Y-67063095D01*
X180782205Y-67063095D02*
X180829824Y-67158333D01*
X180829824Y-67158333D02*
X180829824Y-67539285D01*
X181306015Y-66015476D02*
X181306015Y-66586904D01*
X181306015Y-66301190D02*
X180306015Y-66301190D01*
X180306015Y-66301190D02*
X180448872Y-66396428D01*
X180448872Y-66396428D02*
X180544110Y-66491666D01*
X180544110Y-66491666D02*
X180591729Y-66586904D01*
X180639348Y-65158333D02*
X181306015Y-65158333D01*
X180258396Y-65396428D02*
X180972681Y-65634523D01*
X180972681Y-65634523D02*
X180972681Y-65015476D01*
D11*
X166008333Y-72804819D02*
X165675000Y-72328628D01*
X165436905Y-72804819D02*
X165436905Y-71804819D01*
X165436905Y-71804819D02*
X165817857Y-71804819D01*
X165817857Y-71804819D02*
X165913095Y-71852438D01*
X165913095Y-71852438D02*
X165960714Y-71900057D01*
X165960714Y-71900057D02*
X166008333Y-71995295D01*
X166008333Y-71995295D02*
X166008333Y-72138152D01*
X166008333Y-72138152D02*
X165960714Y-72233390D01*
X165960714Y-72233390D02*
X165913095Y-72281009D01*
X165913095Y-72281009D02*
X165817857Y-72328628D01*
X165817857Y-72328628D02*
X165436905Y-72328628D01*
X166960714Y-72804819D02*
X166389286Y-72804819D01*
X166675000Y-72804819D02*
X166675000Y-71804819D01*
X166675000Y-71804819D02*
X166579762Y-71947676D01*
X166579762Y-71947676D02*
X166484524Y-72042914D01*
X166484524Y-72042914D02*
X166389286Y-72090533D01*
X164508333Y-69159580D02*
X164460714Y-69207200D01*
X164460714Y-69207200D02*
X164317857Y-69254819D01*
X164317857Y-69254819D02*
X164222619Y-69254819D01*
X164222619Y-69254819D02*
X164079762Y-69207200D01*
X164079762Y-69207200D02*
X163984524Y-69111961D01*
X163984524Y-69111961D02*
X163936905Y-69016723D01*
X163936905Y-69016723D02*
X163889286Y-68826247D01*
X163889286Y-68826247D02*
X163889286Y-68683390D01*
X163889286Y-68683390D02*
X163936905Y-68492914D01*
X163936905Y-68492914D02*
X163984524Y-68397676D01*
X163984524Y-68397676D02*
X164079762Y-68302438D01*
X164079762Y-68302438D02*
X164222619Y-68254819D01*
X164222619Y-68254819D02*
X164317857Y-68254819D01*
X164317857Y-68254819D02*
X164460714Y-68302438D01*
X164460714Y-68302438D02*
X164508333Y-68350057D01*
X165460714Y-69254819D02*
X164889286Y-69254819D01*
X165175000Y-69254819D02*
X165175000Y-68254819D01*
X165175000Y-68254819D02*
X165079762Y-68397676D01*
X165079762Y-68397676D02*
X164984524Y-68492914D01*
X164984524Y-68492914D02*
X164889286Y-68540533D01*
D13*
%TO.C,R4*%
X178372936Y-73785000D02*
X179827064Y-73785000D01*
X178372936Y-71965000D02*
X179827064Y-71965000D01*
%TO.C,R10*%
X178472936Y-70015000D02*
X178927064Y-70015000D01*
X178472936Y-71485000D02*
X178927064Y-71485000D01*
%TO.C,R12*%
X174765000Y-75097936D02*
X174765000Y-75552064D01*
X176235000Y-75097936D02*
X176235000Y-75552064D01*
%TO.C,U1*%
X170407500Y-64425000D02*
X170167500Y-64095000D01*
X170647500Y-64095000D01*
X170407500Y-64425000D01*
G36*
X170407500Y-64425000D02*
G01*
X170167500Y-64095000D01*
X170647500Y-64095000D01*
X170407500Y-64425000D01*
G37*
X173107500Y-73230000D02*
X175057500Y-73230000D01*
X173107500Y-73230000D02*
X171157500Y-73230000D01*
X173107500Y-64360000D02*
X175057500Y-64360000D01*
X173107500Y-64360000D02*
X171157500Y-64360000D01*
%TO.C,R2*%
X167415000Y-71422936D02*
X167415000Y-71877064D01*
X168885000Y-71422936D02*
X168885000Y-71877064D01*
%TO.C,R5*%
X179802500Y-75432776D02*
X179802500Y-75942224D01*
X180847500Y-75432776D02*
X180847500Y-75942224D01*
%TO.C,R3*%
X163490000Y-73447936D02*
X163490000Y-73902064D01*
X164960000Y-73447936D02*
X164960000Y-73902064D01*
%TO.C,R13*%
X176972936Y-64160000D02*
X177427064Y-64160000D01*
X176972936Y-62690000D02*
X177427064Y-62690000D01*
%TO.C,R7*%
X166972936Y-65665000D02*
X167427064Y-65665000D01*
X166972936Y-67135000D02*
X167427064Y-67135000D01*
%TO.C,R8*%
X165115000Y-63802064D02*
X165115000Y-63347936D01*
X166585000Y-63802064D02*
X166585000Y-63347936D01*
%TO.C,R6*%
X178077500Y-75457776D02*
X178077500Y-75967224D01*
X179122500Y-75457776D02*
X179122500Y-75967224D01*
%TO.C,R9*%
X168697936Y-62640000D02*
X169152064Y-62640000D01*
X168697936Y-64110000D02*
X169152064Y-64110000D01*
%TO.C,R11*%
X171360000Y-75527064D02*
X171360000Y-75072936D01*
X169890000Y-75527064D02*
X169890000Y-75072936D01*
%TO.C,C2*%
X178961252Y-69535000D02*
X178438748Y-69535000D01*
X178961252Y-68065000D02*
X178438748Y-68065000D01*
%TO.C,R14*%
X178447936Y-67035000D02*
X178902064Y-67035000D01*
X178447936Y-65565000D02*
X178902064Y-65565000D01*
%TO.C,R1*%
X165302064Y-70015000D02*
X164847936Y-70015000D01*
X165302064Y-71485000D02*
X164847936Y-71485000D01*
%TO.C,C1*%
X167486252Y-69535000D02*
X166963748Y-69535000D01*
X167486252Y-68065000D02*
X166963748Y-68065000D01*
%TD*%
M02*
