%TF.GenerationSoftware,KiCad,Pcbnew,9.0.2*%
%TF.CreationDate,2026-02-03T00:21:18-06:00*%
%TF.ProjectId,conditioner,636f6e64-6974-4696-9f6e-65722e6b6963,rev?*%
%TF.SameCoordinates,Original*%
%TF.FileFunction,Drillmap*%
%TF.FilePolarity,Positive*%
%FSLAX45Y45*%
G04 Gerber Fmt 4.5, Leading zero omitted, Abs format (unit mm)*
G04 Created by KiCad (PCBNEW 9.0.2) date 2026-02-03 00:21:18*
%MOMM*%
%LPD*%
G01*
G04 APERTURE LIST*
%ADD10C,0.200000*%
G04 APERTURE END LIST*
D10*
X15810000Y-5895000D02*
X18475000Y-5895000D01*
X18475000Y-8120000D01*
X15810000Y-8120000D01*
X15810000Y-5895000D01*
X16060777Y-8441484D02*
X16060777Y-8241484D01*
X16060777Y-8241484D02*
X16108396Y-8241484D01*
X16108396Y-8241484D02*
X16136967Y-8251008D01*
X16136967Y-8251008D02*
X16156015Y-8270055D01*
X16156015Y-8270055D02*
X16165539Y-8289103D01*
X16165539Y-8289103D02*
X16175062Y-8327198D01*
X16175062Y-8327198D02*
X16175062Y-8355769D01*
X16175062Y-8355769D02*
X16165539Y-8393865D01*
X16165539Y-8393865D02*
X16156015Y-8412912D01*
X16156015Y-8412912D02*
X16136967Y-8431960D01*
X16136967Y-8431960D02*
X16108396Y-8441484D01*
X16108396Y-8441484D02*
X16060777Y-8441484D01*
X16260777Y-8441484D02*
X16260777Y-8308150D01*
X16260777Y-8346246D02*
X16270301Y-8327198D01*
X16270301Y-8327198D02*
X16279824Y-8317674D01*
X16279824Y-8317674D02*
X16298872Y-8308150D01*
X16298872Y-8308150D02*
X16317920Y-8308150D01*
X16384586Y-8441484D02*
X16384586Y-8308150D01*
X16384586Y-8241484D02*
X16375062Y-8251008D01*
X16375062Y-8251008D02*
X16384586Y-8260531D01*
X16384586Y-8260531D02*
X16394110Y-8251008D01*
X16394110Y-8251008D02*
X16384586Y-8241484D01*
X16384586Y-8241484D02*
X16384586Y-8260531D01*
X16508396Y-8441484D02*
X16489348Y-8431960D01*
X16489348Y-8431960D02*
X16479824Y-8412912D01*
X16479824Y-8412912D02*
X16479824Y-8241484D01*
X16613158Y-8441484D02*
X16594110Y-8431960D01*
X16594110Y-8431960D02*
X16584586Y-8412912D01*
X16584586Y-8412912D02*
X16584586Y-8241484D01*
X16841729Y-8441484D02*
X16841729Y-8241484D01*
X16841729Y-8241484D02*
X16908396Y-8384341D01*
X16908396Y-8384341D02*
X16975063Y-8241484D01*
X16975063Y-8241484D02*
X16975063Y-8441484D01*
X17156015Y-8441484D02*
X17156015Y-8336722D01*
X17156015Y-8336722D02*
X17146491Y-8317674D01*
X17146491Y-8317674D02*
X17127444Y-8308150D01*
X17127444Y-8308150D02*
X17089348Y-8308150D01*
X17089348Y-8308150D02*
X17070301Y-8317674D01*
X17156015Y-8431960D02*
X17136967Y-8441484D01*
X17136967Y-8441484D02*
X17089348Y-8441484D01*
X17089348Y-8441484D02*
X17070301Y-8431960D01*
X17070301Y-8431960D02*
X17060777Y-8412912D01*
X17060777Y-8412912D02*
X17060777Y-8393865D01*
X17060777Y-8393865D02*
X17070301Y-8374817D01*
X17070301Y-8374817D02*
X17089348Y-8365293D01*
X17089348Y-8365293D02*
X17136967Y-8365293D01*
X17136967Y-8365293D02*
X17156015Y-8355769D01*
X17251253Y-8308150D02*
X17251253Y-8508150D01*
X17251253Y-8317674D02*
X17270301Y-8308150D01*
X17270301Y-8308150D02*
X17308396Y-8308150D01*
X17308396Y-8308150D02*
X17327444Y-8317674D01*
X17327444Y-8317674D02*
X17336967Y-8327198D01*
X17336967Y-8327198D02*
X17346491Y-8346246D01*
X17346491Y-8346246D02*
X17346491Y-8403389D01*
X17346491Y-8403389D02*
X17336967Y-8422436D01*
X17336967Y-8422436D02*
X17327444Y-8431960D01*
X17327444Y-8431960D02*
X17308396Y-8441484D01*
X17308396Y-8441484D02*
X17270301Y-8441484D01*
X17270301Y-8441484D02*
X17251253Y-8431960D01*
X17432205Y-8422436D02*
X17441729Y-8431960D01*
X17441729Y-8431960D02*
X17432205Y-8441484D01*
X17432205Y-8441484D02*
X17422682Y-8431960D01*
X17422682Y-8431960D02*
X17432205Y-8422436D01*
X17432205Y-8422436D02*
X17432205Y-8441484D01*
X17432205Y-8317674D02*
X17441729Y-8327198D01*
X17441729Y-8327198D02*
X17432205Y-8336722D01*
X17432205Y-8336722D02*
X17422682Y-8327198D01*
X17422682Y-8327198D02*
X17432205Y-8317674D01*
X17432205Y-8317674D02*
X17432205Y-8336722D01*
M02*
