M48
; DRILL file {KiCad 9.0.2} date 2026-02-03T00:21:18-0600
; FORMAT={-:-/ absolute / metric / decimal}
; #@! TF.CreationDate,2026-02-03T00:21:18-06:00
; #@! TF.GenerationSoftware,Kicad,Pcbnew,9.0.2
; #@! TF.FileFunction,Plated,1,2,PTH
FMAT,2
METRIC
; #@! TA.AperFunction,Plated,PTH,ViaDrill
T1C0.300
; #@! TA.AperFunction,Plated,PTH,ComponentDrill
T2C1.000
%
G90
G05
T1
X162.175Y-67.95
X162.225Y-71.85
X163.45Y-67.85
X166.175Y-73.275
X167.875Y-60.3
X167.925Y-64.6
X168.05Y-62.15
X168.675Y-76.85
X172.425Y-66.15
X172.475Y-65.025
X172.5Y-67.475
X177.05Y-74.675
X178.05Y-60.15
X178.35Y-80.05
X180.925Y-62.85
X180.925Y-64.45
X181.109Y-69.987
T2
X160.0Y-61.0
X160.0Y-63.54
X160.0Y-66.08
X160.0Y-68.62
X160.0Y-71.16
X160.0Y-73.7
X160.0Y-76.24
X160.0Y-78.78
X182.86Y-61.0
X182.86Y-63.54
X182.86Y-66.08
X182.86Y-68.62
X182.86Y-71.16
X182.86Y-73.7
X182.86Y-76.24
X182.86Y-78.78
M30
