%TF.GenerationSoftware,KiCad,Pcbnew,9.0.2*%
%TF.CreationDate,2026-04-22T17:01:20-05:00*%
%TF.ProjectId,conditioner+adc,636f6e64-6974-4696-9f6e-65722b616463,rev?*%
%TF.SameCoordinates,Original*%
%TF.FileFunction,Drillmap*%
%TF.FilePolarity,Positive*%
%FSLAX45Y45*%
G04 Gerber Fmt 4.5, Leading zero omitted, Abs format (unit mm)*
G04 Created by KiCad (PCBNEW 9.0.2) date 2026-04-22 17:01:20*
%MOMM*%
%LPD*%
G01*
G04 APERTURE LIST*
%ADD10C,0.200000*%
%ADD11C,0.100000*%
G04 APERTURE END LIST*
D10*
X11530500Y-5669500D02*
X17164500Y-5669500D01*
X17164500Y-10350000D01*
X11530500Y-10350000D01*
X11530500Y-5669500D01*
D11*
X11947000Y-10000000D02*
X11977000Y-10030000D01*
X11977000Y-10000000D02*
X11947000Y-10030000D01*
X11967000Y-7809000D02*
X11997000Y-7839000D01*
X11997000Y-7809000D02*
X11967000Y-7839000D01*
X11967000Y-8204000D02*
X11997000Y-8234000D01*
X11997000Y-8204000D02*
X11967000Y-8234000D01*
X12167000Y-6091000D02*
X12197000Y-6121000D01*
X12197000Y-6091000D02*
X12167000Y-6121000D01*
X12202500Y-7362500D02*
X12232500Y-7392500D01*
X12232500Y-7362500D02*
X12202500Y-7392500D01*
X12207500Y-7237500D02*
X12237500Y-7267500D01*
X12237500Y-7237500D02*
X12207500Y-7267500D01*
X12325000Y-8862500D02*
X12355000Y-8892500D01*
X12355000Y-8862500D02*
X12325000Y-8892500D01*
X12387500Y-9462500D02*
X12417500Y-9492500D01*
X12417500Y-9462500D02*
X12387500Y-9492500D01*
X12495000Y-8295000D02*
X12525000Y-8325000D01*
X12525000Y-8295000D02*
X12495000Y-8325000D01*
X12662500Y-6312500D02*
X12692500Y-6342500D01*
X12692500Y-6312500D02*
X12662500Y-6342500D01*
X12821000Y-7608000D02*
X12851000Y-7638000D01*
X12851000Y-7608000D02*
X12821000Y-7638000D01*
X13039431Y-8217569D02*
X13069431Y-8247569D01*
X13069431Y-8217569D02*
X13039431Y-8247569D01*
X13047500Y-8530000D02*
X13077500Y-8560000D01*
X13077500Y-8530000D02*
X13047500Y-8560000D01*
X13074000Y-9989000D02*
X13104000Y-10019000D01*
X13104000Y-9989000D02*
X13074000Y-10019000D01*
X13075000Y-8852500D02*
X13105000Y-8882500D01*
X13105000Y-8852500D02*
X13075000Y-8882500D01*
X13102500Y-9750000D02*
X13132500Y-9780000D01*
X13132500Y-9750000D02*
X13102500Y-9780000D01*
X13170000Y-6212500D02*
X13200000Y-6242500D01*
X13200000Y-6212500D02*
X13170000Y-6242500D01*
X13266000Y-7154000D02*
X13296000Y-7184000D01*
X13296000Y-7154000D02*
X13266000Y-7184000D01*
X13463750Y-7787500D02*
X13493750Y-7817500D01*
X13493750Y-7787500D02*
X13463750Y-7817500D01*
X13717500Y-9027500D02*
X13747500Y-9057500D01*
X13747500Y-9027500D02*
X13717500Y-9057500D01*
X13818750Y-8727500D02*
X13848750Y-8757500D01*
X13848750Y-8727500D02*
X13818750Y-8757500D01*
X13841000Y-8046000D02*
X13871000Y-8076000D01*
X13871000Y-8046000D02*
X13841000Y-8076000D01*
X13932500Y-9580000D02*
X13962500Y-9610000D01*
X13962500Y-9580000D02*
X13932500Y-9610000D01*
X13997000Y-9962000D02*
X14027000Y-9992000D01*
X14027000Y-9962000D02*
X13997000Y-9992000D01*
X14072000Y-7634000D02*
X14102000Y-7664000D01*
X14102000Y-7634000D02*
X14072000Y-7664000D01*
X14209000Y-7220000D02*
X14239000Y-7250000D01*
X14239000Y-7220000D02*
X14209000Y-7250000D01*
X14215000Y-8059000D02*
X14245000Y-8089000D01*
X14245000Y-8059000D02*
X14215000Y-8089000D01*
X14376000Y-8447000D02*
X14406000Y-8477000D01*
X14406000Y-8447000D02*
X14376000Y-8477000D01*
X14382000Y-8920000D02*
X14412000Y-8950000D01*
X14412000Y-8920000D02*
X14382000Y-8950000D01*
X14562000Y-9955000D02*
X14592000Y-9985000D01*
X14592000Y-9955000D02*
X14562000Y-9985000D01*
X14727500Y-7660000D02*
X14757500Y-7690000D01*
X14757500Y-7660000D02*
X14727500Y-7690000D01*
X14865000Y-8704000D02*
X14895000Y-8734000D01*
X14895000Y-8704000D02*
X14865000Y-8734000D01*
X14907500Y-8152500D02*
X14937500Y-8182500D01*
X14937500Y-8152500D02*
X14907500Y-8182500D01*
X15011000Y-6067000D02*
X15041000Y-6097000D01*
X15041000Y-6067000D02*
X15011000Y-6097000D01*
X15099500Y-7005000D02*
X15129500Y-7035000D01*
X15129500Y-7005000D02*
X15099500Y-7035000D01*
X15125000Y-8370000D02*
X15155000Y-8400000D01*
X15155000Y-8370000D02*
X15125000Y-8400000D01*
X15315000Y-7787500D02*
X15345000Y-7817500D01*
X15345000Y-7787500D02*
X15315000Y-7817500D01*
X15342500Y-8780000D02*
X15372500Y-8810000D01*
X15372500Y-8780000D02*
X15342500Y-8810000D01*
X15490000Y-9627500D02*
X15520000Y-9657500D01*
X15520000Y-9627500D02*
X15490000Y-9657500D01*
X15900000Y-8352500D02*
X15930000Y-8382500D01*
X15930000Y-8352500D02*
X15900000Y-8382500D01*
X16056000Y-7920000D02*
X16086000Y-7950000D01*
X16086000Y-7920000D02*
X16056000Y-7950000D01*
X16062000Y-7247000D02*
X16092000Y-7277000D01*
X16092000Y-7247000D02*
X16062000Y-7277000D01*
X16150000Y-8572500D02*
X16180000Y-8602500D01*
X16180000Y-8572500D02*
X16150000Y-8602500D01*
X16419000Y-9962000D02*
X16449000Y-9992000D01*
X16449000Y-9962000D02*
X16419000Y-9992000D01*
X16575000Y-8791000D02*
X16605000Y-8821000D01*
X16605000Y-8791000D02*
X16575000Y-8821000D01*
X16775000Y-7930000D02*
X16805000Y-7960000D01*
X16805000Y-7930000D02*
X16775000Y-7960000D01*
X16776000Y-9981000D02*
X16806000Y-10011000D01*
X16806000Y-9981000D02*
X16776000Y-10011000D01*
X16839000Y-6057000D02*
X16869000Y-6087000D01*
X16869000Y-6057000D02*
X16839000Y-6087000D01*
X16844000Y-7247000D02*
X16874000Y-7277000D01*
X16874000Y-7247000D02*
X16844000Y-7277000D01*
X16983000Y-9126000D02*
X17013000Y-9156000D01*
X17013000Y-9126000D02*
X16983000Y-9156000D01*
X12116500Y-6530000D02*
G75*
G02*
X12016500Y-6530000I-50000J0D01*
G01*
X12016500Y-6530000D02*
G75*
G02*
X12116500Y-6530000I50000J0D01*
G01*
X12116500Y-6784000D02*
G75*
G02*
X12016500Y-6784000I-50000J0D01*
G01*
X12016500Y-6784000D02*
G75*
G02*
X12116500Y-6784000I50000J0D01*
G01*
X12370500Y-6530000D02*
G75*
G02*
X12270500Y-6530000I-50000J0D01*
G01*
X12270500Y-6530000D02*
G75*
G02*
X12370500Y-6530000I50000J0D01*
G01*
X12370500Y-6784000D02*
G75*
G02*
X12270500Y-6784000I-50000J0D01*
G01*
X12270500Y-6784000D02*
G75*
G02*
X12370500Y-6784000I50000J0D01*
G01*
X12624500Y-6530000D02*
G75*
G02*
X12524500Y-6530000I-50000J0D01*
G01*
X12524500Y-6530000D02*
G75*
G02*
X12624500Y-6530000I50000J0D01*
G01*
X12624500Y-6784000D02*
G75*
G02*
X12524500Y-6784000I-50000J0D01*
G01*
X12524500Y-6784000D02*
G75*
G02*
X12624500Y-6784000I50000J0D01*
G01*
X12878500Y-6530000D02*
G75*
G02*
X12778500Y-6530000I-50000J0D01*
G01*
X12778500Y-6530000D02*
G75*
G02*
X12878500Y-6530000I50000J0D01*
G01*
X12878500Y-6784000D02*
G75*
G02*
X12778500Y-6784000I-50000J0D01*
G01*
X12778500Y-6784000D02*
G75*
G02*
X12878500Y-6784000I50000J0D01*
G01*
X13132500Y-6530000D02*
G75*
G02*
X13032500Y-6530000I-50000J0D01*
G01*
X13032500Y-6530000D02*
G75*
G02*
X13132500Y-6530000I50000J0D01*
G01*
X13132500Y-6784000D02*
G75*
G02*
X13032500Y-6784000I-50000J0D01*
G01*
X13032500Y-6784000D02*
G75*
G02*
X13132500Y-6784000I50000J0D01*
G01*
X13386500Y-6530000D02*
G75*
G02*
X13286500Y-6530000I-50000J0D01*
G01*
X13286500Y-6530000D02*
G75*
G02*
X13386500Y-6530000I50000J0D01*
G01*
X13386500Y-6784000D02*
G75*
G02*
X13286500Y-6784000I-50000J0D01*
G01*
X13286500Y-6784000D02*
G75*
G02*
X13386500Y-6784000I50000J0D01*
G01*
X13640500Y-6530000D02*
G75*
G02*
X13540500Y-6530000I-50000J0D01*
G01*
X13540500Y-6530000D02*
G75*
G02*
X13640500Y-6530000I50000J0D01*
G01*
X13640500Y-6784000D02*
G75*
G02*
X13540500Y-6784000I-50000J0D01*
G01*
X13540500Y-6784000D02*
G75*
G02*
X13640500Y-6784000I50000J0D01*
G01*
X13894500Y-6530000D02*
G75*
G02*
X13794500Y-6530000I-50000J0D01*
G01*
X13794500Y-6530000D02*
G75*
G02*
X13894500Y-6530000I50000J0D01*
G01*
X13894500Y-6784000D02*
G75*
G02*
X13794500Y-6784000I-50000J0D01*
G01*
X13794500Y-6784000D02*
G75*
G02*
X13894500Y-6784000I50000J0D01*
G01*
X14148500Y-6530000D02*
G75*
G02*
X14048500Y-6530000I-50000J0D01*
G01*
X14048500Y-6530000D02*
G75*
G02*
X14148500Y-6530000I50000J0D01*
G01*
X14148500Y-6784000D02*
G75*
G02*
X14048500Y-6784000I-50000J0D01*
G01*
X14048500Y-6784000D02*
G75*
G02*
X14148500Y-6784000I50000J0D01*
G01*
X14402500Y-6530000D02*
G75*
G02*
X14302500Y-6530000I-50000J0D01*
G01*
X14302500Y-6530000D02*
G75*
G02*
X14402500Y-6530000I50000J0D01*
G01*
X14402500Y-6784000D02*
G75*
G02*
X14302500Y-6784000I-50000J0D01*
G01*
X14302500Y-6784000D02*
G75*
G02*
X14402500Y-6784000I50000J0D01*
G01*
X14656500Y-6530000D02*
G75*
G02*
X14556500Y-6530000I-50000J0D01*
G01*
X14556500Y-6530000D02*
G75*
G02*
X14656500Y-6530000I50000J0D01*
G01*
X14656500Y-6784000D02*
G75*
G02*
X14556500Y-6784000I-50000J0D01*
G01*
X14556500Y-6784000D02*
G75*
G02*
X14656500Y-6784000I50000J0D01*
G01*
X14910500Y-6530000D02*
G75*
G02*
X14810500Y-6530000I-50000J0D01*
G01*
X14810500Y-6530000D02*
G75*
G02*
X14910500Y-6530000I50000J0D01*
G01*
X14910500Y-6784000D02*
G75*
G02*
X14810500Y-6784000I-50000J0D01*
G01*
X14810500Y-6784000D02*
G75*
G02*
X14910500Y-6784000I50000J0D01*
G01*
X15164500Y-6530000D02*
G75*
G02*
X15064500Y-6530000I-50000J0D01*
G01*
X15064500Y-6530000D02*
G75*
G02*
X15164500Y-6530000I50000J0D01*
G01*
X15164500Y-6784000D02*
G75*
G02*
X15064500Y-6784000I-50000J0D01*
G01*
X15064500Y-6784000D02*
G75*
G02*
X15164500Y-6784000I50000J0D01*
G01*
X15418500Y-6530000D02*
G75*
G02*
X15318500Y-6530000I-50000J0D01*
G01*
X15318500Y-6530000D02*
G75*
G02*
X15418500Y-6530000I50000J0D01*
G01*
X15418500Y-6784000D02*
G75*
G02*
X15318500Y-6784000I-50000J0D01*
G01*
X15318500Y-6784000D02*
G75*
G02*
X15418500Y-6784000I50000J0D01*
G01*
X15672500Y-6530000D02*
G75*
G02*
X15572500Y-6530000I-50000J0D01*
G01*
X15572500Y-6530000D02*
G75*
G02*
X15672500Y-6530000I50000J0D01*
G01*
X15672500Y-6784000D02*
G75*
G02*
X15572500Y-6784000I-50000J0D01*
G01*
X15572500Y-6784000D02*
G75*
G02*
X15672500Y-6784000I50000J0D01*
G01*
X15926500Y-6530000D02*
G75*
G02*
X15826500Y-6530000I-50000J0D01*
G01*
X15826500Y-6530000D02*
G75*
G02*
X15926500Y-6530000I50000J0D01*
G01*
X15926500Y-6784000D02*
G75*
G02*
X15826500Y-6784000I-50000J0D01*
G01*
X15826500Y-6784000D02*
G75*
G02*
X15926500Y-6784000I50000J0D01*
G01*
X16180500Y-6530000D02*
G75*
G02*
X16080500Y-6530000I-50000J0D01*
G01*
X16080500Y-6530000D02*
G75*
G02*
X16180500Y-6530000I50000J0D01*
G01*
X16180500Y-6784000D02*
G75*
G02*
X16080500Y-6784000I-50000J0D01*
G01*
X16080500Y-6784000D02*
G75*
G02*
X16180500Y-6784000I50000J0D01*
G01*
X16434500Y-6530000D02*
G75*
G02*
X16334500Y-6530000I-50000J0D01*
G01*
X16334500Y-6530000D02*
G75*
G02*
X16434500Y-6530000I50000J0D01*
G01*
X16434500Y-6784000D02*
G75*
G02*
X16334500Y-6784000I-50000J0D01*
G01*
X16334500Y-6784000D02*
G75*
G02*
X16434500Y-6784000I50000J0D01*
G01*
X16688500Y-6530000D02*
G75*
G02*
X16588500Y-6530000I-50000J0D01*
G01*
X16588500Y-6530000D02*
G75*
G02*
X16688500Y-6530000I50000J0D01*
G01*
X16688500Y-6784000D02*
G75*
G02*
X16588500Y-6784000I-50000J0D01*
G01*
X16588500Y-6784000D02*
G75*
G02*
X16688500Y-6784000I50000J0D01*
G01*
X16942500Y-6530000D02*
G75*
G02*
X16842500Y-6530000I-50000J0D01*
G01*
X16842500Y-6530000D02*
G75*
G02*
X16942500Y-6530000I50000J0D01*
G01*
X16942500Y-6784000D02*
G75*
G02*
X16842500Y-6784000I-50000J0D01*
G01*
X16842500Y-6784000D02*
G75*
G02*
X16942500Y-6784000I50000J0D01*
G01*
D10*
X11781277Y-10671484D02*
X11781277Y-10471484D01*
X11781277Y-10471484D02*
X11828896Y-10471484D01*
X11828896Y-10471484D02*
X11857467Y-10481008D01*
X11857467Y-10481008D02*
X11876515Y-10500055D01*
X11876515Y-10500055D02*
X11886039Y-10519103D01*
X11886039Y-10519103D02*
X11895562Y-10557198D01*
X11895562Y-10557198D02*
X11895562Y-10585770D01*
X11895562Y-10585770D02*
X11886039Y-10623865D01*
X11886039Y-10623865D02*
X11876515Y-10642912D01*
X11876515Y-10642912D02*
X11857467Y-10661960D01*
X11857467Y-10661960D02*
X11828896Y-10671484D01*
X11828896Y-10671484D02*
X11781277Y-10671484D01*
X11981277Y-10671484D02*
X11981277Y-10538150D01*
X11981277Y-10576246D02*
X11990801Y-10557198D01*
X11990801Y-10557198D02*
X12000324Y-10547674D01*
X12000324Y-10547674D02*
X12019372Y-10538150D01*
X12019372Y-10538150D02*
X12038420Y-10538150D01*
X12105086Y-10671484D02*
X12105086Y-10538150D01*
X12105086Y-10471484D02*
X12095562Y-10481008D01*
X12095562Y-10481008D02*
X12105086Y-10490531D01*
X12105086Y-10490531D02*
X12114610Y-10481008D01*
X12114610Y-10481008D02*
X12105086Y-10471484D01*
X12105086Y-10471484D02*
X12105086Y-10490531D01*
X12228896Y-10671484D02*
X12209848Y-10661960D01*
X12209848Y-10661960D02*
X12200324Y-10642912D01*
X12200324Y-10642912D02*
X12200324Y-10471484D01*
X12333658Y-10671484D02*
X12314610Y-10661960D01*
X12314610Y-10661960D02*
X12305086Y-10642912D01*
X12305086Y-10642912D02*
X12305086Y-10471484D01*
X12562229Y-10671484D02*
X12562229Y-10471484D01*
X12562229Y-10471484D02*
X12628896Y-10614341D01*
X12628896Y-10614341D02*
X12695562Y-10471484D01*
X12695562Y-10471484D02*
X12695562Y-10671484D01*
X12876515Y-10671484D02*
X12876515Y-10566722D01*
X12876515Y-10566722D02*
X12866991Y-10547674D01*
X12866991Y-10547674D02*
X12847943Y-10538150D01*
X12847943Y-10538150D02*
X12809848Y-10538150D01*
X12809848Y-10538150D02*
X12790801Y-10547674D01*
X12876515Y-10661960D02*
X12857467Y-10671484D01*
X12857467Y-10671484D02*
X12809848Y-10671484D01*
X12809848Y-10671484D02*
X12790801Y-10661960D01*
X12790801Y-10661960D02*
X12781277Y-10642912D01*
X12781277Y-10642912D02*
X12781277Y-10623865D01*
X12781277Y-10623865D02*
X12790801Y-10604817D01*
X12790801Y-10604817D02*
X12809848Y-10595293D01*
X12809848Y-10595293D02*
X12857467Y-10595293D01*
X12857467Y-10595293D02*
X12876515Y-10585770D01*
X12971753Y-10538150D02*
X12971753Y-10738150D01*
X12971753Y-10547674D02*
X12990801Y-10538150D01*
X12990801Y-10538150D02*
X13028896Y-10538150D01*
X13028896Y-10538150D02*
X13047943Y-10547674D01*
X13047943Y-10547674D02*
X13057467Y-10557198D01*
X13057467Y-10557198D02*
X13066991Y-10576246D01*
X13066991Y-10576246D02*
X13066991Y-10633389D01*
X13066991Y-10633389D02*
X13057467Y-10652436D01*
X13057467Y-10652436D02*
X13047943Y-10661960D01*
X13047943Y-10661960D02*
X13028896Y-10671484D01*
X13028896Y-10671484D02*
X12990801Y-10671484D01*
X12990801Y-10671484D02*
X12971753Y-10661960D01*
X13152705Y-10652436D02*
X13162229Y-10661960D01*
X13162229Y-10661960D02*
X13152705Y-10671484D01*
X13152705Y-10671484D02*
X13143182Y-10661960D01*
X13143182Y-10661960D02*
X13152705Y-10652436D01*
X13152705Y-10652436D02*
X13152705Y-10671484D01*
X13152705Y-10547674D02*
X13162229Y-10557198D01*
X13162229Y-10557198D02*
X13152705Y-10566722D01*
X13152705Y-10566722D02*
X13143182Y-10557198D01*
X13143182Y-10557198D02*
X13152705Y-10547674D01*
X13152705Y-10547674D02*
X13152705Y-10566722D01*
D11*
X11490500Y-10985000D02*
X11520500Y-11015000D01*
X11520500Y-10985000D02*
X11490500Y-11015000D01*
D10*
X11819372Y-10891484D02*
X11838420Y-10891484D01*
X11838420Y-10891484D02*
X11857467Y-10901008D01*
X11857467Y-10901008D02*
X11866991Y-10910531D01*
X11866991Y-10910531D02*
X11876515Y-10929579D01*
X11876515Y-10929579D02*
X11886039Y-10967674D01*
X11886039Y-10967674D02*
X11886039Y-11015293D01*
X11886039Y-11015293D02*
X11876515Y-11053389D01*
X11876515Y-11053389D02*
X11866991Y-11072436D01*
X11866991Y-11072436D02*
X11857467Y-11081960D01*
X11857467Y-11081960D02*
X11838420Y-11091484D01*
X11838420Y-11091484D02*
X11819372Y-11091484D01*
X11819372Y-11091484D02*
X11800324Y-11081960D01*
X11800324Y-11081960D02*
X11790801Y-11072436D01*
X11790801Y-11072436D02*
X11781277Y-11053389D01*
X11781277Y-11053389D02*
X11771753Y-11015293D01*
X11771753Y-11015293D02*
X11771753Y-10967674D01*
X11771753Y-10967674D02*
X11781277Y-10929579D01*
X11781277Y-10929579D02*
X11790801Y-10910531D01*
X11790801Y-10910531D02*
X11800324Y-10901008D01*
X11800324Y-10901008D02*
X11819372Y-10891484D01*
X11971753Y-11072436D02*
X11981277Y-11081960D01*
X11981277Y-11081960D02*
X11971753Y-11091484D01*
X11971753Y-11091484D02*
X11962229Y-11081960D01*
X11962229Y-11081960D02*
X11971753Y-11072436D01*
X11971753Y-11072436D02*
X11971753Y-11091484D01*
X12047943Y-10891484D02*
X12171753Y-10891484D01*
X12171753Y-10891484D02*
X12105086Y-10967674D01*
X12105086Y-10967674D02*
X12133658Y-10967674D01*
X12133658Y-10967674D02*
X12152705Y-10977198D01*
X12152705Y-10977198D02*
X12162229Y-10986722D01*
X12162229Y-10986722D02*
X12171753Y-11005770D01*
X12171753Y-11005770D02*
X12171753Y-11053389D01*
X12171753Y-11053389D02*
X12162229Y-11072436D01*
X12162229Y-11072436D02*
X12152705Y-11081960D01*
X12152705Y-11081960D02*
X12133658Y-11091484D01*
X12133658Y-11091484D02*
X12076515Y-11091484D01*
X12076515Y-11091484D02*
X12057467Y-11081960D01*
X12057467Y-11081960D02*
X12047943Y-11072436D01*
X12295562Y-10891484D02*
X12314610Y-10891484D01*
X12314610Y-10891484D02*
X12333658Y-10901008D01*
X12333658Y-10901008D02*
X12343182Y-10910531D01*
X12343182Y-10910531D02*
X12352705Y-10929579D01*
X12352705Y-10929579D02*
X12362229Y-10967674D01*
X12362229Y-10967674D02*
X12362229Y-11015293D01*
X12362229Y-11015293D02*
X12352705Y-11053389D01*
X12352705Y-11053389D02*
X12343182Y-11072436D01*
X12343182Y-11072436D02*
X12333658Y-11081960D01*
X12333658Y-11081960D02*
X12314610Y-11091484D01*
X12314610Y-11091484D02*
X12295562Y-11091484D01*
X12295562Y-11091484D02*
X12276515Y-11081960D01*
X12276515Y-11081960D02*
X12266991Y-11072436D01*
X12266991Y-11072436D02*
X12257467Y-11053389D01*
X12257467Y-11053389D02*
X12247943Y-11015293D01*
X12247943Y-11015293D02*
X12247943Y-10967674D01*
X12247943Y-10967674D02*
X12257467Y-10929579D01*
X12257467Y-10929579D02*
X12266991Y-10910531D01*
X12266991Y-10910531D02*
X12276515Y-10901008D01*
X12276515Y-10901008D02*
X12295562Y-10891484D01*
X12486039Y-10891484D02*
X12505086Y-10891484D01*
X12505086Y-10891484D02*
X12524134Y-10901008D01*
X12524134Y-10901008D02*
X12533658Y-10910531D01*
X12533658Y-10910531D02*
X12543182Y-10929579D01*
X12543182Y-10929579D02*
X12552705Y-10967674D01*
X12552705Y-10967674D02*
X12552705Y-11015293D01*
X12552705Y-11015293D02*
X12543182Y-11053389D01*
X12543182Y-11053389D02*
X12533658Y-11072436D01*
X12533658Y-11072436D02*
X12524134Y-11081960D01*
X12524134Y-11081960D02*
X12505086Y-11091484D01*
X12505086Y-11091484D02*
X12486039Y-11091484D01*
X12486039Y-11091484D02*
X12466991Y-11081960D01*
X12466991Y-11081960D02*
X12457467Y-11072436D01*
X12457467Y-11072436D02*
X12447943Y-11053389D01*
X12447943Y-11053389D02*
X12438420Y-11015293D01*
X12438420Y-11015293D02*
X12438420Y-10967674D01*
X12438420Y-10967674D02*
X12447943Y-10929579D01*
X12447943Y-10929579D02*
X12457467Y-10910531D01*
X12457467Y-10910531D02*
X12466991Y-10901008D01*
X12466991Y-10901008D02*
X12486039Y-10891484D01*
X12638420Y-11091484D02*
X12638420Y-10958150D01*
X12638420Y-10977198D02*
X12647943Y-10967674D01*
X12647943Y-10967674D02*
X12666991Y-10958150D01*
X12666991Y-10958150D02*
X12695563Y-10958150D01*
X12695563Y-10958150D02*
X12714610Y-10967674D01*
X12714610Y-10967674D02*
X12724134Y-10986722D01*
X12724134Y-10986722D02*
X12724134Y-11091484D01*
X12724134Y-10986722D02*
X12733658Y-10967674D01*
X12733658Y-10967674D02*
X12752705Y-10958150D01*
X12752705Y-10958150D02*
X12781277Y-10958150D01*
X12781277Y-10958150D02*
X12800324Y-10967674D01*
X12800324Y-10967674D02*
X12809848Y-10986722D01*
X12809848Y-10986722D02*
X12809848Y-11091484D01*
X12905086Y-11091484D02*
X12905086Y-10958150D01*
X12905086Y-10977198D02*
X12914610Y-10967674D01*
X12914610Y-10967674D02*
X12933658Y-10958150D01*
X12933658Y-10958150D02*
X12962229Y-10958150D01*
X12962229Y-10958150D02*
X12981277Y-10967674D01*
X12981277Y-10967674D02*
X12990801Y-10986722D01*
X12990801Y-10986722D02*
X12990801Y-11091484D01*
X12990801Y-10986722D02*
X13000324Y-10967674D01*
X13000324Y-10967674D02*
X13019372Y-10958150D01*
X13019372Y-10958150D02*
X13047943Y-10958150D01*
X13047943Y-10958150D02*
X13066991Y-10967674D01*
X13066991Y-10967674D02*
X13076515Y-10986722D01*
X13076515Y-10986722D02*
X13076515Y-11091484D01*
X13466991Y-10881960D02*
X13295563Y-11139103D01*
X13724134Y-10891484D02*
X13743182Y-10891484D01*
X13743182Y-10891484D02*
X13762229Y-10901008D01*
X13762229Y-10901008D02*
X13771753Y-10910531D01*
X13771753Y-10910531D02*
X13781277Y-10929579D01*
X13781277Y-10929579D02*
X13790801Y-10967674D01*
X13790801Y-10967674D02*
X13790801Y-11015293D01*
X13790801Y-11015293D02*
X13781277Y-11053389D01*
X13781277Y-11053389D02*
X13771753Y-11072436D01*
X13771753Y-11072436D02*
X13762229Y-11081960D01*
X13762229Y-11081960D02*
X13743182Y-11091484D01*
X13743182Y-11091484D02*
X13724134Y-11091484D01*
X13724134Y-11091484D02*
X13705086Y-11081960D01*
X13705086Y-11081960D02*
X13695563Y-11072436D01*
X13695563Y-11072436D02*
X13686039Y-11053389D01*
X13686039Y-11053389D02*
X13676515Y-11015293D01*
X13676515Y-11015293D02*
X13676515Y-10967674D01*
X13676515Y-10967674D02*
X13686039Y-10929579D01*
X13686039Y-10929579D02*
X13695563Y-10910531D01*
X13695563Y-10910531D02*
X13705086Y-10901008D01*
X13705086Y-10901008D02*
X13724134Y-10891484D01*
X13876515Y-11072436D02*
X13886039Y-11081960D01*
X13886039Y-11081960D02*
X13876515Y-11091484D01*
X13876515Y-11091484D02*
X13866991Y-11081960D01*
X13866991Y-11081960D02*
X13876515Y-11072436D01*
X13876515Y-11072436D02*
X13876515Y-11091484D01*
X14009848Y-10891484D02*
X14028896Y-10891484D01*
X14028896Y-10891484D02*
X14047944Y-10901008D01*
X14047944Y-10901008D02*
X14057467Y-10910531D01*
X14057467Y-10910531D02*
X14066991Y-10929579D01*
X14066991Y-10929579D02*
X14076515Y-10967674D01*
X14076515Y-10967674D02*
X14076515Y-11015293D01*
X14076515Y-11015293D02*
X14066991Y-11053389D01*
X14066991Y-11053389D02*
X14057467Y-11072436D01*
X14057467Y-11072436D02*
X14047944Y-11081960D01*
X14047944Y-11081960D02*
X14028896Y-11091484D01*
X14028896Y-11091484D02*
X14009848Y-11091484D01*
X14009848Y-11091484D02*
X13990801Y-11081960D01*
X13990801Y-11081960D02*
X13981277Y-11072436D01*
X13981277Y-11072436D02*
X13971753Y-11053389D01*
X13971753Y-11053389D02*
X13962229Y-11015293D01*
X13962229Y-11015293D02*
X13962229Y-10967674D01*
X13962229Y-10967674D02*
X13971753Y-10929579D01*
X13971753Y-10929579D02*
X13981277Y-10910531D01*
X13981277Y-10910531D02*
X13990801Y-10901008D01*
X13990801Y-10901008D02*
X14009848Y-10891484D01*
X14266991Y-11091484D02*
X14152706Y-11091484D01*
X14209848Y-11091484D02*
X14209848Y-10891484D01*
X14209848Y-10891484D02*
X14190801Y-10920055D01*
X14190801Y-10920055D02*
X14171753Y-10939103D01*
X14171753Y-10939103D02*
X14152706Y-10948627D01*
X14457467Y-11091484D02*
X14343182Y-11091484D01*
X14400325Y-11091484D02*
X14400325Y-10891484D01*
X14400325Y-10891484D02*
X14381277Y-10920055D01*
X14381277Y-10920055D02*
X14362229Y-10939103D01*
X14362229Y-10939103D02*
X14343182Y-10948627D01*
X14571753Y-10977198D02*
X14552706Y-10967674D01*
X14552706Y-10967674D02*
X14543182Y-10958150D01*
X14543182Y-10958150D02*
X14533658Y-10939103D01*
X14533658Y-10939103D02*
X14533658Y-10929579D01*
X14533658Y-10929579D02*
X14543182Y-10910531D01*
X14543182Y-10910531D02*
X14552706Y-10901008D01*
X14552706Y-10901008D02*
X14571753Y-10891484D01*
X14571753Y-10891484D02*
X14609848Y-10891484D01*
X14609848Y-10891484D02*
X14628896Y-10901008D01*
X14628896Y-10901008D02*
X14638420Y-10910531D01*
X14638420Y-10910531D02*
X14647944Y-10929579D01*
X14647944Y-10929579D02*
X14647944Y-10939103D01*
X14647944Y-10939103D02*
X14638420Y-10958150D01*
X14638420Y-10958150D02*
X14628896Y-10967674D01*
X14628896Y-10967674D02*
X14609848Y-10977198D01*
X14609848Y-10977198D02*
X14571753Y-10977198D01*
X14571753Y-10977198D02*
X14552706Y-10986722D01*
X14552706Y-10986722D02*
X14543182Y-10996246D01*
X14543182Y-10996246D02*
X14533658Y-11015293D01*
X14533658Y-11015293D02*
X14533658Y-11053389D01*
X14533658Y-11053389D02*
X14543182Y-11072436D01*
X14543182Y-11072436D02*
X14552706Y-11081960D01*
X14552706Y-11081960D02*
X14571753Y-11091484D01*
X14571753Y-11091484D02*
X14609848Y-11091484D01*
X14609848Y-11091484D02*
X14628896Y-11081960D01*
X14628896Y-11081960D02*
X14638420Y-11072436D01*
X14638420Y-11072436D02*
X14647944Y-11053389D01*
X14647944Y-11053389D02*
X14647944Y-11015293D01*
X14647944Y-11015293D02*
X14638420Y-10996246D01*
X14638420Y-10996246D02*
X14628896Y-10986722D01*
X14628896Y-10986722D02*
X14609848Y-10977198D01*
X14724134Y-10891484D02*
X14724134Y-10929579D01*
X14800325Y-10891484D02*
X14800325Y-10929579D01*
X15095563Y-11167674D02*
X15086039Y-11158150D01*
X15086039Y-11158150D02*
X15066991Y-11129579D01*
X15066991Y-11129579D02*
X15057468Y-11110531D01*
X15057468Y-11110531D02*
X15047944Y-11081960D01*
X15047944Y-11081960D02*
X15038420Y-11034341D01*
X15038420Y-11034341D02*
X15038420Y-10996246D01*
X15038420Y-10996246D02*
X15047944Y-10948627D01*
X15047944Y-10948627D02*
X15057468Y-10920055D01*
X15057468Y-10920055D02*
X15066991Y-10901008D01*
X15066991Y-10901008D02*
X15086039Y-10872436D01*
X15086039Y-10872436D02*
X15095563Y-10862912D01*
X15266991Y-10891484D02*
X15171753Y-10891484D01*
X15171753Y-10891484D02*
X15162229Y-10986722D01*
X15162229Y-10986722D02*
X15171753Y-10977198D01*
X15171753Y-10977198D02*
X15190801Y-10967674D01*
X15190801Y-10967674D02*
X15238420Y-10967674D01*
X15238420Y-10967674D02*
X15257468Y-10977198D01*
X15257468Y-10977198D02*
X15266991Y-10986722D01*
X15266991Y-10986722D02*
X15276515Y-11005770D01*
X15276515Y-11005770D02*
X15276515Y-11053389D01*
X15276515Y-11053389D02*
X15266991Y-11072436D01*
X15266991Y-11072436D02*
X15257468Y-11081960D01*
X15257468Y-11081960D02*
X15238420Y-11091484D01*
X15238420Y-11091484D02*
X15190801Y-11091484D01*
X15190801Y-11091484D02*
X15171753Y-11081960D01*
X15171753Y-11081960D02*
X15162229Y-11072436D01*
X15400325Y-10891484D02*
X15419372Y-10891484D01*
X15419372Y-10891484D02*
X15438420Y-10901008D01*
X15438420Y-10901008D02*
X15447944Y-10910531D01*
X15447944Y-10910531D02*
X15457468Y-10929579D01*
X15457468Y-10929579D02*
X15466991Y-10967674D01*
X15466991Y-10967674D02*
X15466991Y-11015293D01*
X15466991Y-11015293D02*
X15457468Y-11053389D01*
X15457468Y-11053389D02*
X15447944Y-11072436D01*
X15447944Y-11072436D02*
X15438420Y-11081960D01*
X15438420Y-11081960D02*
X15419372Y-11091484D01*
X15419372Y-11091484D02*
X15400325Y-11091484D01*
X15400325Y-11091484D02*
X15381277Y-11081960D01*
X15381277Y-11081960D02*
X15371753Y-11072436D01*
X15371753Y-11072436D02*
X15362229Y-11053389D01*
X15362229Y-11053389D02*
X15352706Y-11015293D01*
X15352706Y-11015293D02*
X15352706Y-10967674D01*
X15352706Y-10967674D02*
X15362229Y-10929579D01*
X15362229Y-10929579D02*
X15371753Y-10910531D01*
X15371753Y-10910531D02*
X15381277Y-10901008D01*
X15381277Y-10901008D02*
X15400325Y-10891484D01*
X15705087Y-11091484D02*
X15705087Y-10891484D01*
X15790801Y-11091484D02*
X15790801Y-10986722D01*
X15790801Y-10986722D02*
X15781277Y-10967674D01*
X15781277Y-10967674D02*
X15762230Y-10958150D01*
X15762230Y-10958150D02*
X15733658Y-10958150D01*
X15733658Y-10958150D02*
X15714610Y-10967674D01*
X15714610Y-10967674D02*
X15705087Y-10977198D01*
X15914610Y-11091484D02*
X15895563Y-11081960D01*
X15895563Y-11081960D02*
X15886039Y-11072436D01*
X15886039Y-11072436D02*
X15876515Y-11053389D01*
X15876515Y-11053389D02*
X15876515Y-10996246D01*
X15876515Y-10996246D02*
X15886039Y-10977198D01*
X15886039Y-10977198D02*
X15895563Y-10967674D01*
X15895563Y-10967674D02*
X15914610Y-10958150D01*
X15914610Y-10958150D02*
X15943182Y-10958150D01*
X15943182Y-10958150D02*
X15962230Y-10967674D01*
X15962230Y-10967674D02*
X15971753Y-10977198D01*
X15971753Y-10977198D02*
X15981277Y-10996246D01*
X15981277Y-10996246D02*
X15981277Y-11053389D01*
X15981277Y-11053389D02*
X15971753Y-11072436D01*
X15971753Y-11072436D02*
X15962230Y-11081960D01*
X15962230Y-11081960D02*
X15943182Y-11091484D01*
X15943182Y-11091484D02*
X15914610Y-11091484D01*
X16095563Y-11091484D02*
X16076515Y-11081960D01*
X16076515Y-11081960D02*
X16066991Y-11062912D01*
X16066991Y-11062912D02*
X16066991Y-10891484D01*
X16247944Y-11081960D02*
X16228896Y-11091484D01*
X16228896Y-11091484D02*
X16190801Y-11091484D01*
X16190801Y-11091484D02*
X16171753Y-11081960D01*
X16171753Y-11081960D02*
X16162230Y-11062912D01*
X16162230Y-11062912D02*
X16162230Y-10986722D01*
X16162230Y-10986722D02*
X16171753Y-10967674D01*
X16171753Y-10967674D02*
X16190801Y-10958150D01*
X16190801Y-10958150D02*
X16228896Y-10958150D01*
X16228896Y-10958150D02*
X16247944Y-10967674D01*
X16247944Y-10967674D02*
X16257468Y-10986722D01*
X16257468Y-10986722D02*
X16257468Y-11005770D01*
X16257468Y-11005770D02*
X16162230Y-11024817D01*
X16333658Y-11081960D02*
X16352706Y-11091484D01*
X16352706Y-11091484D02*
X16390801Y-11091484D01*
X16390801Y-11091484D02*
X16409849Y-11081960D01*
X16409849Y-11081960D02*
X16419372Y-11062912D01*
X16419372Y-11062912D02*
X16419372Y-11053389D01*
X16419372Y-11053389D02*
X16409849Y-11034341D01*
X16409849Y-11034341D02*
X16390801Y-11024817D01*
X16390801Y-11024817D02*
X16362230Y-11024817D01*
X16362230Y-11024817D02*
X16343182Y-11015293D01*
X16343182Y-11015293D02*
X16333658Y-10996246D01*
X16333658Y-10996246D02*
X16333658Y-10986722D01*
X16333658Y-10986722D02*
X16343182Y-10967674D01*
X16343182Y-10967674D02*
X16362230Y-10958150D01*
X16362230Y-10958150D02*
X16390801Y-10958150D01*
X16390801Y-10958150D02*
X16409849Y-10967674D01*
X16486039Y-11167674D02*
X16495563Y-11158150D01*
X16495563Y-11158150D02*
X16514611Y-11129579D01*
X16514611Y-11129579D02*
X16524134Y-11110531D01*
X16524134Y-11110531D02*
X16533658Y-11081960D01*
X16533658Y-11081960D02*
X16543182Y-11034341D01*
X16543182Y-11034341D02*
X16543182Y-10996246D01*
X16543182Y-10996246D02*
X16533658Y-10948627D01*
X16533658Y-10948627D02*
X16524134Y-10920055D01*
X16524134Y-10920055D02*
X16514611Y-10901008D01*
X16514611Y-10901008D02*
X16495563Y-10872436D01*
X16495563Y-10872436D02*
X16486039Y-10862912D01*
D11*
X11520500Y-11264000D02*
G75*
G02*
X11420500Y-11264000I-50000J0D01*
G01*
X11420500Y-11264000D02*
G75*
G02*
X11520500Y-11264000I50000J0D01*
G01*
D10*
X11886039Y-11355484D02*
X11771753Y-11355484D01*
X11828896Y-11355484D02*
X11828896Y-11155484D01*
X11828896Y-11155484D02*
X11809848Y-11184055D01*
X11809848Y-11184055D02*
X11790801Y-11203103D01*
X11790801Y-11203103D02*
X11771753Y-11212627D01*
X11971753Y-11336436D02*
X11981277Y-11345960D01*
X11981277Y-11345960D02*
X11971753Y-11355484D01*
X11971753Y-11355484D02*
X11962229Y-11345960D01*
X11962229Y-11345960D02*
X11971753Y-11336436D01*
X11971753Y-11336436D02*
X11971753Y-11355484D01*
X12105086Y-11155484D02*
X12124134Y-11155484D01*
X12124134Y-11155484D02*
X12143182Y-11165008D01*
X12143182Y-11165008D02*
X12152705Y-11174531D01*
X12152705Y-11174531D02*
X12162229Y-11193579D01*
X12162229Y-11193579D02*
X12171753Y-11231674D01*
X12171753Y-11231674D02*
X12171753Y-11279293D01*
X12171753Y-11279293D02*
X12162229Y-11317388D01*
X12162229Y-11317388D02*
X12152705Y-11336436D01*
X12152705Y-11336436D02*
X12143182Y-11345960D01*
X12143182Y-11345960D02*
X12124134Y-11355484D01*
X12124134Y-11355484D02*
X12105086Y-11355484D01*
X12105086Y-11355484D02*
X12086039Y-11345960D01*
X12086039Y-11345960D02*
X12076515Y-11336436D01*
X12076515Y-11336436D02*
X12066991Y-11317388D01*
X12066991Y-11317388D02*
X12057467Y-11279293D01*
X12057467Y-11279293D02*
X12057467Y-11231674D01*
X12057467Y-11231674D02*
X12066991Y-11193579D01*
X12066991Y-11193579D02*
X12076515Y-11174531D01*
X12076515Y-11174531D02*
X12086039Y-11165008D01*
X12086039Y-11165008D02*
X12105086Y-11155484D01*
X12295562Y-11155484D02*
X12314610Y-11155484D01*
X12314610Y-11155484D02*
X12333658Y-11165008D01*
X12333658Y-11165008D02*
X12343182Y-11174531D01*
X12343182Y-11174531D02*
X12352705Y-11193579D01*
X12352705Y-11193579D02*
X12362229Y-11231674D01*
X12362229Y-11231674D02*
X12362229Y-11279293D01*
X12362229Y-11279293D02*
X12352705Y-11317388D01*
X12352705Y-11317388D02*
X12343182Y-11336436D01*
X12343182Y-11336436D02*
X12333658Y-11345960D01*
X12333658Y-11345960D02*
X12314610Y-11355484D01*
X12314610Y-11355484D02*
X12295562Y-11355484D01*
X12295562Y-11355484D02*
X12276515Y-11345960D01*
X12276515Y-11345960D02*
X12266991Y-11336436D01*
X12266991Y-11336436D02*
X12257467Y-11317388D01*
X12257467Y-11317388D02*
X12247943Y-11279293D01*
X12247943Y-11279293D02*
X12247943Y-11231674D01*
X12247943Y-11231674D02*
X12257467Y-11193579D01*
X12257467Y-11193579D02*
X12266991Y-11174531D01*
X12266991Y-11174531D02*
X12276515Y-11165008D01*
X12276515Y-11165008D02*
X12295562Y-11155484D01*
X12486039Y-11155484D02*
X12505086Y-11155484D01*
X12505086Y-11155484D02*
X12524134Y-11165008D01*
X12524134Y-11165008D02*
X12533658Y-11174531D01*
X12533658Y-11174531D02*
X12543182Y-11193579D01*
X12543182Y-11193579D02*
X12552705Y-11231674D01*
X12552705Y-11231674D02*
X12552705Y-11279293D01*
X12552705Y-11279293D02*
X12543182Y-11317388D01*
X12543182Y-11317388D02*
X12533658Y-11336436D01*
X12533658Y-11336436D02*
X12524134Y-11345960D01*
X12524134Y-11345960D02*
X12505086Y-11355484D01*
X12505086Y-11355484D02*
X12486039Y-11355484D01*
X12486039Y-11355484D02*
X12466991Y-11345960D01*
X12466991Y-11345960D02*
X12457467Y-11336436D01*
X12457467Y-11336436D02*
X12447943Y-11317388D01*
X12447943Y-11317388D02*
X12438420Y-11279293D01*
X12438420Y-11279293D02*
X12438420Y-11231674D01*
X12438420Y-11231674D02*
X12447943Y-11193579D01*
X12447943Y-11193579D02*
X12457467Y-11174531D01*
X12457467Y-11174531D02*
X12466991Y-11165008D01*
X12466991Y-11165008D02*
X12486039Y-11155484D01*
X12638420Y-11355484D02*
X12638420Y-11222150D01*
X12638420Y-11241198D02*
X12647943Y-11231674D01*
X12647943Y-11231674D02*
X12666991Y-11222150D01*
X12666991Y-11222150D02*
X12695563Y-11222150D01*
X12695563Y-11222150D02*
X12714610Y-11231674D01*
X12714610Y-11231674D02*
X12724134Y-11250722D01*
X12724134Y-11250722D02*
X12724134Y-11355484D01*
X12724134Y-11250722D02*
X12733658Y-11231674D01*
X12733658Y-11231674D02*
X12752705Y-11222150D01*
X12752705Y-11222150D02*
X12781277Y-11222150D01*
X12781277Y-11222150D02*
X12800324Y-11231674D01*
X12800324Y-11231674D02*
X12809848Y-11250722D01*
X12809848Y-11250722D02*
X12809848Y-11355484D01*
X12905086Y-11355484D02*
X12905086Y-11222150D01*
X12905086Y-11241198D02*
X12914610Y-11231674D01*
X12914610Y-11231674D02*
X12933658Y-11222150D01*
X12933658Y-11222150D02*
X12962229Y-11222150D01*
X12962229Y-11222150D02*
X12981277Y-11231674D01*
X12981277Y-11231674D02*
X12990801Y-11250722D01*
X12990801Y-11250722D02*
X12990801Y-11355484D01*
X12990801Y-11250722D02*
X13000324Y-11231674D01*
X13000324Y-11231674D02*
X13019372Y-11222150D01*
X13019372Y-11222150D02*
X13047943Y-11222150D01*
X13047943Y-11222150D02*
X13066991Y-11231674D01*
X13066991Y-11231674D02*
X13076515Y-11250722D01*
X13076515Y-11250722D02*
X13076515Y-11355484D01*
X13466991Y-11145960D02*
X13295563Y-11403103D01*
X13724134Y-11155484D02*
X13743182Y-11155484D01*
X13743182Y-11155484D02*
X13762229Y-11165008D01*
X13762229Y-11165008D02*
X13771753Y-11174531D01*
X13771753Y-11174531D02*
X13781277Y-11193579D01*
X13781277Y-11193579D02*
X13790801Y-11231674D01*
X13790801Y-11231674D02*
X13790801Y-11279293D01*
X13790801Y-11279293D02*
X13781277Y-11317388D01*
X13781277Y-11317388D02*
X13771753Y-11336436D01*
X13771753Y-11336436D02*
X13762229Y-11345960D01*
X13762229Y-11345960D02*
X13743182Y-11355484D01*
X13743182Y-11355484D02*
X13724134Y-11355484D01*
X13724134Y-11355484D02*
X13705086Y-11345960D01*
X13705086Y-11345960D02*
X13695563Y-11336436D01*
X13695563Y-11336436D02*
X13686039Y-11317388D01*
X13686039Y-11317388D02*
X13676515Y-11279293D01*
X13676515Y-11279293D02*
X13676515Y-11231674D01*
X13676515Y-11231674D02*
X13686039Y-11193579D01*
X13686039Y-11193579D02*
X13695563Y-11174531D01*
X13695563Y-11174531D02*
X13705086Y-11165008D01*
X13705086Y-11165008D02*
X13724134Y-11155484D01*
X13876515Y-11336436D02*
X13886039Y-11345960D01*
X13886039Y-11345960D02*
X13876515Y-11355484D01*
X13876515Y-11355484D02*
X13866991Y-11345960D01*
X13866991Y-11345960D02*
X13876515Y-11336436D01*
X13876515Y-11336436D02*
X13876515Y-11355484D01*
X14009848Y-11155484D02*
X14028896Y-11155484D01*
X14028896Y-11155484D02*
X14047944Y-11165008D01*
X14047944Y-11165008D02*
X14057467Y-11174531D01*
X14057467Y-11174531D02*
X14066991Y-11193579D01*
X14066991Y-11193579D02*
X14076515Y-11231674D01*
X14076515Y-11231674D02*
X14076515Y-11279293D01*
X14076515Y-11279293D02*
X14066991Y-11317388D01*
X14066991Y-11317388D02*
X14057467Y-11336436D01*
X14057467Y-11336436D02*
X14047944Y-11345960D01*
X14047944Y-11345960D02*
X14028896Y-11355484D01*
X14028896Y-11355484D02*
X14009848Y-11355484D01*
X14009848Y-11355484D02*
X13990801Y-11345960D01*
X13990801Y-11345960D02*
X13981277Y-11336436D01*
X13981277Y-11336436D02*
X13971753Y-11317388D01*
X13971753Y-11317388D02*
X13962229Y-11279293D01*
X13962229Y-11279293D02*
X13962229Y-11231674D01*
X13962229Y-11231674D02*
X13971753Y-11193579D01*
X13971753Y-11193579D02*
X13981277Y-11174531D01*
X13981277Y-11174531D02*
X13990801Y-11165008D01*
X13990801Y-11165008D02*
X14009848Y-11155484D01*
X14143182Y-11155484D02*
X14266991Y-11155484D01*
X14266991Y-11155484D02*
X14200325Y-11231674D01*
X14200325Y-11231674D02*
X14228896Y-11231674D01*
X14228896Y-11231674D02*
X14247944Y-11241198D01*
X14247944Y-11241198D02*
X14257467Y-11250722D01*
X14257467Y-11250722D02*
X14266991Y-11269769D01*
X14266991Y-11269769D02*
X14266991Y-11317388D01*
X14266991Y-11317388D02*
X14257467Y-11336436D01*
X14257467Y-11336436D02*
X14247944Y-11345960D01*
X14247944Y-11345960D02*
X14228896Y-11355484D01*
X14228896Y-11355484D02*
X14171753Y-11355484D01*
X14171753Y-11355484D02*
X14152706Y-11345960D01*
X14152706Y-11345960D02*
X14143182Y-11336436D01*
X14362229Y-11355484D02*
X14400325Y-11355484D01*
X14400325Y-11355484D02*
X14419372Y-11345960D01*
X14419372Y-11345960D02*
X14428896Y-11336436D01*
X14428896Y-11336436D02*
X14447944Y-11307865D01*
X14447944Y-11307865D02*
X14457467Y-11269769D01*
X14457467Y-11269769D02*
X14457467Y-11193579D01*
X14457467Y-11193579D02*
X14447944Y-11174531D01*
X14447944Y-11174531D02*
X14438420Y-11165008D01*
X14438420Y-11165008D02*
X14419372Y-11155484D01*
X14419372Y-11155484D02*
X14381277Y-11155484D01*
X14381277Y-11155484D02*
X14362229Y-11165008D01*
X14362229Y-11165008D02*
X14352706Y-11174531D01*
X14352706Y-11174531D02*
X14343182Y-11193579D01*
X14343182Y-11193579D02*
X14343182Y-11241198D01*
X14343182Y-11241198D02*
X14352706Y-11260246D01*
X14352706Y-11260246D02*
X14362229Y-11269769D01*
X14362229Y-11269769D02*
X14381277Y-11279293D01*
X14381277Y-11279293D02*
X14419372Y-11279293D01*
X14419372Y-11279293D02*
X14438420Y-11269769D01*
X14438420Y-11269769D02*
X14447944Y-11260246D01*
X14447944Y-11260246D02*
X14457467Y-11241198D01*
X14628896Y-11222150D02*
X14628896Y-11355484D01*
X14581277Y-11145960D02*
X14533658Y-11288817D01*
X14533658Y-11288817D02*
X14657467Y-11288817D01*
X14724134Y-11155484D02*
X14724134Y-11193579D01*
X14800325Y-11155484D02*
X14800325Y-11193579D01*
X15095563Y-11431674D02*
X15086039Y-11422150D01*
X15086039Y-11422150D02*
X15066991Y-11393579D01*
X15066991Y-11393579D02*
X15057468Y-11374531D01*
X15057468Y-11374531D02*
X15047944Y-11345960D01*
X15047944Y-11345960D02*
X15038420Y-11298341D01*
X15038420Y-11298341D02*
X15038420Y-11260246D01*
X15038420Y-11260246D02*
X15047944Y-11212627D01*
X15047944Y-11212627D02*
X15057468Y-11184055D01*
X15057468Y-11184055D02*
X15066991Y-11165008D01*
X15066991Y-11165008D02*
X15086039Y-11136436D01*
X15086039Y-11136436D02*
X15095563Y-11126912D01*
X15257468Y-11222150D02*
X15257468Y-11355484D01*
X15209848Y-11145960D02*
X15162229Y-11288817D01*
X15162229Y-11288817D02*
X15286039Y-11288817D01*
X15400325Y-11155484D02*
X15419372Y-11155484D01*
X15419372Y-11155484D02*
X15438420Y-11165008D01*
X15438420Y-11165008D02*
X15447944Y-11174531D01*
X15447944Y-11174531D02*
X15457468Y-11193579D01*
X15457468Y-11193579D02*
X15466991Y-11231674D01*
X15466991Y-11231674D02*
X15466991Y-11279293D01*
X15466991Y-11279293D02*
X15457468Y-11317388D01*
X15457468Y-11317388D02*
X15447944Y-11336436D01*
X15447944Y-11336436D02*
X15438420Y-11345960D01*
X15438420Y-11345960D02*
X15419372Y-11355484D01*
X15419372Y-11355484D02*
X15400325Y-11355484D01*
X15400325Y-11355484D02*
X15381277Y-11345960D01*
X15381277Y-11345960D02*
X15371753Y-11336436D01*
X15371753Y-11336436D02*
X15362229Y-11317388D01*
X15362229Y-11317388D02*
X15352706Y-11279293D01*
X15352706Y-11279293D02*
X15352706Y-11231674D01*
X15352706Y-11231674D02*
X15362229Y-11193579D01*
X15362229Y-11193579D02*
X15371753Y-11174531D01*
X15371753Y-11174531D02*
X15381277Y-11165008D01*
X15381277Y-11165008D02*
X15400325Y-11155484D01*
X15705087Y-11355484D02*
X15705087Y-11155484D01*
X15790801Y-11355484D02*
X15790801Y-11250722D01*
X15790801Y-11250722D02*
X15781277Y-11231674D01*
X15781277Y-11231674D02*
X15762230Y-11222150D01*
X15762230Y-11222150D02*
X15733658Y-11222150D01*
X15733658Y-11222150D02*
X15714610Y-11231674D01*
X15714610Y-11231674D02*
X15705087Y-11241198D01*
X15914610Y-11355484D02*
X15895563Y-11345960D01*
X15895563Y-11345960D02*
X15886039Y-11336436D01*
X15886039Y-11336436D02*
X15876515Y-11317388D01*
X15876515Y-11317388D02*
X15876515Y-11260246D01*
X15876515Y-11260246D02*
X15886039Y-11241198D01*
X15886039Y-11241198D02*
X15895563Y-11231674D01*
X15895563Y-11231674D02*
X15914610Y-11222150D01*
X15914610Y-11222150D02*
X15943182Y-11222150D01*
X15943182Y-11222150D02*
X15962230Y-11231674D01*
X15962230Y-11231674D02*
X15971753Y-11241198D01*
X15971753Y-11241198D02*
X15981277Y-11260246D01*
X15981277Y-11260246D02*
X15981277Y-11317388D01*
X15981277Y-11317388D02*
X15971753Y-11336436D01*
X15971753Y-11336436D02*
X15962230Y-11345960D01*
X15962230Y-11345960D02*
X15943182Y-11355484D01*
X15943182Y-11355484D02*
X15914610Y-11355484D01*
X16095563Y-11355484D02*
X16076515Y-11345960D01*
X16076515Y-11345960D02*
X16066991Y-11326912D01*
X16066991Y-11326912D02*
X16066991Y-11155484D01*
X16247944Y-11345960D02*
X16228896Y-11355484D01*
X16228896Y-11355484D02*
X16190801Y-11355484D01*
X16190801Y-11355484D02*
X16171753Y-11345960D01*
X16171753Y-11345960D02*
X16162230Y-11326912D01*
X16162230Y-11326912D02*
X16162230Y-11250722D01*
X16162230Y-11250722D02*
X16171753Y-11231674D01*
X16171753Y-11231674D02*
X16190801Y-11222150D01*
X16190801Y-11222150D02*
X16228896Y-11222150D01*
X16228896Y-11222150D02*
X16247944Y-11231674D01*
X16247944Y-11231674D02*
X16257468Y-11250722D01*
X16257468Y-11250722D02*
X16257468Y-11269769D01*
X16257468Y-11269769D02*
X16162230Y-11288817D01*
X16333658Y-11345960D02*
X16352706Y-11355484D01*
X16352706Y-11355484D02*
X16390801Y-11355484D01*
X16390801Y-11355484D02*
X16409849Y-11345960D01*
X16409849Y-11345960D02*
X16419372Y-11326912D01*
X16419372Y-11326912D02*
X16419372Y-11317388D01*
X16419372Y-11317388D02*
X16409849Y-11298341D01*
X16409849Y-11298341D02*
X16390801Y-11288817D01*
X16390801Y-11288817D02*
X16362230Y-11288817D01*
X16362230Y-11288817D02*
X16343182Y-11279293D01*
X16343182Y-11279293D02*
X16333658Y-11260246D01*
X16333658Y-11260246D02*
X16333658Y-11250722D01*
X16333658Y-11250722D02*
X16343182Y-11231674D01*
X16343182Y-11231674D02*
X16362230Y-11222150D01*
X16362230Y-11222150D02*
X16390801Y-11222150D01*
X16390801Y-11222150D02*
X16409849Y-11231674D01*
X16486039Y-11431674D02*
X16495563Y-11422150D01*
X16495563Y-11422150D02*
X16514611Y-11393579D01*
X16514611Y-11393579D02*
X16524134Y-11374531D01*
X16524134Y-11374531D02*
X16533658Y-11345960D01*
X16533658Y-11345960D02*
X16543182Y-11298341D01*
X16543182Y-11298341D02*
X16543182Y-11260246D01*
X16543182Y-11260246D02*
X16533658Y-11212627D01*
X16533658Y-11212627D02*
X16524134Y-11184055D01*
X16524134Y-11184055D02*
X16514611Y-11165008D01*
X16514611Y-11165008D02*
X16495563Y-11136436D01*
X16495563Y-11136436D02*
X16486039Y-11126912D01*
M02*
