M48
; DRILL file {KiCad 9.0.2} date 2026-04-22T17:01:20-0500
; FORMAT={-:-/ absolute / metric / decimal}
; #@! TF.CreationDate,2026-04-22T17:01:20-05:00
; #@! TF.GenerationSoftware,Kicad,Pcbnew,9.0.2
; #@! TF.FileFunction,Plated,1,4,PTH
FMAT,2
METRIC
; #@! TA.AperFunction,Plated,PTH,ViaDrill
T1C0.300
; #@! TA.AperFunction,Plated,PTH,ComponentDrill
T2C1.000
%
G90
G05
T1
X119.62Y-100.15
X119.82Y-78.24
X119.82Y-82.19
X121.82Y-61.06
X122.175Y-73.775
X122.225Y-72.525
X123.4Y-88.775
X124.025Y-94.775
X125.1Y-83.1
X126.775Y-63.275
X128.36Y-76.23
X130.544Y-82.326
X130.625Y-85.45
X130.89Y-100.04
X130.9Y-88.675
X131.175Y-97.65
X131.85Y-62.275
X132.81Y-71.69
X134.787Y-78.025
X137.325Y-90.425
X138.338Y-87.425
X138.56Y-80.61
X139.475Y-95.95
X140.12Y-99.77
X140.87Y-76.49
X142.24Y-72.35
X142.3Y-80.74
X143.91Y-84.62
X143.97Y-89.35
X145.77Y-99.7
X147.425Y-76.75
X148.8Y-87.19
X149.225Y-81.675
X150.26Y-60.82
X151.145Y-70.2
X151.4Y-83.85
X153.3Y-78.025
X153.575Y-87.95
X155.05Y-96.425
X159.15Y-83.675
X160.71Y-79.35
X160.77Y-72.62
X161.65Y-85.875
X164.34Y-99.77
X165.9Y-88.06
X167.9Y-79.45
X167.91Y-99.96
X168.54Y-60.72
X168.59Y-72.62
X169.98Y-91.41
T2
X120.665Y-65.3
X120.665Y-67.84
X123.205Y-65.3
X123.205Y-67.84
X125.745Y-65.3
X125.745Y-67.84
X128.285Y-65.3
X128.285Y-67.84
X130.825Y-65.3
X130.825Y-67.84
X133.365Y-65.3
X133.365Y-67.84
X135.905Y-65.3
X135.905Y-67.84
X138.445Y-65.3
X138.445Y-67.84
X140.985Y-65.3
X140.985Y-67.84
X143.525Y-65.3
X143.525Y-67.84
X146.065Y-65.3
X146.065Y-67.84
X148.605Y-65.3
X148.605Y-67.84
X151.145Y-65.3
X151.145Y-67.84
X153.685Y-65.3
X153.685Y-67.84
X156.225Y-65.3
X156.225Y-67.84
X158.765Y-65.3
X158.765Y-67.84
X161.305Y-65.3
X161.305Y-67.84
X163.845Y-65.3
X163.845Y-67.84
X166.385Y-65.3
X166.385Y-67.84
X168.925Y-65.3
X168.925Y-67.84
M30
