%TF.GenerationSoftware,KiCad,Pcbnew,9.0.2*%
%TF.CreationDate,2026-02-03T00:17:24-06:00*%
%TF.ProjectId,conditioner,636f6e64-6974-4696-9f6e-65722e6b6963,rev?*%
%TF.SameCoordinates,Original*%
%TF.FileFunction,Copper,L1,Top*%
%TF.FilePolarity,Positive*%
%FSLAX46Y46*%
G04 Gerber Fmt 4.6, Leading zero omitted, Abs format (unit mm)*
G04 Created by KiCad (PCBNEW 9.0.2) date 2026-02-03 00:17:24*
%MOMM*%
%LPD*%
G01*
G04 APERTURE LIST*
G04 Aperture macros list*
%AMRoundRect*
0 Rectangle with rounded corners*
0 $1 Rounding radius*
0 $2 $3 $4 $5 $6 $7 $8 $9 X,Y pos of 4 corners*
0 Add a 4 corners polygon primitive as box body*
4,1,4,$2,$3,$4,$5,$6,$7,$8,$9,$2,$3,0*
0 Add four circle primitives for the rounded corners*
1,1,$1+$1,$2,$3*
1,1,$1+$1,$4,$5*
1,1,$1+$1,$6,$7*
1,1,$1+$1,$8,$9*
0 Add four rect primitives between the rounded corners*
20,1,$1+$1,$2,$3,$4,$5,0*
20,1,$1+$1,$4,$5,$6,$7,0*
20,1,$1+$1,$6,$7,$8,$9,0*
20,1,$1+$1,$8,$9,$2,$3,0*%
G04 Aperture macros list end*
%TA.AperFunction,SMDPad,CuDef*%
%ADD10RoundRect,0.250000X-0.400000X-0.625000X0.400000X-0.625000X0.400000X0.625000X-0.400000X0.625000X0*%
%TD*%
%TA.AperFunction,SMDPad,CuDef*%
%ADD11RoundRect,0.250000X-0.350000X-0.450000X0.350000X-0.450000X0.350000X0.450000X-0.350000X0.450000X0*%
%TD*%
%TA.AperFunction,ComponentPad*%
%ADD12R,1.700000X1.700000*%
%TD*%
%TA.AperFunction,ComponentPad*%
%ADD13C,1.700000*%
%TD*%
%TA.AperFunction,SMDPad,CuDef*%
%ADD14RoundRect,0.250000X-0.450000X0.350000X-0.450000X-0.350000X0.450000X-0.350000X0.450000X0.350000X0*%
%TD*%
%TA.AperFunction,SMDPad,CuDef*%
%ADD15RoundRect,0.150000X-0.825000X-0.150000X0.825000X-0.150000X0.825000X0.150000X-0.825000X0.150000X0*%
%TD*%
%TA.AperFunction,SMDPad,CuDef*%
%ADD16RoundRect,0.237500X-0.237500X0.250000X-0.237500X-0.250000X0.237500X-0.250000X0.237500X0.250000X0*%
%TD*%
%TA.AperFunction,SMDPad,CuDef*%
%ADD17RoundRect,0.250000X0.450000X-0.350000X0.450000X0.350000X-0.450000X0.350000X-0.450000X-0.350000X0*%
%TD*%
%TA.AperFunction,SMDPad,CuDef*%
%ADD18RoundRect,0.250000X0.337500X0.475000X-0.337500X0.475000X-0.337500X-0.475000X0.337500X-0.475000X0*%
%TD*%
%TA.AperFunction,SMDPad,CuDef*%
%ADD19RoundRect,0.250000X0.350000X0.450000X-0.350000X0.450000X-0.350000X-0.450000X0.350000X-0.450000X0*%
%TD*%
%TA.AperFunction,ViaPad*%
%ADD20C,0.600000*%
%TD*%
%TA.AperFunction,Conductor*%
%ADD21C,0.200000*%
%TD*%
%TA.AperFunction,Conductor*%
%ADD22C,0.500000*%
%TD*%
%TA.AperFunction,Conductor*%
%ADD23C,1.000000*%
%TD*%
G04 APERTURE END LIST*
D10*
%TO.P,R4,2*%
%TO.N,Net-(R4-Pad2)*%
X180600000Y-72875000D03*
%TO.P,R4,1*%
%TO.N,Net-(U1-+In_C)*%
X177550000Y-72875000D03*
%TD*%
D11*
%TO.P,R10,1*%
%TO.N,Net-(U1-+In_C)*%
X177700000Y-70750000D03*
%TO.P,R10,2*%
%TO.N,+12V*%
X179700000Y-70750000D03*
%TD*%
D12*
%TO.P,J2,1,Pin_1*%
%TO.N,/output*%
X182860000Y-61000000D03*
D13*
%TO.P,J2,2,Pin_2*%
%TO.N,unconnected-(J2-Pin_2-Pad2)*%
X182860000Y-63540000D03*
%TO.P,J2,3,Pin_3*%
%TO.N,unconnected-(J2-Pin_3-Pad3)*%
X182860000Y-66080000D03*
%TO.P,J2,4,Pin_4*%
%TO.N,unconnected-(J2-Pin_4-Pad4)*%
X182860000Y-68620000D03*
%TO.P,J2,5,Pin_5*%
%TO.N,unconnected-(J2-Pin_5-Pad5)*%
X182860000Y-71160000D03*
%TO.P,J2,6,Pin_6*%
%TO.N,unconnected-(J2-Pin_6-Pad6)*%
X182860000Y-73700000D03*
%TO.P,J2,7,Pin_7*%
%TO.N,unconnected-(J2-Pin_7-Pad7)*%
X182860000Y-76240000D03*
%TO.P,J2,8,Pin_8*%
%TO.N,unconnected-(J2-Pin_8-Pad8)*%
X182860000Y-78780000D03*
%TD*%
%TO.P,J1,8,Pin_8*%
%TO.N,unconnected-(J1-Pin_8-Pad8)*%
X160000000Y-78780000D03*
%TO.P,J1,7,Pin_7*%
%TO.N,/LC_S*%
X160000000Y-76240000D03*
%TO.P,J1,6,Pin_6*%
%TO.N,unconnected-(J1-Pin_6-Pad6)*%
X160000000Y-73700000D03*
%TO.P,J1,5,Pin_5*%
%TO.N,GND*%
X160000000Y-71160000D03*
%TO.P,J1,4,Pin_4*%
X160000000Y-68620000D03*
%TO.P,J1,3,Pin_3*%
%TO.N,+12V*%
X160000000Y-66080000D03*
%TO.P,J1,2,Pin_2*%
%TO.N,unconnected-(J1-Pin_2-Pad2)*%
X160000000Y-63540000D03*
D12*
%TO.P,J1,1,Pin_1*%
%TO.N,-12V*%
X160000000Y-61000000D03*
%TD*%
D14*
%TO.P,R12,2*%
%TO.N,/+In_D*%
X175500000Y-76325000D03*
%TO.P,R12,1*%
%TO.N,Net-(U1--In_C)*%
X175500000Y-74325000D03*
%TD*%
D15*
%TO.P,U1,8,Out_C*%
%TO.N,Net-(U1--In_C)*%
X175582500Y-72605000D03*
%TO.P,U1,14,Out_D*%
%TO.N,/output*%
X175582500Y-64985000D03*
%TO.P,U1,13,-In_D*%
%TO.N,Net-(U1--In_D)*%
X175582500Y-66255000D03*
%TO.P,U1,12,+In_D*%
%TO.N,/+In_D*%
X175582500Y-67525000D03*
%TO.P,U1,11,V-*%
%TO.N,-12V*%
X175582500Y-68795000D03*
%TO.P,U1,10,+In_C*%
%TO.N,Net-(U1-+In_C)*%
X175582500Y-70065000D03*
%TO.P,U1,9,-In_C*%
%TO.N,Net-(U1--In_C)*%
X175582500Y-71335000D03*
%TO.P,U1,7,Out_B*%
%TO.N,Net-(U1--In_B)*%
X170632500Y-72605000D03*
%TO.P,U1,6,-In_B*%
X170632500Y-71335000D03*
%TO.P,U1,5,+In_B*%
%TO.N,Net-(U1-+In_B)*%
X170632500Y-70065000D03*
%TO.P,U1,4,V+*%
%TO.N,+12V*%
X170632500Y-68795000D03*
%TO.P,U1,3,+In_A*%
%TO.N,Net-(U1-+In_A)*%
X170632500Y-67525000D03*
%TO.P,U1,2,-In_A*%
%TO.N,GND*%
X170632500Y-66255000D03*
%TO.P,U1,1,Out_A*%
%TO.N,Net-(U1-Out_A)*%
X170632500Y-64985000D03*
%TD*%
D14*
%TO.P,R2,2*%
%TO.N,/LC_S*%
X168150000Y-72650000D03*
%TO.P,R2,1*%
%TO.N,Net-(U1-+In_B)*%
X168150000Y-70650000D03*
%TD*%
D16*
%TO.P,R5,2*%
%TO.N,Net-(R5-Pad2)*%
X180325000Y-76600000D03*
%TO.P,R5,1*%
%TO.N,Net-(R4-Pad2)*%
X180325000Y-74775000D03*
%TD*%
D14*
%TO.P,R3,2*%
%TO.N,GND*%
X164225000Y-74675000D03*
%TO.P,R3,1*%
%TO.N,Net-(R1-Pad2)*%
X164225000Y-72675000D03*
%TD*%
D11*
%TO.P,R13,2*%
%TO.N,Net-(U1--In_D)*%
X178200000Y-63425000D03*
%TO.P,R13,1*%
%TO.N,/output*%
X176200000Y-63425000D03*
%TD*%
%TO.P,R7,2*%
%TO.N,Net-(U1-+In_A)*%
X168200000Y-66400000D03*
%TO.P,R7,1*%
%TO.N,+12V*%
X166200000Y-66400000D03*
%TD*%
D17*
%TO.P,R8,2*%
%TO.N,-12V*%
X165850000Y-62575000D03*
%TO.P,R8,1*%
%TO.N,Net-(U1-+In_A)*%
X165850000Y-64575000D03*
%TD*%
D16*
%TO.P,R6,2*%
%TO.N,GND*%
X178600000Y-76625000D03*
%TO.P,R6,1*%
%TO.N,Net-(R5-Pad2)*%
X178600000Y-74800000D03*
%TD*%
D11*
%TO.P,R9,1*%
%TO.N,GND*%
X167925000Y-63375000D03*
%TO.P,R9,2*%
%TO.N,Net-(U1-Out_A)*%
X169925000Y-63375000D03*
%TD*%
D17*
%TO.P,R11,2*%
%TO.N,Net-(U1--In_B)*%
X170625000Y-74300000D03*
%TO.P,R11,1*%
%TO.N,/+In_D*%
X170625000Y-76300000D03*
%TD*%
D18*
%TO.P,C2,2*%
%TO.N,-12V*%
X177662500Y-68800000D03*
%TO.P,C2,1*%
%TO.N,GND*%
X179737500Y-68800000D03*
%TD*%
D11*
%TO.P,R14,2*%
%TO.N,GND*%
X179675000Y-66300000D03*
%TO.P,R14,1*%
%TO.N,Net-(U1--In_D)*%
X177675000Y-66300000D03*
%TD*%
D19*
%TO.P,R1,2*%
%TO.N,Net-(R1-Pad2)*%
X164075000Y-70750000D03*
%TO.P,R1,1*%
%TO.N,Net-(U1-+In_B)*%
X166075000Y-70750000D03*
%TD*%
D18*
%TO.P,C1,2*%
%TO.N,GND*%
X166187500Y-68800000D03*
%TO.P,C1,1*%
%TO.N,+12V*%
X168262500Y-68800000D03*
%TD*%
D20*
%TO.N,GND*%
X180925000Y-62850000D03*
X180925000Y-64450000D03*
X178050000Y-60150000D03*
X167875000Y-60300000D03*
X181109000Y-69986540D03*
X168675000Y-76850000D03*
X178350000Y-80050000D03*
X177050000Y-74675000D03*
X166175000Y-73275000D03*
X162175000Y-67950000D03*
X162225000Y-71850000D03*
X163450000Y-67850000D03*
X167925000Y-64600000D03*
X168050000Y-62150000D03*
X172500000Y-67475000D03*
X172475000Y-65025000D03*
X172425000Y-66150000D03*
%TD*%
D21*
%TO.N,/+In_D*%
X180350000Y-67525000D02*
X175582500Y-67525000D01*
X181709000Y-78303240D02*
X181709000Y-68884000D01*
X176250000Y-76325000D02*
X179400000Y-79475000D01*
X181709000Y-68884000D02*
X180350000Y-67525000D01*
X175500000Y-76325000D02*
X176250000Y-76325000D01*
X180537240Y-79475000D02*
X181709000Y-78303240D01*
X179400000Y-79475000D02*
X180537240Y-79475000D01*
%TO.N,+12V*%
X180189840Y-71239840D02*
X179700000Y-70750000D01*
X180010160Y-71239840D02*
X180189840Y-71239840D01*
X179549000Y-71701000D02*
X180010160Y-71239840D01*
X179549000Y-75254634D02*
X179549000Y-71701000D01*
X179857866Y-75563500D02*
X179549000Y-75254634D01*
X180620340Y-75563500D02*
X179857866Y-75563500D01*
X181175000Y-76118160D02*
X180620340Y-75563500D01*
X181175000Y-77186160D02*
X181175000Y-76118160D01*
X180947660Y-77413500D02*
X181175000Y-77186160D01*
X178132866Y-77413500D02*
X180947660Y-77413500D01*
X177824000Y-77062840D02*
X177824000Y-77104634D01*
X174350000Y-75325000D02*
X176086160Y-75325000D01*
X177824000Y-77104634D02*
X178132866Y-77413500D01*
X173175000Y-74150000D02*
X174350000Y-75325000D01*
X172770000Y-68795000D02*
X173175000Y-69200000D01*
X170632500Y-68795000D02*
X172770000Y-68795000D01*
X173175000Y-69200000D02*
X173175000Y-74150000D01*
X176086160Y-75325000D02*
X177824000Y-77062840D01*
%TO.N,Net-(R4-Pad2)*%
X180825000Y-74275000D02*
X180325000Y-74775000D01*
X180825000Y-72850000D02*
X180825000Y-74275000D01*
%TO.N,Net-(R5-Pad2)*%
X178600000Y-74875000D02*
X178600000Y-74800000D01*
X180325000Y-76600000D02*
X178600000Y-74875000D01*
D22*
%TO.N,/output*%
X178625000Y-61000000D02*
X182860000Y-61000000D01*
D21*
%TO.N,/+In_D*%
X175475000Y-76300000D02*
X175500000Y-76325000D01*
X170625000Y-76300000D02*
X175475000Y-76300000D01*
%TO.N,Net-(U1-+In_A)*%
X165850000Y-64575000D02*
X166375000Y-64575000D01*
X166375000Y-64575000D02*
X168200000Y-66400000D01*
%TO.N,+12V*%
X165337900Y-66080000D02*
X165928950Y-66671050D01*
X160000000Y-66080000D02*
X165337900Y-66080000D01*
%TO.N,-12V*%
X164275000Y-61000000D02*
X165850000Y-62575000D01*
X160000000Y-61000000D02*
X164275000Y-61000000D01*
D22*
%TO.N,/LC_S*%
X168150000Y-75100000D02*
X167010000Y-76240000D01*
X167010000Y-76240000D02*
X160000000Y-76240000D01*
X168150000Y-72650000D02*
X168150000Y-75100000D01*
%TO.N,/output*%
X178625000Y-61000000D02*
X176200000Y-63425000D01*
D21*
%TO.N,-12V*%
X173745000Y-68795000D02*
X175582500Y-68795000D01*
X173500000Y-68550000D02*
X173745000Y-68795000D01*
X167250000Y-61175000D02*
X170600000Y-61175000D01*
X165850000Y-62575000D02*
X167250000Y-61175000D01*
X170600000Y-61175000D02*
X173500000Y-64075000D01*
X173500000Y-64075000D02*
X173500000Y-68550000D01*
X166051000Y-62374000D02*
X166275000Y-62150000D01*
X166051000Y-62374000D02*
X166125000Y-62300000D01*
X165850000Y-62575000D02*
X166051000Y-62374000D01*
%TO.N,Net-(R1-Pad2)*%
X164075000Y-72525000D02*
X164225000Y-72675000D01*
D23*
X164075000Y-70750000D02*
X164075000Y-72525000D01*
D21*
%TO.N,Net-(U1-+In_B)*%
X168025000Y-70650000D02*
X167925000Y-70750000D01*
X168150000Y-70650000D02*
X168025000Y-70650000D01*
D23*
X167925000Y-70750000D02*
X166075000Y-70750000D01*
D21*
%TO.N,Net-(U1--In_D)*%
X178200000Y-65735000D02*
X177680000Y-66255000D01*
X178200000Y-63425000D02*
X178200000Y-65735000D01*
%TO.N,/+In_D*%
X174607501Y-67525000D02*
X175582500Y-67525000D01*
%TO.N,+12V*%
X168262500Y-68800000D02*
X170627500Y-68800000D01*
X170627500Y-68800000D02*
X170632500Y-68795000D01*
X168150000Y-68800000D02*
X166200000Y-66850000D01*
X168262500Y-68800000D02*
X168150000Y-68800000D01*
X166200000Y-66850000D02*
X166200000Y-66776000D01*
%TO.N,Net-(U1-+In_A)*%
X169325000Y-67525000D02*
X170632500Y-67525000D01*
X168200000Y-66400000D02*
X169325000Y-67525000D01*
X166200000Y-64925000D02*
X165850000Y-64575000D01*
%TO.N,Net-(U1-+In_B)*%
X165825000Y-71375000D02*
X165925000Y-71275000D01*
X170047500Y-70650000D02*
X170632500Y-70065000D01*
X168150000Y-70650000D02*
X170047500Y-70650000D01*
%TO.N,Net-(U1-Out_A)*%
X169925000Y-64277500D02*
X170632500Y-64985000D01*
X169925000Y-63375000D02*
X169925000Y-64277500D01*
D22*
%TO.N,Net-(U1-+In_C)*%
X177015000Y-70065000D02*
X175582500Y-70065000D01*
D23*
X177725000Y-72850000D02*
X177725000Y-70775000D01*
D21*
X177725000Y-70775000D02*
X177700000Y-70750000D01*
D22*
X177015000Y-70065000D02*
X177700000Y-70750000D01*
D21*
%TO.N,-12V*%
X177657500Y-68795000D02*
X177662500Y-68800000D01*
D23*
X175582500Y-68795000D02*
X177657500Y-68795000D01*
D21*
%TO.N,Net-(U1--In_D)*%
X177680000Y-66255000D02*
X177725000Y-66300000D01*
D23*
X175582500Y-66255000D02*
X177680000Y-66255000D01*
D21*
X175677500Y-66350000D02*
X175582500Y-66255000D01*
%TD*%
%TA.AperFunction,Conductor*%
%TO.N,Net-(U1--In_B)*%
G36*
X171527646Y-71044685D02*
G01*
X171567337Y-71085877D01*
X171583660Y-71113478D01*
X171595998Y-71141985D01*
X171597573Y-71147404D01*
X171602500Y-71182012D01*
X171602500Y-71487986D01*
X171597575Y-71522585D01*
X171596001Y-71528002D01*
X171583658Y-71556524D01*
X171542359Y-71626355D01*
X171540543Y-71629428D01*
X171531284Y-71643315D01*
X171529118Y-71648835D01*
X171527074Y-71652304D01*
X171526348Y-71653435D01*
X171526007Y-71654115D01*
X171526002Y-71654125D01*
X171477886Y-71750313D01*
X171447373Y-71890922D01*
X171447372Y-71890931D01*
X171442980Y-71952785D01*
X171442859Y-71953676D01*
X171442423Y-71960621D01*
X171452762Y-72104126D01*
X171452763Y-72104131D01*
X171497257Y-72223235D01*
X171497259Y-72223240D01*
X171499999Y-72230577D01*
X171500269Y-72231721D01*
X171500728Y-72232530D01*
X171503108Y-72238900D01*
X171503112Y-72238909D01*
X171517565Y-72265344D01*
X171519766Y-72275437D01*
X171540475Y-72310454D01*
X171540475Y-72310455D01*
X171540531Y-72310550D01*
X171583657Y-72383472D01*
X171595998Y-72411985D01*
X171597573Y-72417404D01*
X171602500Y-72452012D01*
X171602500Y-72757986D01*
X171597573Y-72792594D01*
X171595998Y-72798013D01*
X171583656Y-72826528D01*
X171580952Y-72831100D01*
X171561902Y-72855658D01*
X171558159Y-72859401D01*
X171533601Y-72878451D01*
X171476228Y-72912382D01*
X171386177Y-72980247D01*
X171386176Y-72980249D01*
X171346254Y-73018010D01*
X171273497Y-73104133D01*
X171211314Y-73233879D01*
X171193538Y-73290513D01*
X171191022Y-73296654D01*
X171167279Y-73442558D01*
X171167279Y-73442560D01*
X171185114Y-73585332D01*
X171199555Y-73638113D01*
X171199558Y-73638119D01*
X171203553Y-73652720D01*
X171203554Y-73652725D01*
X171260891Y-73784687D01*
X171294575Y-73839297D01*
X171297531Y-73845556D01*
X171297999Y-73848540D01*
X171303114Y-73859509D01*
X171313470Y-73890762D01*
X171319121Y-73917150D01*
X171319356Y-73919448D01*
X171319999Y-73932063D01*
X171319999Y-74667933D01*
X171319356Y-74680542D01*
X171319121Y-74682841D01*
X171313470Y-74709236D01*
X171303113Y-74740491D01*
X171290946Y-74766583D01*
X171276096Y-74790659D01*
X171258239Y-74813243D01*
X171216615Y-74854867D01*
X171216598Y-74854886D01*
X171148806Y-74939009D01*
X171148796Y-74939023D01*
X171146218Y-74943035D01*
X171093416Y-74988792D01*
X171041900Y-75000000D01*
X170204102Y-75000000D01*
X170202740Y-74999600D01*
X170201371Y-74999970D01*
X170169308Y-74989783D01*
X170137063Y-74980315D01*
X170135696Y-74979104D01*
X170134782Y-74978814D01*
X170126882Y-74971295D01*
X170108624Y-74955119D01*
X170106654Y-74952742D01*
X170033393Y-74854877D01*
X169987660Y-74809144D01*
X169983961Y-74804680D01*
X169982734Y-74801830D01*
X169973905Y-74790664D01*
X169959049Y-74766579D01*
X169946885Y-74740492D01*
X169940540Y-74721345D01*
X169936527Y-74709233D01*
X169930873Y-74682799D01*
X169930636Y-74680483D01*
X169930000Y-74667934D01*
X169930000Y-73932057D01*
X169930639Y-73919489D01*
X169930872Y-73917202D01*
X169936528Y-73890763D01*
X169936529Y-73890762D01*
X169945773Y-73862865D01*
X169946888Y-73859501D01*
X169959056Y-73833409D01*
X169993116Y-73778190D01*
X170041236Y-73676223D01*
X170059005Y-73624206D01*
X170083325Y-73514114D01*
X170077984Y-73370333D01*
X170072661Y-73341071D01*
X170065481Y-73301597D01*
X170065480Y-73301591D01*
X170019849Y-73165141D01*
X170008969Y-73149519D01*
X169937622Y-73047072D01*
X169889934Y-72995998D01*
X169889932Y-72995997D01*
X169777773Y-72905877D01*
X169710879Y-72866317D01*
X169663196Y-72815248D01*
X169650000Y-72759585D01*
X169650000Y-71374500D01*
X169652550Y-71365814D01*
X169651262Y-71356853D01*
X169662240Y-71332812D01*
X169669685Y-71307461D01*
X169676525Y-71301533D01*
X169680287Y-71293297D01*
X169702521Y-71279007D01*
X169722489Y-71261706D01*
X169733003Y-71259418D01*
X169739065Y-71255523D01*
X169774000Y-71250500D01*
X169960831Y-71250500D01*
X169960847Y-71250501D01*
X169968443Y-71250501D01*
X170126554Y-71250501D01*
X170126557Y-71250501D01*
X170279285Y-71209577D01*
X170329404Y-71180639D01*
X170416216Y-71130520D01*
X170485418Y-71061317D01*
X170546739Y-71027834D01*
X170573098Y-71025000D01*
X171460607Y-71025000D01*
X171527646Y-71044685D01*
G37*
%TD.AperFunction*%
%TD*%
%TA.AperFunction,Conductor*%
%TO.N,Net-(U1--In_C)*%
G36*
X176518039Y-71044685D02*
G01*
X176563794Y-71097489D01*
X176575000Y-71149000D01*
X176575000Y-71717462D01*
X176556539Y-71782558D01*
X176465189Y-71930659D01*
X176465185Y-71930668D01*
X176444382Y-71993447D01*
X176410001Y-72097203D01*
X176410001Y-72097204D01*
X176410000Y-72097204D01*
X176399500Y-72199983D01*
X176399500Y-73550001D01*
X176399501Y-73550018D01*
X176410000Y-73652796D01*
X176410001Y-73652800D01*
X176433783Y-73724568D01*
X176434467Y-73744468D01*
X176440077Y-73763574D01*
X176435644Y-73778670D01*
X176436185Y-73794397D01*
X176426000Y-73811510D01*
X176420391Y-73830613D01*
X176402003Y-73851833D01*
X176400453Y-73854439D01*
X176397283Y-73857281D01*
X176394889Y-73859357D01*
X176391662Y-73862058D01*
X176390668Y-73862861D01*
X176389983Y-73863501D01*
X176389887Y-73863587D01*
X176389764Y-73863715D01*
X176389149Y-73864330D01*
X176388355Y-73865246D01*
X176385536Y-73868386D01*
X176382727Y-73871411D01*
X176382719Y-73871415D01*
X176343086Y-73914103D01*
X176335279Y-73925380D01*
X176327043Y-73935997D01*
X176294953Y-73973028D01*
X176294950Y-73973033D01*
X176285289Y-73994182D01*
X176274457Y-74013233D01*
X176261217Y-74032358D01*
X176245800Y-74078881D01*
X176241391Y-74090273D01*
X176241153Y-74090807D01*
X176235171Y-74103904D01*
X176234867Y-74104936D01*
X176234867Y-74104938D01*
X176218776Y-74159721D01*
X176218759Y-74159793D01*
X176217604Y-74163729D01*
X176216337Y-74167787D01*
X176215957Y-74168934D01*
X176215724Y-74169851D01*
X176215694Y-74169957D01*
X176215666Y-74170103D01*
X176215476Y-74170974D01*
X176215475Y-74170983D01*
X176215302Y-74172182D01*
X176214632Y-74176331D01*
X176205699Y-74226222D01*
X176204639Y-74246343D01*
X176194999Y-74313395D01*
X176194999Y-74600499D01*
X176192448Y-74609184D01*
X176193737Y-74618144D01*
X176182759Y-74642183D01*
X176175314Y-74667538D01*
X176168473Y-74673465D01*
X176164713Y-74681700D01*
X176142478Y-74695989D01*
X176122510Y-74713293D01*
X176111998Y-74715579D01*
X176105936Y-74719476D01*
X176071004Y-74724498D01*
X176071001Y-74724499D01*
X176007103Y-74724499D01*
X176007099Y-74724499D01*
X175999493Y-74724500D01*
X175999492Y-74724499D01*
X175999491Y-74724500D01*
X174752804Y-74724500D01*
X174685765Y-74704815D01*
X174640010Y-74652011D01*
X174630066Y-74582853D01*
X174659091Y-74519297D01*
X174659092Y-74519297D01*
X174695321Y-74477486D01*
X174705067Y-74466239D01*
X174764838Y-74335362D01*
X174784523Y-74268323D01*
X174784524Y-74268319D01*
X174805000Y-74125903D01*
X174805000Y-73957058D01*
X174805637Y-73944501D01*
X174805872Y-73942200D01*
X174811525Y-73915771D01*
X174821887Y-73884501D01*
X174834047Y-73858424D01*
X174887528Y-73771719D01*
X174887526Y-73771718D01*
X174901216Y-73749525D01*
X174901449Y-73745134D01*
X174911678Y-73723191D01*
X174929332Y-73693341D01*
X174955977Y-73628752D01*
X174991358Y-73489293D01*
X174986017Y-73345512D01*
X174973700Y-73277801D01*
X174973532Y-73276827D01*
X174973513Y-73276770D01*
X174973513Y-73276768D01*
X174927880Y-73140316D01*
X174845652Y-73022248D01*
X174797970Y-72971181D01*
X174685810Y-72881062D01*
X174681396Y-72878451D01*
X174656856Y-72859417D01*
X174653103Y-72855665D01*
X174634046Y-72831100D01*
X174631337Y-72826520D01*
X174618994Y-72797990D01*
X174617417Y-72792564D01*
X174612500Y-72757991D01*
X174612500Y-72452007D01*
X174617418Y-72417431D01*
X174618992Y-72412010D01*
X174631335Y-72383481D01*
X174672769Y-72313420D01*
X174676330Y-72307757D01*
X174683717Y-72296682D01*
X174686797Y-72290782D01*
X174686846Y-72290807D01*
X174687360Y-72289732D01*
X174687129Y-72289616D01*
X174737001Y-72189987D01*
X174737001Y-72189986D01*
X174737002Y-72189985D01*
X174767585Y-72049393D01*
X174772569Y-71979701D01*
X174772569Y-71979699D01*
X174762304Y-71836186D01*
X174714969Y-71709281D01*
X174714737Y-71708295D01*
X174714342Y-71707601D01*
X174712021Y-71701377D01*
X174697405Y-71674611D01*
X174695211Y-71664524D01*
X174631340Y-71556524D01*
X174618994Y-71527991D01*
X174617422Y-71522579D01*
X174612500Y-71487991D01*
X174612500Y-71182007D01*
X174617418Y-71147431D01*
X174618992Y-71142010D01*
X174631337Y-71113477D01*
X174647661Y-71085875D01*
X174698730Y-71038195D01*
X174754391Y-71025000D01*
X176451000Y-71025000D01*
X176518039Y-71044685D01*
G37*
%TD.AperFunction*%
%TD*%
%TA.AperFunction,Conductor*%
%TO.N,/output*%
G36*
X176768039Y-62744685D02*
G01*
X176813794Y-62797489D01*
X176825000Y-62849000D01*
X176825000Y-63902041D01*
X176805315Y-63969080D01*
X176775314Y-64001306D01*
X176754883Y-64016601D01*
X176754871Y-64016611D01*
X176681713Y-64089769D01*
X176681706Y-64089777D01*
X176604779Y-64188659D01*
X176604777Y-64188661D01*
X176573590Y-64241054D01*
X176573587Y-64241060D01*
X176523341Y-64355822D01*
X176502459Y-64498182D01*
X176502260Y-64568033D01*
X176502261Y-64568049D01*
X176522331Y-64710520D01*
X176522332Y-64710527D01*
X176538148Y-64764962D01*
X176546453Y-64793549D01*
X176547576Y-64797412D01*
X176552500Y-64832008D01*
X176552500Y-64984358D01*
X176569801Y-65114111D01*
X176559150Y-65183164D01*
X176512856Y-65235497D01*
X176446889Y-65254500D01*
X175483957Y-65254500D01*
X175290671Y-65292947D01*
X175290663Y-65292949D01*
X175236074Y-65315561D01*
X175188622Y-65325000D01*
X174724000Y-65325000D01*
X174656961Y-65305315D01*
X174611206Y-65252511D01*
X174600000Y-65201000D01*
X174600000Y-64832001D01*
X174601286Y-64827620D01*
X174600316Y-64823161D01*
X174611039Y-64794404D01*
X174619685Y-64764962D01*
X174623578Y-64760779D01*
X174624729Y-64757695D01*
X174649679Y-64732742D01*
X174659812Y-64725156D01*
X174670976Y-64717708D01*
X174685979Y-64708836D01*
X174714512Y-64696491D01*
X174719933Y-64694916D01*
X174754506Y-64690000D01*
X174990206Y-64690000D01*
X174990207Y-64690000D01*
X175035372Y-64687978D01*
X175057444Y-64685998D01*
X175057456Y-64685996D01*
X175057467Y-64685995D01*
X175102258Y-64679948D01*
X175102260Y-64679947D01*
X175238744Y-64634452D01*
X175238743Y-64634452D01*
X175238753Y-64634449D01*
X175255651Y-64625981D01*
X175301219Y-64603146D01*
X175353071Y-64567109D01*
X175419369Y-64521033D01*
X175509598Y-64408961D01*
X175529670Y-64375097D01*
X175543555Y-64351671D01*
X175544648Y-64349932D01*
X175545212Y-64348873D01*
X175545223Y-64348856D01*
X175545225Y-64348853D01*
X175600224Y-64215900D01*
X175615539Y-64072837D01*
X175613512Y-64016805D01*
X175613211Y-64016815D01*
X175610456Y-63976672D01*
X175612883Y-63976425D01*
X175605431Y-63903482D01*
X175605291Y-63901432D01*
X175605406Y-63900910D01*
X175605000Y-63892939D01*
X175605000Y-62957058D01*
X175605637Y-62944501D01*
X175605872Y-62942200D01*
X175611525Y-62915771D01*
X175621887Y-62884501D01*
X175634053Y-62858413D01*
X175648904Y-62834336D01*
X175666757Y-62811756D01*
X175686758Y-62791755D01*
X175709330Y-62773907D01*
X175733418Y-62759049D01*
X175759499Y-62746887D01*
X175790766Y-62736526D01*
X175817196Y-62730873D01*
X175819515Y-62730636D01*
X175832063Y-62730000D01*
X176287770Y-62730000D01*
X176294260Y-62729651D01*
X176341808Y-62727103D01*
X176354755Y-62725710D01*
X176368012Y-62725000D01*
X176701000Y-62725000D01*
X176768039Y-62744685D01*
G37*
%TD.AperFunction*%
%TD*%
%TA.AperFunction,Conductor*%
%TO.N,GND*%
G36*
X169442774Y-73295045D02*
G01*
X169520458Y-73340987D01*
X169568141Y-73392056D01*
X169580645Y-73460798D01*
X169562876Y-73512815D01*
X169490189Y-73630659D01*
X169490186Y-73630666D01*
X169435001Y-73797203D01*
X169435001Y-73797204D01*
X169435000Y-73797204D01*
X169424500Y-73899983D01*
X169424500Y-74700001D01*
X169424501Y-74700019D01*
X169435000Y-74802796D01*
X169435001Y-74802799D01*
X169490185Y-74969331D01*
X169490187Y-74969336D01*
X169515078Y-75009691D01*
X169570279Y-75099187D01*
X169582289Y-75118657D01*
X169675951Y-75212319D01*
X169709436Y-75273642D01*
X169704452Y-75343334D01*
X169675951Y-75387681D01*
X169582289Y-75481342D01*
X169490187Y-75630663D01*
X169490185Y-75630668D01*
X169469294Y-75693713D01*
X169435001Y-75797203D01*
X169435001Y-75797204D01*
X169435000Y-75797204D01*
X169424500Y-75899983D01*
X169424500Y-76700001D01*
X169424501Y-76700019D01*
X169435000Y-76802796D01*
X169435001Y-76802799D01*
X169490185Y-76969331D01*
X169490187Y-76969336D01*
X169511680Y-77004181D01*
X169582288Y-77118656D01*
X169706344Y-77242712D01*
X169855666Y-77334814D01*
X170022203Y-77389999D01*
X170124991Y-77400500D01*
X171125008Y-77400499D01*
X171125016Y-77400498D01*
X171125019Y-77400498D01*
X171181302Y-77394748D01*
X171227797Y-77389999D01*
X171394334Y-77334814D01*
X171543656Y-77242712D01*
X171667712Y-77118656D01*
X171759814Y-76969334D01*
X171759815Y-76969331D01*
X171763605Y-76963187D01*
X171765399Y-76964293D01*
X171804687Y-76919663D01*
X171870908Y-76900500D01*
X174244551Y-76900500D01*
X174311590Y-76920185D01*
X174357345Y-76972989D01*
X174362256Y-76985493D01*
X174363915Y-76990500D01*
X174365186Y-76994334D01*
X174457288Y-77143656D01*
X174581344Y-77267712D01*
X174730666Y-77359814D01*
X174897203Y-77414999D01*
X174999991Y-77425500D01*
X176000008Y-77425499D01*
X176000016Y-77425498D01*
X176000019Y-77425498D01*
X176056302Y-77419748D01*
X176102797Y-77414999D01*
X176269334Y-77359814D01*
X176288708Y-77347863D01*
X176356099Y-77329423D01*
X176422763Y-77350345D01*
X176441485Y-77365720D01*
X179031284Y-79955520D01*
X179031286Y-79955521D01*
X179031290Y-79955524D01*
X179162982Y-80031555D01*
X179168216Y-80034577D01*
X179320943Y-80075501D01*
X179320945Y-80075501D01*
X179486654Y-80075501D01*
X179486670Y-80075500D01*
X180450571Y-80075500D01*
X180450587Y-80075501D01*
X180458183Y-80075501D01*
X180616294Y-80075501D01*
X180616297Y-80075501D01*
X180769025Y-80034577D01*
X180819144Y-80005639D01*
X180905956Y-79955520D01*
X181017760Y-79843716D01*
X181017760Y-79843714D01*
X181027968Y-79833507D01*
X181027970Y-79833504D01*
X181472444Y-79389029D01*
X181533765Y-79355546D01*
X181603457Y-79360530D01*
X181659390Y-79402402D01*
X181670608Y-79420418D01*
X181704949Y-79487817D01*
X181829890Y-79659786D01*
X181980213Y-79810109D01*
X182152179Y-79935048D01*
X182152181Y-79935049D01*
X182152184Y-79935051D01*
X182341588Y-80031557D01*
X182543757Y-80097246D01*
X182753713Y-80130500D01*
X182753714Y-80130500D01*
X182966286Y-80130500D01*
X182966287Y-80130500D01*
X183176243Y-80097246D01*
X183378412Y-80031557D01*
X183567816Y-79935051D01*
X183693533Y-79843713D01*
X183739786Y-79810109D01*
X183739788Y-79810106D01*
X183739792Y-79810104D01*
X183890104Y-79659792D01*
X183890106Y-79659788D01*
X183890109Y-79659786D01*
X183948661Y-79579193D01*
X184015051Y-79487816D01*
X184015054Y-79487810D01*
X184017596Y-79483664D01*
X184018487Y-79484210D01*
X184062986Y-79437092D01*
X184130806Y-79420295D01*
X184196942Y-79442830D01*
X184240395Y-79497544D01*
X184249500Y-79544181D01*
X184249500Y-80575500D01*
X184229815Y-80642539D01*
X184177011Y-80688294D01*
X184125500Y-80699500D01*
X158724500Y-80699500D01*
X158657461Y-80679815D01*
X158611706Y-80627011D01*
X158600500Y-80575500D01*
X158600500Y-79524555D01*
X158620185Y-79457516D01*
X158672989Y-79411761D01*
X158742147Y-79401817D01*
X158805703Y-79430842D01*
X158834985Y-79468261D01*
X158844949Y-79487817D01*
X158969890Y-79659786D01*
X159120213Y-79810109D01*
X159292179Y-79935048D01*
X159292181Y-79935049D01*
X159292184Y-79935051D01*
X159481588Y-80031557D01*
X159683757Y-80097246D01*
X159893713Y-80130500D01*
X159893714Y-80130500D01*
X160106286Y-80130500D01*
X160106287Y-80130500D01*
X160316243Y-80097246D01*
X160518412Y-80031557D01*
X160707816Y-79935051D01*
X160833533Y-79843713D01*
X160879786Y-79810109D01*
X160879788Y-79810106D01*
X160879792Y-79810104D01*
X161030104Y-79659792D01*
X161030106Y-79659788D01*
X161030109Y-79659786D01*
X161155048Y-79487820D01*
X161155050Y-79487817D01*
X161155051Y-79487816D01*
X161251557Y-79298412D01*
X161317246Y-79096243D01*
X161350500Y-78886287D01*
X161350500Y-78673713D01*
X161317246Y-78463757D01*
X161251557Y-78261588D01*
X161155051Y-78072184D01*
X161155049Y-78072181D01*
X161155048Y-78072179D01*
X161030109Y-77900213D01*
X160879786Y-77749890D01*
X160707820Y-77624951D01*
X160707115Y-77624591D01*
X160699054Y-77620485D01*
X160648259Y-77572512D01*
X160631463Y-77504692D01*
X160653999Y-77438556D01*
X160699054Y-77399515D01*
X160707816Y-77395051D01*
X160790726Y-77334814D01*
X160879786Y-77270109D01*
X160879788Y-77270106D01*
X160879792Y-77270104D01*
X161030104Y-77119792D01*
X161030929Y-77118656D01*
X161086903Y-77041615D01*
X161142233Y-76998949D01*
X161187221Y-76990500D01*
X167083920Y-76990500D01*
X167221226Y-76963187D01*
X167228913Y-76961658D01*
X167365495Y-76905084D01*
X167414729Y-76872186D01*
X167415366Y-76871761D01*
X167439071Y-76855921D01*
X167488416Y-76822952D01*
X168732951Y-75578416D01*
X168815084Y-75455495D01*
X168816043Y-75453181D01*
X168843173Y-75387681D01*
X168871658Y-75318913D01*
X168879806Y-75277949D01*
X168900500Y-75173918D01*
X168900500Y-73765638D01*
X168920185Y-73698599D01*
X168959401Y-73660100D01*
X169068656Y-73592712D01*
X169192712Y-73468656D01*
X169274114Y-73336680D01*
X169326062Y-73289956D01*
X169395024Y-73278733D01*
X169442774Y-73295045D01*
G37*
%TD.AperFunction*%
%TA.AperFunction,Conductor*%
G36*
X176838405Y-74191199D02*
G01*
X176842146Y-74190662D01*
X176863488Y-74195690D01*
X176997203Y-74239999D01*
X177099991Y-74250500D01*
X177513421Y-74250499D01*
X177580460Y-74270183D01*
X177626215Y-74322987D01*
X177636159Y-74392146D01*
X177634860Y-74399410D01*
X177624500Y-74500815D01*
X177624500Y-75099169D01*
X177624501Y-75099187D01*
X177634825Y-75200252D01*
X177659145Y-75273642D01*
X177689092Y-75364016D01*
X177779660Y-75510850D01*
X177901650Y-75632840D01*
X178048484Y-75723408D01*
X178212247Y-75777674D01*
X178313323Y-75788000D01*
X178612402Y-75787999D01*
X178679441Y-75807683D01*
X178700083Y-75824318D01*
X179313181Y-76437416D01*
X179327884Y-76464344D01*
X179344477Y-76490161D01*
X179345368Y-76496363D01*
X179346666Y-76498739D01*
X179349500Y-76525096D01*
X179349501Y-76688999D01*
X179329817Y-76756039D01*
X179277013Y-76801794D01*
X179225501Y-76813000D01*
X178444744Y-76813000D01*
X178377705Y-76793315D01*
X178337356Y-76750999D01*
X178304521Y-76694125D01*
X178188385Y-76577989D01*
X178188374Y-76577979D01*
X176681409Y-75071014D01*
X176647924Y-75009691D01*
X176651384Y-74944329D01*
X176663591Y-74907491D01*
X176689999Y-74827797D01*
X176700500Y-74725009D01*
X176700499Y-74313398D01*
X176708522Y-74286074D01*
X176713542Y-74258041D01*
X176718238Y-74252983D01*
X176720183Y-74246361D01*
X176741703Y-74227713D01*
X176761085Y-74206841D01*
X176767771Y-74205124D01*
X176772987Y-74200606D01*
X176801172Y-74196553D01*
X176828762Y-74189473D01*
X176838405Y-74191199D01*
G37*
%TD.AperFunction*%
%TA.AperFunction,Conductor*%
G36*
X165042540Y-66700185D02*
G01*
X165088295Y-66752989D01*
X165099501Y-66804500D01*
X165099501Y-66900019D01*
X165110000Y-67002796D01*
X165110001Y-67002799D01*
X165147050Y-67114603D01*
X165165186Y-67169334D01*
X165257288Y-67318656D01*
X165381344Y-67442712D01*
X165530666Y-67534814D01*
X165697203Y-67589999D01*
X165799991Y-67600500D01*
X166049902Y-67600499D01*
X166116941Y-67620183D01*
X166137583Y-67636818D01*
X167138181Y-68637416D01*
X167171666Y-68698739D01*
X167174500Y-68725097D01*
X167174500Y-69325001D01*
X167174501Y-69325019D01*
X167185000Y-69427796D01*
X167185001Y-69427799D01*
X167198319Y-69467989D01*
X167236304Y-69582620D01*
X167237589Y-69586496D01*
X167238568Y-69614960D01*
X167242621Y-69643147D01*
X167239753Y-69649425D01*
X167239991Y-69656324D01*
X167225427Y-69680795D01*
X167213596Y-69706703D01*
X167207788Y-69710435D01*
X167204259Y-69716366D01*
X167178776Y-69729079D01*
X167154818Y-69744477D01*
X167145122Y-69745871D01*
X167141739Y-69747559D01*
X167119883Y-69749500D01*
X166987230Y-69749500D01*
X166920191Y-69729815D01*
X166899549Y-69713181D01*
X166893657Y-69707289D01*
X166893656Y-69707288D01*
X166744334Y-69615186D01*
X166577797Y-69560001D01*
X166577795Y-69560000D01*
X166475010Y-69549500D01*
X165674998Y-69549500D01*
X165674980Y-69549501D01*
X165572203Y-69560000D01*
X165572200Y-69560001D01*
X165405668Y-69615185D01*
X165405663Y-69615187D01*
X165256342Y-69707289D01*
X165162681Y-69800951D01*
X165101358Y-69834436D01*
X165031666Y-69829452D01*
X164987319Y-69800951D01*
X164893657Y-69707289D01*
X164893656Y-69707288D01*
X164744334Y-69615186D01*
X164577797Y-69560001D01*
X164577795Y-69560000D01*
X164475010Y-69549500D01*
X163674998Y-69549500D01*
X163674980Y-69549501D01*
X163572203Y-69560000D01*
X163572200Y-69560001D01*
X163405668Y-69615185D01*
X163405663Y-69615187D01*
X163256342Y-69707289D01*
X163132289Y-69831342D01*
X163040187Y-69980663D01*
X163040185Y-69980668D01*
X163012349Y-70064670D01*
X162985001Y-70147203D01*
X162985001Y-70147204D01*
X162985000Y-70147204D01*
X162974500Y-70249983D01*
X162974500Y-71250001D01*
X162974501Y-71250019D01*
X162985000Y-71352796D01*
X162985001Y-71352799D01*
X163025907Y-71476243D01*
X163040186Y-71519334D01*
X163056039Y-71545036D01*
X163074500Y-71610132D01*
X163074500Y-72032993D01*
X163068206Y-72071997D01*
X163035001Y-72172203D01*
X163035000Y-72172204D01*
X163024500Y-72274983D01*
X163024500Y-73075001D01*
X163024501Y-73075019D01*
X163035000Y-73177796D01*
X163035001Y-73177799D01*
X163090185Y-73344331D01*
X163090187Y-73344336D01*
X163104311Y-73367235D01*
X163182288Y-73493656D01*
X163306344Y-73617712D01*
X163455666Y-73709814D01*
X163622203Y-73764999D01*
X163724991Y-73775500D01*
X164725008Y-73775499D01*
X164725016Y-73775498D01*
X164725019Y-73775498D01*
X164781302Y-73769748D01*
X164827797Y-73764999D01*
X164994334Y-73709814D01*
X165143656Y-73617712D01*
X165267712Y-73493656D01*
X165359814Y-73344334D01*
X165414999Y-73177797D01*
X165425500Y-73075009D01*
X165425499Y-72274992D01*
X165417287Y-72194606D01*
X165414999Y-72172203D01*
X165414998Y-72172200D01*
X165386836Y-72087213D01*
X165386667Y-72082309D01*
X165384192Y-72078073D01*
X165385477Y-72047734D01*
X165384434Y-72017385D01*
X165386943Y-72013168D01*
X165387151Y-72008266D01*
X165404638Y-71983434D01*
X165420166Y-71957343D01*
X165424555Y-71955152D01*
X165427381Y-71951141D01*
X165455511Y-71939707D01*
X165482686Y-71926150D01*
X165488810Y-71926174D01*
X165492109Y-71924834D01*
X165504855Y-71926238D01*
X165527372Y-71926329D01*
X165535601Y-71927870D01*
X165572203Y-71939999D01*
X165634120Y-71946324D01*
X165639202Y-71947276D01*
X165640439Y-71947905D01*
X165648461Y-71949380D01*
X165745943Y-71975501D01*
X165745945Y-71975501D01*
X165904056Y-71975501D01*
X165904057Y-71975501D01*
X165981591Y-71954725D01*
X166013686Y-71950499D01*
X166475002Y-71950499D01*
X166475008Y-71950499D01*
X166577797Y-71939999D01*
X166744334Y-71884814D01*
X166834765Y-71829035D01*
X166902154Y-71810596D01*
X166968817Y-71831518D01*
X167013587Y-71885160D01*
X167022249Y-71954490D01*
X167016444Y-71973475D01*
X167017458Y-71973811D01*
X167015187Y-71980664D01*
X167015186Y-71980666D01*
X166960001Y-72147203D01*
X166960001Y-72147204D01*
X166960000Y-72147204D01*
X166949500Y-72249983D01*
X166949500Y-73050001D01*
X166949501Y-73050019D01*
X166960000Y-73152796D01*
X166960001Y-73152799D01*
X167015185Y-73319331D01*
X167015187Y-73319336D01*
X167044731Y-73367235D01*
X167107288Y-73468656D01*
X167231344Y-73592712D01*
X167340597Y-73660099D01*
X167387321Y-73712047D01*
X167399500Y-73765638D01*
X167399500Y-74737770D01*
X167379815Y-74804809D01*
X167363181Y-74825451D01*
X166735451Y-75453181D01*
X166674128Y-75486666D01*
X166647770Y-75489500D01*
X161187221Y-75489500D01*
X161120182Y-75469815D01*
X161086903Y-75438385D01*
X161030107Y-75360211D01*
X160879786Y-75209890D01*
X160707820Y-75084951D01*
X160707115Y-75084591D01*
X160699054Y-75080485D01*
X160648259Y-75032512D01*
X160631463Y-74964692D01*
X160653999Y-74898556D01*
X160699054Y-74859515D01*
X160707816Y-74855051D01*
X160776969Y-74804809D01*
X160879786Y-74730109D01*
X160879788Y-74730106D01*
X160879792Y-74730104D01*
X161030104Y-74579792D01*
X161030106Y-74579788D01*
X161030109Y-74579786D01*
X161155048Y-74407820D01*
X161155050Y-74407817D01*
X161155051Y-74407816D01*
X161251557Y-74218412D01*
X161317246Y-74016243D01*
X161350500Y-73806287D01*
X161350500Y-73593713D01*
X161317246Y-73383757D01*
X161251557Y-73181588D01*
X161155051Y-72992184D01*
X161155049Y-72992181D01*
X161155048Y-72992179D01*
X161030109Y-72820213D01*
X160879786Y-72669890D01*
X160707820Y-72544951D01*
X160518414Y-72448444D01*
X160518413Y-72448443D01*
X160518412Y-72448443D01*
X160316243Y-72382754D01*
X160316241Y-72382753D01*
X160316240Y-72382753D01*
X160154957Y-72357208D01*
X160106287Y-72349500D01*
X159893713Y-72349500D01*
X159845042Y-72357208D01*
X159683760Y-72382753D01*
X159481585Y-72448444D01*
X159292179Y-72544951D01*
X159120213Y-72669890D01*
X158969890Y-72820213D01*
X158844949Y-72992182D01*
X158834984Y-73011740D01*
X158787009Y-73062536D01*
X158719188Y-73079330D01*
X158653053Y-73056792D01*
X158609602Y-73002076D01*
X158600500Y-72955444D01*
X158600500Y-66824555D01*
X158620185Y-66757516D01*
X158672989Y-66711761D01*
X158742147Y-66701817D01*
X158805703Y-66730842D01*
X158834985Y-66768261D01*
X158844949Y-66787817D01*
X158969890Y-66959786D01*
X159120213Y-67110109D01*
X159292179Y-67235048D01*
X159292181Y-67235049D01*
X159292184Y-67235051D01*
X159481588Y-67331557D01*
X159683757Y-67397246D01*
X159893713Y-67430500D01*
X159893714Y-67430500D01*
X160106286Y-67430500D01*
X160106287Y-67430500D01*
X160316243Y-67397246D01*
X160518412Y-67331557D01*
X160707816Y-67235051D01*
X160798266Y-67169336D01*
X160879786Y-67110109D01*
X160879788Y-67110106D01*
X160879792Y-67110104D01*
X161030104Y-66959792D01*
X161030106Y-66959788D01*
X161030109Y-66959786D01*
X161104845Y-66856919D01*
X161155051Y-66787816D01*
X161157167Y-66783664D01*
X161175235Y-66748205D01*
X161223209Y-66697409D01*
X161285719Y-66680500D01*
X164975501Y-66680500D01*
X165042540Y-66700185D01*
G37*
%TD.AperFunction*%
%TA.AperFunction,Conductor*%
G36*
X180116942Y-68145185D02*
G01*
X180137584Y-68161819D01*
X181072181Y-69096416D01*
X181105666Y-69157739D01*
X181108500Y-69184097D01*
X181108500Y-71375500D01*
X181088815Y-71442539D01*
X181036011Y-71488294D01*
X180984500Y-71499500D01*
X180911948Y-71499500D01*
X180844909Y-71479815D01*
X180799154Y-71427011D01*
X180789453Y-71359546D01*
X180789311Y-71359532D01*
X180789369Y-71358961D01*
X180789210Y-71357853D01*
X180789845Y-71354298D01*
X180789998Y-71352799D01*
X180789999Y-71352797D01*
X180800500Y-71250009D01*
X180800499Y-70249992D01*
X180789999Y-70147203D01*
X180734814Y-69980666D01*
X180642712Y-69831344D01*
X180518656Y-69707288D01*
X180369334Y-69615186D01*
X180202797Y-69560001D01*
X180202795Y-69560000D01*
X180100010Y-69549500D01*
X179299998Y-69549500D01*
X179299980Y-69549501D01*
X179197203Y-69560000D01*
X179197200Y-69560001D01*
X179030668Y-69615185D01*
X179030659Y-69615189D01*
X178877245Y-69709815D01*
X178809852Y-69728255D01*
X178743189Y-69707332D01*
X178698420Y-69653690D01*
X178689759Y-69584359D01*
X178694438Y-69565288D01*
X178739999Y-69427797D01*
X178750500Y-69325009D01*
X178750499Y-68274992D01*
X178749182Y-68262102D01*
X178761950Y-68193411D01*
X178809830Y-68142526D01*
X178872540Y-68125500D01*
X180049903Y-68125500D01*
X180116942Y-68145185D01*
G37*
%TD.AperFunction*%
%TA.AperFunction,Conductor*%
G36*
X171179856Y-62617355D02*
G01*
X171219941Y-62644176D01*
X172863181Y-64287416D01*
X172896666Y-64348739D01*
X172899500Y-64375097D01*
X172899500Y-68070499D01*
X172896949Y-68079184D01*
X172898238Y-68088145D01*
X172887259Y-68112186D01*
X172879815Y-68137538D01*
X172872975Y-68143464D01*
X172869214Y-68151701D01*
X172846978Y-68165991D01*
X172827011Y-68183293D01*
X172816498Y-68185580D01*
X172810436Y-68189476D01*
X172775502Y-68194498D01*
X172775501Y-68194499D01*
X172690943Y-68194499D01*
X172690939Y-68194499D01*
X172683332Y-68194500D01*
X172683331Y-68194499D01*
X172683331Y-68194500D01*
X172123407Y-68194500D01*
X172056368Y-68174815D01*
X172010613Y-68122011D01*
X172000669Y-68052853D01*
X172016675Y-68007380D01*
X172039601Y-67968612D01*
X172059244Y-67935398D01*
X172105098Y-67777569D01*
X172108000Y-67740694D01*
X172108000Y-67309306D01*
X172105098Y-67272431D01*
X172095535Y-67239516D01*
X172059245Y-67114606D01*
X172059244Y-67114603D01*
X172059244Y-67114602D01*
X171975581Y-66973135D01*
X171975580Y-66973134D01*
X171975576Y-66973129D01*
X171859370Y-66856923D01*
X171859362Y-66856917D01*
X171735497Y-66783664D01*
X171717898Y-66773256D01*
X171717897Y-66773255D01*
X171717896Y-66773255D01*
X171717893Y-66773254D01*
X171560073Y-66727402D01*
X171560067Y-66727401D01*
X171523201Y-66724500D01*
X171523194Y-66724500D01*
X169741806Y-66724500D01*
X169741798Y-66724500D01*
X169704932Y-66727401D01*
X169704926Y-66727402D01*
X169547106Y-66773254D01*
X169539946Y-66776353D01*
X169538858Y-66773841D01*
X169523962Y-66777614D01*
X169497313Y-66787554D01*
X169490537Y-66786080D01*
X169483814Y-66787783D01*
X169456836Y-66778748D01*
X169429040Y-66772702D01*
X169421156Y-66766800D01*
X169417560Y-66765596D01*
X169400786Y-66751551D01*
X169336818Y-66687583D01*
X169303333Y-66626260D01*
X169300499Y-66599902D01*
X169300499Y-65899998D01*
X169300498Y-65899985D01*
X169299641Y-65891594D01*
X169291858Y-65815408D01*
X169304627Y-65746719D01*
X169352507Y-65695834D01*
X169420297Y-65678913D01*
X169478336Y-65696077D01*
X169533648Y-65728787D01*
X169547102Y-65736744D01*
X169581436Y-65746719D01*
X169704926Y-65782597D01*
X169704929Y-65782597D01*
X169704931Y-65782598D01*
X169741806Y-65785500D01*
X169741814Y-65785500D01*
X171523186Y-65785500D01*
X171523194Y-65785500D01*
X171560069Y-65782598D01*
X171560071Y-65782597D01*
X171560073Y-65782597D01*
X171624909Y-65763760D01*
X171717898Y-65736744D01*
X171859365Y-65653081D01*
X171975581Y-65536865D01*
X172059244Y-65395398D01*
X172103133Y-65244334D01*
X172105097Y-65237573D01*
X172105098Y-65237567D01*
X172107151Y-65211479D01*
X172108000Y-65200694D01*
X172108000Y-64769306D01*
X172105098Y-64732431D01*
X172095535Y-64699516D01*
X172059245Y-64574606D01*
X172059244Y-64574603D01*
X172059244Y-64574602D01*
X171975581Y-64433135D01*
X171975579Y-64433133D01*
X171975576Y-64433129D01*
X171859370Y-64316923D01*
X171859362Y-64316917D01*
X171717896Y-64233255D01*
X171717893Y-64233254D01*
X171560073Y-64187402D01*
X171560067Y-64187401D01*
X171523201Y-64184500D01*
X171523194Y-64184500D01*
X171118224Y-64184500D01*
X171051185Y-64164815D01*
X171005430Y-64112011D01*
X170995486Y-64042853D01*
X171000516Y-64021501D01*
X171014999Y-63977797D01*
X171025500Y-63875009D01*
X171025499Y-62874992D01*
X171022216Y-62842857D01*
X171014999Y-62772203D01*
X171014998Y-62772201D01*
X171014557Y-62770869D01*
X171014526Y-62769997D01*
X171013581Y-62765578D01*
X171014368Y-62765409D01*
X171012150Y-62701041D01*
X171047878Y-62640997D01*
X171110396Y-62609800D01*
X171179856Y-62617355D01*
G37*
%TD.AperFunction*%
%TA.AperFunction,Conductor*%
G36*
X181452540Y-61770185D02*
G01*
X181498295Y-61822989D01*
X181509501Y-61874500D01*
X181509501Y-61897876D01*
X181515908Y-61957483D01*
X181566202Y-62092328D01*
X181566206Y-62092335D01*
X181652452Y-62207544D01*
X181652455Y-62207547D01*
X181767664Y-62293793D01*
X181767671Y-62293797D01*
X181899082Y-62342810D01*
X181955016Y-62384681D01*
X181979433Y-62450145D01*
X181964582Y-62518418D01*
X181943431Y-62546673D01*
X181829889Y-62660215D01*
X181704951Y-62832179D01*
X181608444Y-63021585D01*
X181542753Y-63223760D01*
X181509500Y-63433713D01*
X181509500Y-63646286D01*
X181540690Y-63843216D01*
X181542754Y-63856243D01*
X181598495Y-64027796D01*
X181608444Y-64058414D01*
X181704951Y-64247820D01*
X181829890Y-64419786D01*
X181980213Y-64570109D01*
X182152182Y-64695050D01*
X182160946Y-64699516D01*
X182211742Y-64747491D01*
X182228536Y-64815312D01*
X182205998Y-64881447D01*
X182160946Y-64920484D01*
X182152182Y-64924949D01*
X181980213Y-65049890D01*
X181829890Y-65200213D01*
X181704951Y-65372179D01*
X181608444Y-65561585D01*
X181542753Y-65763760D01*
X181529949Y-65844602D01*
X181509500Y-65973713D01*
X181509500Y-66186287D01*
X181542754Y-66396243D01*
X181578926Y-66507569D01*
X181608444Y-66598414D01*
X181704951Y-66787820D01*
X181829890Y-66959786D01*
X181980213Y-67110109D01*
X182152182Y-67235050D01*
X182160946Y-67239516D01*
X182211742Y-67287491D01*
X182228536Y-67355312D01*
X182205998Y-67421447D01*
X182160946Y-67460484D01*
X182152182Y-67464949D01*
X181980213Y-67589890D01*
X181829894Y-67740209D01*
X181740407Y-67863378D01*
X181685077Y-67906043D01*
X181615463Y-67912022D01*
X181553669Y-67879416D01*
X181552408Y-67878173D01*
X180837590Y-67163355D01*
X180837588Y-67163352D01*
X180718717Y-67044481D01*
X180718709Y-67044475D01*
X180595143Y-66973135D01*
X180595140Y-66973134D01*
X180595131Y-66973129D01*
X180581785Y-66965423D01*
X180429057Y-66924499D01*
X180270943Y-66924499D01*
X180263347Y-66924499D01*
X180263331Y-66924500D01*
X178899500Y-66924500D01*
X178832461Y-66904815D01*
X178786706Y-66852011D01*
X178775500Y-66800500D01*
X178775499Y-65923687D01*
X178779724Y-65891594D01*
X178792315Y-65844602D01*
X178800500Y-65814057D01*
X178800500Y-65655943D01*
X178800500Y-64670908D01*
X178820185Y-64603869D01*
X178864271Y-64565363D01*
X178863187Y-64563605D01*
X178869332Y-64559814D01*
X178869334Y-64559814D01*
X179018656Y-64467712D01*
X179142712Y-64343656D01*
X179234814Y-64194334D01*
X179289999Y-64027797D01*
X179300500Y-63925009D01*
X179300499Y-62924992D01*
X179297618Y-62896792D01*
X179289999Y-62822203D01*
X179289998Y-62822200D01*
X179281132Y-62795444D01*
X179234814Y-62655666D01*
X179142712Y-62506344D01*
X179018656Y-62382288D01*
X178904005Y-62311571D01*
X178869336Y-62290187D01*
X178869331Y-62290185D01*
X178704774Y-62235656D01*
X178647329Y-62195883D01*
X178620506Y-62131367D01*
X178632821Y-62062591D01*
X178656090Y-62030276D01*
X178899551Y-61786816D01*
X178960872Y-61753334D01*
X178987230Y-61750500D01*
X181385501Y-61750500D01*
X181452540Y-61770185D01*
G37*
%TD.AperFunction*%
%TA.AperFunction,Conductor*%
G36*
X170366942Y-61795185D02*
G01*
X170387584Y-61811819D01*
X170555824Y-61980059D01*
X170589309Y-62041382D01*
X170584325Y-62111074D01*
X170542453Y-62167007D01*
X170476989Y-62191424D01*
X170434479Y-62186113D01*
X170434414Y-62186418D01*
X170430902Y-62185666D01*
X170429140Y-62185446D01*
X170427799Y-62185001D01*
X170427795Y-62185000D01*
X170325010Y-62174500D01*
X169524998Y-62174500D01*
X169524980Y-62174501D01*
X169422203Y-62185000D01*
X169422200Y-62185001D01*
X169255668Y-62240185D01*
X169255663Y-62240187D01*
X169106342Y-62332289D01*
X168982289Y-62456342D01*
X168890187Y-62605663D01*
X168890185Y-62605668D01*
X168872111Y-62660213D01*
X168835001Y-62772203D01*
X168835001Y-62772204D01*
X168835000Y-62772204D01*
X168824500Y-62874983D01*
X168824500Y-63875001D01*
X168824501Y-63875019D01*
X168835000Y-63977796D01*
X168835001Y-63977799D01*
X168890185Y-64144331D01*
X168890187Y-64144336D01*
X168912367Y-64180295D01*
X168982288Y-64293656D01*
X169106344Y-64417712D01*
X169149001Y-64444023D01*
X169195725Y-64495968D01*
X169206948Y-64564930D01*
X169202980Y-64584155D01*
X169159902Y-64732426D01*
X169159901Y-64732432D01*
X169157000Y-64769298D01*
X169157000Y-65200686D01*
X169157001Y-65200711D01*
X169157848Y-65211479D01*
X169143482Y-65279855D01*
X169094428Y-65329610D01*
X169026263Y-65344947D01*
X168969134Y-65326742D01*
X168869340Y-65265189D01*
X168869335Y-65265187D01*
X168869334Y-65265186D01*
X168702797Y-65210001D01*
X168702795Y-65210000D01*
X168600016Y-65199500D01*
X168600009Y-65199500D01*
X167900098Y-65199500D01*
X167833059Y-65179815D01*
X167812417Y-65163181D01*
X167086818Y-64437582D01*
X167053333Y-64376259D01*
X167050499Y-64349901D01*
X167050499Y-64174998D01*
X167050498Y-64174981D01*
X167039999Y-64072203D01*
X167039998Y-64072200D01*
X167030273Y-64042853D01*
X166984814Y-63905666D01*
X166892712Y-63756344D01*
X166799049Y-63662681D01*
X166765564Y-63601358D01*
X166770548Y-63531666D01*
X166799049Y-63487319D01*
X166892712Y-63393656D01*
X166984814Y-63244334D01*
X167039999Y-63077797D01*
X167050500Y-62975009D01*
X167050499Y-62275096D01*
X167070183Y-62208058D01*
X167086818Y-62187416D01*
X167462416Y-61811819D01*
X167523739Y-61778334D01*
X167550097Y-61775500D01*
X170299903Y-61775500D01*
X170366942Y-61795185D01*
G37*
%TD.AperFunction*%
%TA.AperFunction,Conductor*%
G36*
X181832991Y-59470185D02*
G01*
X181878746Y-59522989D01*
X181888690Y-59592147D01*
X181859665Y-59655703D01*
X181809285Y-59690682D01*
X181767671Y-59706202D01*
X181767664Y-59706206D01*
X181652455Y-59792452D01*
X181652452Y-59792455D01*
X181566206Y-59907664D01*
X181566202Y-59907671D01*
X181515908Y-60042517D01*
X181509501Y-60102116D01*
X181509501Y-60102123D01*
X181509500Y-60102135D01*
X181509500Y-60125500D01*
X181489815Y-60192539D01*
X181437011Y-60238294D01*
X181385500Y-60249500D01*
X178551080Y-60249500D01*
X178406092Y-60278340D01*
X178406082Y-60278343D01*
X178269509Y-60334913D01*
X178269507Y-60334914D01*
X178228645Y-60362218D01*
X178228643Y-60362219D01*
X178146589Y-60417043D01*
X178146584Y-60417047D01*
X176375449Y-62188181D01*
X176314126Y-62221666D01*
X176287768Y-62224500D01*
X175799998Y-62224500D01*
X175799980Y-62224501D01*
X175697203Y-62235000D01*
X175697200Y-62235001D01*
X175530668Y-62290185D01*
X175530663Y-62290187D01*
X175381342Y-62382289D01*
X175257289Y-62506342D01*
X175165187Y-62655663D01*
X175165185Y-62655668D01*
X175150150Y-62701041D01*
X175110001Y-62822203D01*
X175110001Y-62822204D01*
X175110000Y-62822204D01*
X175099500Y-62924983D01*
X175099500Y-63925001D01*
X175099501Y-63925019D01*
X175110000Y-64027796D01*
X175111419Y-64034422D01*
X175108342Y-64035080D01*
X175110369Y-64091112D01*
X175074744Y-64151217D01*
X175012279Y-64182520D01*
X174990207Y-64184500D01*
X174691798Y-64184500D01*
X174654932Y-64187401D01*
X174654926Y-64187402D01*
X174497106Y-64233254D01*
X174497103Y-64233255D01*
X174355637Y-64316917D01*
X174355629Y-64316923D01*
X174312181Y-64360372D01*
X174250858Y-64393857D01*
X174181166Y-64388873D01*
X174125233Y-64347001D01*
X174100816Y-64281537D01*
X174100500Y-64272691D01*
X174100500Y-63995944D01*
X174100500Y-63995943D01*
X174094754Y-63974500D01*
X174076310Y-63905666D01*
X174068098Y-63875019D01*
X174059577Y-63843216D01*
X174059576Y-63843213D01*
X173980524Y-63706290D01*
X173980521Y-63706286D01*
X173980520Y-63706284D01*
X173868716Y-63594480D01*
X173868715Y-63594479D01*
X173864385Y-63590149D01*
X173864374Y-63590139D01*
X171087590Y-60813355D01*
X171087588Y-60813352D01*
X170968717Y-60694481D01*
X170968716Y-60694480D01*
X170881904Y-60644360D01*
X170881904Y-60644359D01*
X170881900Y-60644358D01*
X170831785Y-60615423D01*
X170679057Y-60574499D01*
X170520943Y-60574499D01*
X170513347Y-60574499D01*
X170513331Y-60574500D01*
X167336669Y-60574500D01*
X167336653Y-60574499D01*
X167329057Y-60574499D01*
X167170943Y-60574499D01*
X167063587Y-60603265D01*
X167018210Y-60615424D01*
X167018209Y-60615425D01*
X166968096Y-60644359D01*
X166968095Y-60644360D01*
X166924689Y-60669420D01*
X166881285Y-60694479D01*
X166881282Y-60694481D01*
X166137583Y-61438181D01*
X166076260Y-61471666D01*
X166049902Y-61474500D01*
X165650097Y-61474500D01*
X165583058Y-61454815D01*
X165562416Y-61438181D01*
X164762590Y-60638355D01*
X164762588Y-60638352D01*
X164643717Y-60519481D01*
X164643716Y-60519480D01*
X164556904Y-60469360D01*
X164556904Y-60469359D01*
X164556900Y-60469358D01*
X164506785Y-60440423D01*
X164354057Y-60399499D01*
X164195943Y-60399499D01*
X164188347Y-60399499D01*
X164188331Y-60399500D01*
X161474499Y-60399500D01*
X161407460Y-60379815D01*
X161361705Y-60327011D01*
X161350499Y-60275500D01*
X161350499Y-60102129D01*
X161350498Y-60102123D01*
X161350497Y-60102116D01*
X161344091Y-60042517D01*
X161293796Y-59907669D01*
X161293795Y-59907668D01*
X161293793Y-59907664D01*
X161207547Y-59792455D01*
X161207544Y-59792452D01*
X161092335Y-59706206D01*
X161092328Y-59706202D01*
X161050715Y-59690682D01*
X160994781Y-59648811D01*
X160970364Y-59583347D01*
X160985215Y-59515074D01*
X161034620Y-59465668D01*
X161094048Y-59450500D01*
X181765952Y-59450500D01*
X181832991Y-59470185D01*
G37*
%TD.AperFunction*%
%TD*%
M02*
